M48
; DRILL file {KiCad (5.1.10)-1} date 07/13/21 17:11:01
; FORMAT={-:-/ absolute / inch / decimal}
; #@! TF.CreationDate,2021-07-13T17:11:01+02:00
; #@! TF.GenerationSoftware,Kicad,Pcbnew,(5.1.10)-1
; #@! TF.FileFunction,NonPlated,1,2,NPTH
FMAT,2
INCH
T1C0.0197
T2C0.0689
T3C0.1181
T4C0.1200
T5C0.1570
%
G90
G05
T1
X4.217Y-4.3334
X4.217Y-4.3925
X4.217Y-7.2734
X4.217Y-7.3325
X4.2466Y-4.3334
X4.2466Y-4.3925
X4.2466Y-7.2734
X4.2466Y-7.3325
X4.2761Y-4.3334
X4.2761Y-4.3925
X4.2761Y-7.2734
X4.2761Y-7.3325
X6.973Y-2.863
X6.973Y-2.8925
X6.973Y-2.922
X6.973Y-5.8029
X6.973Y-5.8325
X6.973Y-5.862
X6.973Y-8.7429
X6.973Y-8.7724
X6.973Y-8.8019
X7.032Y-2.863
X7.032Y-2.8925
X7.032Y-2.922
X7.032Y-5.8029
X7.032Y-5.8325
X7.032Y-5.862
X7.032Y-8.7429
X7.032Y-8.7724
X7.032Y-8.8019
X9.7682Y-4.3334
X9.7682Y-4.3925
X9.7682Y-7.2734
X9.7682Y-7.3325
X9.7978Y-4.3334
X9.7978Y-4.3925
X9.7978Y-7.2734
X9.7978Y-7.3325
X9.8273Y-4.3334
X9.8273Y-4.3925
X9.8273Y-7.2734
X9.8273Y-7.3325
T2
X2.145Y-1.955
X2.145Y-2.8925
X2.545Y-1.955
X2.545Y-2.8925
X3.645Y-3.83
X4.02Y-1.955
X4.02Y-2.8925
X4.02Y-3.83
X4.045Y-3.83
X4.42Y-1.955
X4.42Y-2.8925
X4.42Y-3.83
X5.895Y-1.955
X5.895Y-2.8925
X6.295Y-1.955
X6.295Y-2.8925
X7.71Y-1.955
X7.71Y-2.8925
X8.11Y-1.955
X8.11Y-2.8925
X9.21Y-3.83
X9.585Y-1.955
X9.585Y-2.8925
X9.585Y-3.83
X9.61Y-3.83
X9.985Y-1.955
X9.985Y-2.8925
X9.985Y-3.83
X11.46Y-1.955
X11.46Y-2.8925
X11.86Y-1.955
X11.86Y-2.8925
T3
X2.195Y-1.855
X2.195Y-2.7925
X2.445Y-1.755
X2.445Y-2.6925
X3.695Y-3.73
X3.945Y-3.63
X4.07Y-1.855
X4.07Y-2.7925
X4.12Y-4.03
X4.32Y-1.755
X4.32Y-2.6925
X4.37Y-3.93
X5.945Y-1.855
X5.945Y-2.7925
X6.195Y-1.755
X6.195Y-2.6925
X7.76Y-1.855
X7.76Y-2.7925
X8.01Y-1.755
X8.01Y-2.6925
X9.26Y-3.73
X9.51Y-3.63
X9.635Y-1.855
X9.635Y-2.7925
X9.685Y-4.03
X9.885Y-1.755
X9.885Y-2.6925
X9.935Y-3.93
X11.51Y-1.855
X11.51Y-2.7925
X11.76Y-1.755
X11.76Y-2.6925
T4
X1.8762Y-1.68
X1.8762Y-2.6175
X1.97Y-4.105
X1.97Y-4.105
X2.2512Y-4.105
X2.8137Y-1.68
X2.8137Y-2.6175
X3.47Y-1.68
X3.47Y-2.6175
X3.7512Y-1.68
X3.7512Y-2.6175
X4.6887Y-1.68
X4.6887Y-2.6175
X4.97Y-1.68
X4.97Y-2.6175
X5.6262Y-1.68
X5.6262Y-2.6175
X5.72Y-4.105
X6.1887Y-4.105
X6.47Y-4.105
X6.5637Y-1.68
X6.5637Y-2.6175
X7.4412Y-1.68
X7.4412Y-2.6175
X7.535Y-4.105
X7.535Y-4.105
X7.8162Y-4.105
X8.3787Y-1.68
X8.3787Y-2.6175
X9.035Y-1.68
X9.035Y-2.6175
X9.3162Y-1.68
X9.3162Y-2.6175
X10.2537Y-1.68
X10.2537Y-2.6175
X10.535Y-1.68
X10.535Y-2.6175
X11.1912Y-1.68
X11.1912Y-2.6175
X11.285Y-4.105
X11.7537Y-4.105
X12.035Y-4.105
X12.1287Y-1.68
X12.1287Y-2.6175
T5
X1.8762Y-2.28
X1.8762Y-3.2175
X1.97Y-3.505
X1.97Y-3.505
X2.2512Y-3.505
X2.345Y-1.955
X2.345Y-2.8925
X2.8137Y-2.28
X2.8137Y-3.2175
X3.47Y-2.28
X3.47Y-3.2175
X3.7512Y-2.28
X3.7512Y-3.2175
X3.845Y-3.83
X4.22Y-1.955
X4.22Y-2.8925
X4.22Y-3.83
X4.6887Y-2.28
X4.6887Y-3.2175
X4.97Y-2.28
X4.97Y-3.2175
X5.6262Y-2.28
X5.6262Y-3.2175
X5.72Y-3.505
X6.095Y-1.955
X6.095Y-2.8925
X6.1887Y-3.505
X6.47Y-3.505
X6.5637Y-2.28
X6.5637Y-3.2175
X7.4412Y-2.28
X7.4412Y-3.2175
X7.535Y-3.505
X7.535Y-3.505
X7.8162Y-3.505
X7.91Y-1.955
X7.91Y-2.8925
X8.3787Y-2.28
X8.3787Y-3.2175
X9.035Y-2.28
X9.035Y-3.2175
X9.3162Y-2.28
X9.3162Y-3.2175
X9.41Y-3.83
X9.785Y-1.955
X9.785Y-2.8925
X9.785Y-3.83
X10.2537Y-2.28
X10.2537Y-3.2175
X10.535Y-2.28
X10.535Y-3.2175
X11.1912Y-2.28
X11.1912Y-3.2175
X11.285Y-3.505
X11.66Y-1.955
X11.66Y-2.8925
X11.7537Y-3.505
X12.035Y-3.505
X12.1287Y-2.28
X12.1287Y-3.2175
T0
M30
