G04 #@! TF.GenerationSoftware,KiCad,Pcbnew,(5.1.10)-1*
G04 #@! TF.CreationDate,2021-07-29T20:21:27+02:00*
G04 #@! TF.ProjectId,stab_tester,73746162-5f74-4657-9374-65722e6b6963,rev?*
G04 #@! TF.SameCoordinates,Original*
G04 #@! TF.FileFunction,Copper,L2,Bot*
G04 #@! TF.FilePolarity,Positive*
%FSLAX46Y46*%
G04 Gerber Fmt 4.6, Leading zero omitted, Abs format (unit mm)*
G04 Created by KiCad (PCBNEW (5.1.10)-1) date 2021-07-29 20:21:27*
%MOMM*%
%LPD*%
G01*
G04 APERTURE LIST*
G04 APERTURE END LIST*
G04 #@! TO.P,REF\u002A\u002A,2*
G04 #@! TO.N,N/C*
G04 #@! TA.AperFunction,SMDPad,CuDef*
G36*
G01*
X64378000Y-69514500D02*
X64378000Y-67264500D01*
G75*
G02*
X64503000Y-67139500I125000J0D01*
G01*
X66803000Y-67139500D01*
G75*
G02*
X66928000Y-67264500I0J-125000D01*
G01*
X66928000Y-69514500D01*
G75*
G02*
X66803000Y-69639500I-125000J0D01*
G01*
X64503000Y-69639500D01*
G75*
G02*
X64378000Y-69514500I0J125000D01*
G01*
G37*
G04 #@! TD.AperFunction*
G04 #@! TO.P,REF\u002A\u002A,1*
G04 #@! TA.AperFunction,SMDPad,CuDef*
G36*
G01*
X50928000Y-72054500D02*
X50928000Y-69804500D01*
G75*
G02*
X51053000Y-69679500I125000J0D01*
G01*
X53353000Y-69679500D01*
G75*
G02*
X53478000Y-69804500I0J-125000D01*
G01*
X53478000Y-72054500D01*
G75*
G02*
X53353000Y-72179500I-125000J0D01*
G01*
X51053000Y-72179500D01*
G75*
G02*
X50928000Y-72054500I0J125000D01*
G01*
G37*
G04 #@! TD.AperFunction*
G04 #@! TD*
G04 #@! TO.P,REF\u002A\u002A,2*
G04 #@! TO.N,N/C*
G04 #@! TA.AperFunction,SMDPad,CuDef*
G36*
G01*
X112003000Y-69514500D02*
X112003000Y-67264500D01*
G75*
G02*
X112128000Y-67139500I125000J0D01*
G01*
X114428000Y-67139500D01*
G75*
G02*
X114553000Y-67264500I0J-125000D01*
G01*
X114553000Y-69514500D01*
G75*
G02*
X114428000Y-69639500I-125000J0D01*
G01*
X112128000Y-69639500D01*
G75*
G02*
X112003000Y-69514500I0J125000D01*
G01*
G37*
G04 #@! TD.AperFunction*
G04 #@! TO.P,REF\u002A\u002A,1*
G04 #@! TA.AperFunction,SMDPad,CuDef*
G36*
G01*
X98553000Y-72054500D02*
X98553000Y-69804500D01*
G75*
G02*
X98678000Y-69679500I125000J0D01*
G01*
X100978000Y-69679500D01*
G75*
G02*
X101103000Y-69804500I0J-125000D01*
G01*
X101103000Y-72054500D01*
G75*
G02*
X100978000Y-72179500I-125000J0D01*
G01*
X98678000Y-72179500D01*
G75*
G02*
X98553000Y-72054500I0J125000D01*
G01*
G37*
G04 #@! TD.AperFunction*
G04 #@! TD*
G04 #@! TO.P,REF\u002A\u002A,2*
G04 #@! TO.N,N/C*
G04 #@! TA.AperFunction,SMDPad,CuDef*
G36*
G01*
X159628000Y-69514500D02*
X159628000Y-67264500D01*
G75*
G02*
X159753000Y-67139500I125000J0D01*
G01*
X162053000Y-67139500D01*
G75*
G02*
X162178000Y-67264500I0J-125000D01*
G01*
X162178000Y-69514500D01*
G75*
G02*
X162053000Y-69639500I-125000J0D01*
G01*
X159753000Y-69639500D01*
G75*
G02*
X159628000Y-69514500I0J125000D01*
G01*
G37*
G04 #@! TD.AperFunction*
G04 #@! TO.P,REF\u002A\u002A,1*
G04 #@! TA.AperFunction,SMDPad,CuDef*
G36*
G01*
X146178000Y-72054500D02*
X146178000Y-69804500D01*
G75*
G02*
X146303000Y-69679500I125000J0D01*
G01*
X148603000Y-69679500D01*
G75*
G02*
X148728000Y-69804500I0J-125000D01*
G01*
X148728000Y-72054500D01*
G75*
G02*
X148603000Y-72179500I-125000J0D01*
G01*
X146303000Y-72179500D01*
G75*
G02*
X146178000Y-72054500I0J125000D01*
G01*
G37*
G04 #@! TD.AperFunction*
G04 #@! TD*
G04 #@! TO.P,REF\u002A\u002A,2*
G04 #@! TO.N,N/C*
G04 #@! TA.AperFunction,SMDPad,CuDef*
G36*
G01*
X159628000Y-45702000D02*
X159628000Y-43452000D01*
G75*
G02*
X159753000Y-43327000I125000J0D01*
G01*
X162053000Y-43327000D01*
G75*
G02*
X162178000Y-43452000I0J-125000D01*
G01*
X162178000Y-45702000D01*
G75*
G02*
X162053000Y-45827000I-125000J0D01*
G01*
X159753000Y-45827000D01*
G75*
G02*
X159628000Y-45702000I0J125000D01*
G01*
G37*
G04 #@! TD.AperFunction*
G04 #@! TO.P,REF\u002A\u002A,1*
G04 #@! TA.AperFunction,SMDPad,CuDef*
G36*
G01*
X146178000Y-48242000D02*
X146178000Y-45992000D01*
G75*
G02*
X146303000Y-45867000I125000J0D01*
G01*
X148603000Y-45867000D01*
G75*
G02*
X148728000Y-45992000I0J-125000D01*
G01*
X148728000Y-48242000D01*
G75*
G02*
X148603000Y-48367000I-125000J0D01*
G01*
X146303000Y-48367000D01*
G75*
G02*
X146178000Y-48242000I0J125000D01*
G01*
G37*
G04 #@! TD.AperFunction*
G04 #@! TD*
G04 #@! TO.P,REF\u002A\u002A,2*
G04 #@! TO.N,N/C*
G04 #@! TA.AperFunction,SMDPad,CuDef*
G36*
G01*
X112003000Y-45702000D02*
X112003000Y-43452000D01*
G75*
G02*
X112128000Y-43327000I125000J0D01*
G01*
X114428000Y-43327000D01*
G75*
G02*
X114553000Y-43452000I0J-125000D01*
G01*
X114553000Y-45702000D01*
G75*
G02*
X114428000Y-45827000I-125000J0D01*
G01*
X112128000Y-45827000D01*
G75*
G02*
X112003000Y-45702000I0J125000D01*
G01*
G37*
G04 #@! TD.AperFunction*
G04 #@! TO.P,REF\u002A\u002A,1*
G04 #@! TA.AperFunction,SMDPad,CuDef*
G36*
G01*
X98553000Y-48242000D02*
X98553000Y-45992000D01*
G75*
G02*
X98678000Y-45867000I125000J0D01*
G01*
X100978000Y-45867000D01*
G75*
G02*
X101103000Y-45992000I0J-125000D01*
G01*
X101103000Y-48242000D01*
G75*
G02*
X100978000Y-48367000I-125000J0D01*
G01*
X98678000Y-48367000D01*
G75*
G02*
X98553000Y-48242000I0J125000D01*
G01*
G37*
G04 #@! TD.AperFunction*
G04 #@! TD*
G04 #@! TO.P,REF\u002A\u002A,2*
G04 #@! TO.N,N/C*
G04 #@! TA.AperFunction,SMDPad,CuDef*
G36*
G01*
X64378000Y-45702000D02*
X64378000Y-43452000D01*
G75*
G02*
X64503000Y-43327000I125000J0D01*
G01*
X66803000Y-43327000D01*
G75*
G02*
X66928000Y-43452000I0J-125000D01*
G01*
X66928000Y-45702000D01*
G75*
G02*
X66803000Y-45827000I-125000J0D01*
G01*
X64503000Y-45827000D01*
G75*
G02*
X64378000Y-45702000I0J125000D01*
G01*
G37*
G04 #@! TD.AperFunction*
G04 #@! TO.P,REF\u002A\u002A,1*
G04 #@! TA.AperFunction,SMDPad,CuDef*
G36*
G01*
X50928000Y-48242000D02*
X50928000Y-45992000D01*
G75*
G02*
X51053000Y-45867000I125000J0D01*
G01*
X53353000Y-45867000D01*
G75*
G02*
X53478000Y-45992000I0J-125000D01*
G01*
X53478000Y-48242000D01*
G75*
G02*
X53353000Y-48367000I-125000J0D01*
G01*
X51053000Y-48367000D01*
G75*
G02*
X50928000Y-48242000I0J125000D01*
G01*
G37*
G04 #@! TD.AperFunction*
G04 #@! TD*
G04 #@! TO.P,REF\u002A\u002A,1*
G04 #@! TO.N,N/C*
G04 #@! TA.AperFunction,SMDPad,CuDef*
G36*
G01*
X89028000Y-95867000D02*
X89028000Y-93617000D01*
G75*
G02*
X89153000Y-93492000I125000J0D01*
G01*
X91453000Y-93492000D01*
G75*
G02*
X91578000Y-93617000I0J-125000D01*
G01*
X91578000Y-95867000D01*
G75*
G02*
X91453000Y-95992000I-125000J0D01*
G01*
X89153000Y-95992000D01*
G75*
G02*
X89028000Y-95867000I0J125000D01*
G01*
G37*
G04 #@! TD.AperFunction*
G04 #@! TO.P,REF\u002A\u002A,2*
G04 #@! TA.AperFunction,SMDPad,CuDef*
G36*
G01*
X102478000Y-93327000D02*
X102478000Y-91077000D01*
G75*
G02*
X102603000Y-90952000I125000J0D01*
G01*
X104903000Y-90952000D01*
G75*
G02*
X105028000Y-91077000I0J-125000D01*
G01*
X105028000Y-93327000D01*
G75*
G02*
X104903000Y-93452000I-125000J0D01*
G01*
X102603000Y-93452000D01*
G75*
G02*
X102478000Y-93327000I0J125000D01*
G01*
G37*
G04 #@! TD.AperFunction*
G04 #@! TD*
G04 #@! TO.P,REF\u002A\u002A,1*
G04 #@! TO.N,N/C*
G04 #@! TA.AperFunction,SMDPad,CuDef*
G36*
G01*
X115823000Y-98697000D02*
X115823000Y-100947000D01*
G75*
G02*
X115698000Y-101072000I-125000J0D01*
G01*
X113398000Y-101072000D01*
G75*
G02*
X113273000Y-100947000I0J125000D01*
G01*
X113273000Y-98697000D01*
G75*
G02*
X113398000Y-98572000I125000J0D01*
G01*
X115698000Y-98572000D01*
G75*
G02*
X115823000Y-98697000I0J-125000D01*
G01*
G37*
G04 #@! TD.AperFunction*
G04 #@! TO.P,REF\u002A\u002A,2*
G04 #@! TA.AperFunction,SMDPad,CuDef*
G36*
G01*
X102373000Y-101237000D02*
X102373000Y-103487000D01*
G75*
G02*
X102248000Y-103612000I-125000J0D01*
G01*
X99948000Y-103612000D01*
G75*
G02*
X99823000Y-103487000I0J125000D01*
G01*
X99823000Y-101237000D01*
G75*
G02*
X99948000Y-101112000I125000J0D01*
G01*
X102248000Y-101112000D01*
G75*
G02*
X102373000Y-101237000I0J-125000D01*
G01*
G37*
G04 #@! TD.AperFunction*
G04 #@! TD*
M02*
