M48
; DRILL file {KiCad (5.1.10)-1} date 07/06/21 10:58:18
; FORMAT={-:-/ absolute / inch / decimal}
; #@! TF.CreationDate,2021-07-06T10:58:18+02:00
; #@! TF.GenerationSoftware,Kicad,Pcbnew,(5.1.10)-1
; #@! TF.FileFunction,NonPlated,1,2,NPTH
FMAT,2
INCH
T1C0.0689
T2C0.1181
T3C0.1200
T4C0.1570
%
G90
G05
T1
X2.145Y-1.955
X2.145Y-2.8925
X2.545Y-1.955
X2.545Y-2.8925
X3.645Y-3.83
X4.02Y-1.955
X4.02Y-2.8925
X4.02Y-3.83
X4.045Y-3.83
X4.42Y-1.955
X4.42Y-2.8925
X4.42Y-3.83
X5.895Y-1.955
X5.895Y-2.8925
X6.295Y-1.955
X6.295Y-2.8925
T2
X2.195Y-1.855
X2.195Y-2.7925
X2.445Y-1.755
X2.445Y-2.6925
X3.695Y-3.73
X3.945Y-3.63
X4.07Y-1.855
X4.07Y-2.7925
X4.12Y-4.03
X4.32Y-1.755
X4.32Y-2.6925
X4.37Y-3.93
X5.945Y-1.855
X5.945Y-2.7925
X6.195Y-1.755
X6.195Y-2.6925
T3
X1.8762Y-1.68
X1.8762Y-2.6175
X1.97Y-4.105
X1.97Y-4.105
X2.2512Y-4.105
X2.8137Y-1.68
X2.8137Y-2.6175
X3.47Y-1.68
X3.47Y-2.6175
X3.7512Y-1.68
X3.7512Y-2.6175
X4.6887Y-1.68
X4.6887Y-2.6175
X4.97Y-1.68
X4.97Y-2.6175
X5.6262Y-1.68
X5.6262Y-2.6175
X5.72Y-4.105
X6.1887Y-4.105
X6.47Y-4.105
X6.5637Y-1.68
X6.5637Y-2.6175
T4
X1.8762Y-2.28
X1.8762Y-3.2175
X1.97Y-3.505
X1.97Y-3.505
X2.2512Y-3.505
X2.345Y-1.955
X2.345Y-2.8925
X2.8137Y-2.28
X2.8137Y-3.2175
X3.47Y-2.28
X3.47Y-3.2175
X3.7512Y-2.28
X3.7512Y-3.2175
X3.845Y-3.83
X4.22Y-1.955
X4.22Y-2.8925
X4.22Y-3.83
X4.6887Y-2.28
X4.6887Y-3.2175
X4.97Y-2.28
X4.97Y-3.2175
X5.6262Y-2.28
X5.6262Y-3.2175
X5.72Y-3.505
X6.095Y-1.955
X6.095Y-2.8925
X6.1887Y-3.505
X6.47Y-3.505
X6.5637Y-2.28
X6.5637Y-3.2175
T0
M30
