G04 #@! TF.GenerationSoftware,KiCad,Pcbnew,(5.1.10)-1*
G04 #@! TF.CreationDate,2021-07-06T10:58:16+02:00*
G04 #@! TF.ProjectId,stab_tester,73746162-5f74-4657-9374-65722e6b6963,rev?*
G04 #@! TF.SameCoordinates,Original*
G04 #@! TF.FileFunction,Copper,L1,Top*
G04 #@! TF.FilePolarity,Positive*
%FSLAX46Y46*%
G04 Gerber Fmt 4.6, Leading zero omitted, Abs format (unit mm)*
G04 Created by KiCad (PCBNEW (5.1.10)-1) date 2021-07-06 10:58:16*
%MOMM*%
%LPD*%
G01*
G04 APERTURE LIST*
G04 #@! TA.AperFunction,NonConductor*
%ADD10C,0.254000*%
G04 #@! TD*
G04 #@! TA.AperFunction,NonConductor*
%ADD11C,0.100000*%
G04 #@! TD*
G04 APERTURE END LIST*
D10*
X174302255Y-37913595D02*
X174724781Y-38041163D01*
X175114482Y-38248370D01*
X175456513Y-38527325D01*
X175737849Y-38867400D01*
X175947771Y-39255645D01*
X176078285Y-39677266D01*
X176128000Y-40150275D01*
X176128001Y-106771053D01*
X176081406Y-107246257D01*
X175953838Y-107668784D01*
X175746632Y-108058481D01*
X175467677Y-108400514D01*
X175127601Y-108681850D01*
X174739356Y-108891772D01*
X174317737Y-109022286D01*
X173844726Y-109072001D01*
X40548957Y-109072001D01*
X40073745Y-109025406D01*
X39651217Y-108897837D01*
X39261520Y-108690631D01*
X38919488Y-108411677D01*
X38638153Y-108071602D01*
X38428228Y-107683354D01*
X38297716Y-107261735D01*
X38248001Y-106788727D01*
X38248001Y-105544315D01*
X38845905Y-105544315D01*
X38845905Y-106069687D01*
X38948400Y-106584964D01*
X39149451Y-107070344D01*
X39441332Y-107507175D01*
X39812826Y-107878669D01*
X40249657Y-108170550D01*
X40735037Y-108371601D01*
X41250314Y-108474096D01*
X41775686Y-108474096D01*
X42290963Y-108371601D01*
X42776343Y-108170550D01*
X43213174Y-107878669D01*
X43584668Y-107507175D01*
X43876549Y-107070344D01*
X44077600Y-106584964D01*
X44180095Y-106069687D01*
X44180095Y-105544315D01*
X44077600Y-105029038D01*
X43876549Y-104543658D01*
X43584668Y-104106827D01*
X43532198Y-104054357D01*
X47879000Y-104054357D01*
X47879000Y-104479643D01*
X47961970Y-104896757D01*
X48124719Y-105289670D01*
X48360996Y-105643282D01*
X48661718Y-105944004D01*
X49015330Y-106180281D01*
X49408243Y-106343030D01*
X49825357Y-106426000D01*
X50250643Y-106426000D01*
X50667757Y-106343030D01*
X51060670Y-106180281D01*
X51414282Y-105944004D01*
X51715004Y-105643282D01*
X51951281Y-105289670D01*
X52114030Y-104896757D01*
X52197000Y-104479643D01*
X52197000Y-104054357D01*
X55022750Y-104054357D01*
X55022750Y-104479643D01*
X55105720Y-104896757D01*
X55268469Y-105289670D01*
X55504746Y-105643282D01*
X55805468Y-105944004D01*
X56159080Y-106180281D01*
X56551993Y-106343030D01*
X56969107Y-106426000D01*
X57394393Y-106426000D01*
X57811507Y-106343030D01*
X58204420Y-106180281D01*
X58558032Y-105944004D01*
X58858754Y-105643282D01*
X59095031Y-105289670D01*
X59257780Y-104896757D01*
X59340750Y-104479643D01*
X59340750Y-104054357D01*
X59257780Y-103637243D01*
X59095031Y-103244330D01*
X58858754Y-102890718D01*
X58558032Y-102589996D01*
X58204420Y-102353719D01*
X57811507Y-102190970D01*
X57614192Y-102151721D01*
X102513000Y-102151721D01*
X102513000Y-102572279D01*
X102595047Y-102984756D01*
X102755988Y-103373302D01*
X102989637Y-103722983D01*
X103287017Y-104020363D01*
X103636698Y-104254012D01*
X104025244Y-104414953D01*
X104437721Y-104497000D01*
X104858279Y-104497000D01*
X105270756Y-104414953D01*
X105659302Y-104254012D01*
X105958107Y-104054357D01*
X143129000Y-104054357D01*
X143129000Y-104479643D01*
X143211970Y-104896757D01*
X143374719Y-105289670D01*
X143610996Y-105643282D01*
X143911718Y-105944004D01*
X144265330Y-106180281D01*
X144658243Y-106343030D01*
X145075357Y-106426000D01*
X145500643Y-106426000D01*
X145917757Y-106343030D01*
X146310670Y-106180281D01*
X146664282Y-105944004D01*
X146965004Y-105643282D01*
X147201281Y-105289670D01*
X147364030Y-104896757D01*
X147447000Y-104479643D01*
X147447000Y-104054357D01*
X155035250Y-104054357D01*
X155035250Y-104479643D01*
X155118220Y-104896757D01*
X155280969Y-105289670D01*
X155517246Y-105643282D01*
X155817968Y-105944004D01*
X156171580Y-106180281D01*
X156564493Y-106343030D01*
X156981607Y-106426000D01*
X157406893Y-106426000D01*
X157824007Y-106343030D01*
X158216920Y-106180281D01*
X158570532Y-105944004D01*
X158871254Y-105643282D01*
X159107531Y-105289670D01*
X159270280Y-104896757D01*
X159353250Y-104479643D01*
X159353250Y-104054357D01*
X162179000Y-104054357D01*
X162179000Y-104479643D01*
X162261970Y-104896757D01*
X162424719Y-105289670D01*
X162660996Y-105643282D01*
X162961718Y-105944004D01*
X163315330Y-106180281D01*
X163708243Y-106343030D01*
X164125357Y-106426000D01*
X164550643Y-106426000D01*
X164967757Y-106343030D01*
X165360670Y-106180281D01*
X165714282Y-105944004D01*
X166015004Y-105643282D01*
X166081131Y-105544315D01*
X170195905Y-105544315D01*
X170195905Y-106069687D01*
X170298400Y-106584964D01*
X170499451Y-107070344D01*
X170791332Y-107507175D01*
X171162826Y-107878669D01*
X171599657Y-108170550D01*
X172085037Y-108371601D01*
X172600314Y-108474096D01*
X173125686Y-108474096D01*
X173640963Y-108371601D01*
X174126343Y-108170550D01*
X174563174Y-107878669D01*
X174934668Y-107507175D01*
X175226549Y-107070344D01*
X175427600Y-106584964D01*
X175530095Y-106069687D01*
X175530095Y-105544315D01*
X175427600Y-105029038D01*
X175226549Y-104543658D01*
X174934668Y-104106827D01*
X174563174Y-103735333D01*
X174126343Y-103443452D01*
X173640963Y-103242401D01*
X173125686Y-103139906D01*
X172600314Y-103139906D01*
X172085037Y-103242401D01*
X171599657Y-103443452D01*
X171162826Y-103735333D01*
X170791332Y-104106827D01*
X170499451Y-104543658D01*
X170298400Y-105029038D01*
X170195905Y-105544315D01*
X166081131Y-105544315D01*
X166251281Y-105289670D01*
X166414030Y-104896757D01*
X166497000Y-104479643D01*
X166497000Y-104054357D01*
X166414030Y-103637243D01*
X166251281Y-103244330D01*
X166015004Y-102890718D01*
X165714282Y-102589996D01*
X165360670Y-102353719D01*
X164967757Y-102190970D01*
X164550643Y-102108000D01*
X164125357Y-102108000D01*
X163708243Y-102190970D01*
X163315330Y-102353719D01*
X162961718Y-102589996D01*
X162660996Y-102890718D01*
X162424719Y-103244330D01*
X162261970Y-103637243D01*
X162179000Y-104054357D01*
X159353250Y-104054357D01*
X159270280Y-103637243D01*
X159107531Y-103244330D01*
X158871254Y-102890718D01*
X158570532Y-102589996D01*
X158216920Y-102353719D01*
X157824007Y-102190970D01*
X157406893Y-102108000D01*
X156981607Y-102108000D01*
X156564493Y-102190970D01*
X156171580Y-102353719D01*
X155817968Y-102589996D01*
X155517246Y-102890718D01*
X155280969Y-103244330D01*
X155118220Y-103637243D01*
X155035250Y-104054357D01*
X147447000Y-104054357D01*
X147364030Y-103637243D01*
X147201281Y-103244330D01*
X146965004Y-102890718D01*
X146664282Y-102589996D01*
X146310670Y-102353719D01*
X145917757Y-102190970D01*
X145500643Y-102108000D01*
X145075357Y-102108000D01*
X144658243Y-102190970D01*
X144265330Y-102353719D01*
X143911718Y-102589996D01*
X143610996Y-102890718D01*
X143374719Y-103244330D01*
X143211970Y-103637243D01*
X143129000Y-104054357D01*
X105958107Y-104054357D01*
X106008983Y-104020363D01*
X106306363Y-103722983D01*
X106540012Y-103373302D01*
X106700953Y-102984756D01*
X106783000Y-102572279D01*
X106783000Y-102151721D01*
X106700953Y-101739244D01*
X106540012Y-101350698D01*
X106306363Y-101001017D01*
X106008983Y-100703637D01*
X105659302Y-100469988D01*
X105270756Y-100309047D01*
X104858279Y-100227000D01*
X104437721Y-100227000D01*
X104025244Y-100309047D01*
X103636698Y-100469988D01*
X103287017Y-100703637D01*
X102989637Y-101001017D01*
X102755988Y-101350698D01*
X102595047Y-101739244D01*
X102513000Y-102151721D01*
X57614192Y-102151721D01*
X57394393Y-102108000D01*
X56969107Y-102108000D01*
X56551993Y-102190970D01*
X56159080Y-102353719D01*
X55805468Y-102589996D01*
X55504746Y-102890718D01*
X55268469Y-103244330D01*
X55105720Y-103637243D01*
X55022750Y-104054357D01*
X52197000Y-104054357D01*
X52114030Y-103637243D01*
X51951281Y-103244330D01*
X51715004Y-102890718D01*
X51414282Y-102589996D01*
X51060670Y-102353719D01*
X50667757Y-102190970D01*
X50250643Y-102108000D01*
X49825357Y-102108000D01*
X49408243Y-102190970D01*
X49015330Y-102353719D01*
X48661718Y-102589996D01*
X48360996Y-102890718D01*
X48124719Y-103244330D01*
X47961970Y-103637243D01*
X47879000Y-104054357D01*
X43532198Y-104054357D01*
X43213174Y-103735333D01*
X42776343Y-103443452D01*
X42290963Y-103242401D01*
X41775686Y-103139906D01*
X41250314Y-103139906D01*
X40735037Y-103242401D01*
X40249657Y-103443452D01*
X39812826Y-103735333D01*
X39441332Y-104106827D01*
X39149451Y-104543658D01*
X38948400Y-105029038D01*
X38845905Y-105544315D01*
X38248001Y-105544315D01*
X38248001Y-97133278D01*
X91073000Y-97133278D01*
X91073000Y-97430722D01*
X91131029Y-97722451D01*
X91244856Y-97997253D01*
X91410107Y-98244569D01*
X91620431Y-98454893D01*
X91867747Y-98620144D01*
X92142549Y-98733971D01*
X92434278Y-98792000D01*
X92731722Y-98792000D01*
X93023451Y-98733971D01*
X93298253Y-98620144D01*
X93545569Y-98454893D01*
X93755893Y-98244569D01*
X93921144Y-97997253D01*
X94034971Y-97722451D01*
X94093000Y-97430722D01*
X94093000Y-97133278D01*
X94042023Y-96877000D01*
X94063279Y-96877000D01*
X94475756Y-96794953D01*
X94864302Y-96634012D01*
X95170708Y-96429279D01*
X95135127Y-96515178D01*
X95034100Y-97023076D01*
X95034100Y-97540924D01*
X95135127Y-98048822D01*
X95333299Y-98527251D01*
X95621000Y-98957826D01*
X95987174Y-99324000D01*
X96417749Y-99611701D01*
X96896178Y-99809873D01*
X97404076Y-99910900D01*
X97921924Y-99910900D01*
X98429822Y-99809873D01*
X98908251Y-99611701D01*
X99338826Y-99324000D01*
X99705000Y-98957826D01*
X99992701Y-98527251D01*
X100190873Y-98048822D01*
X100291900Y-97540924D01*
X100291900Y-97133278D01*
X100598000Y-97133278D01*
X100598000Y-97430722D01*
X100656029Y-97722451D01*
X100769856Y-97997253D01*
X100935107Y-98244569D01*
X101145431Y-98454893D01*
X101392747Y-98620144D01*
X101667549Y-98733971D01*
X101959278Y-98792000D01*
X102256722Y-98792000D01*
X102425500Y-98758428D01*
X102594278Y-98792000D01*
X102891722Y-98792000D01*
X103183451Y-98733971D01*
X103458253Y-98620144D01*
X103705569Y-98454893D01*
X103915893Y-98244569D01*
X104081144Y-97997253D01*
X104194971Y-97722451D01*
X104253000Y-97430722D01*
X104253000Y-97133278D01*
X104231080Y-97023076D01*
X104559100Y-97023076D01*
X104559100Y-97540924D01*
X104660127Y-98048822D01*
X104858299Y-98527251D01*
X105146000Y-98957826D01*
X105512174Y-99324000D01*
X105942749Y-99611701D01*
X106421178Y-99809873D01*
X106929076Y-99910900D01*
X107446924Y-99910900D01*
X107954822Y-99809873D01*
X108433251Y-99611701D01*
X108863826Y-99324000D01*
X108934237Y-99253589D01*
X108863000Y-99611721D01*
X108863000Y-100032279D01*
X108945047Y-100444756D01*
X109105988Y-100833302D01*
X109339637Y-101182983D01*
X109637017Y-101480363D01*
X109986698Y-101714012D01*
X110375244Y-101874953D01*
X110787721Y-101957000D01*
X111208279Y-101957000D01*
X111620756Y-101874953D01*
X112009302Y-101714012D01*
X112358983Y-101480363D01*
X112656363Y-101182983D01*
X112890012Y-100833302D01*
X113050953Y-100444756D01*
X113133000Y-100032279D01*
X113133000Y-99611721D01*
X113050953Y-99199244D01*
X112890012Y-98810698D01*
X112810501Y-98691701D01*
X112983253Y-98620144D01*
X113230569Y-98454893D01*
X113440893Y-98244569D01*
X113606144Y-97997253D01*
X113719971Y-97722451D01*
X113778000Y-97430722D01*
X113778000Y-97133278D01*
X113719971Y-96841549D01*
X113606144Y-96566747D01*
X113440893Y-96319431D01*
X113230569Y-96109107D01*
X112983253Y-95943856D01*
X112708451Y-95830029D01*
X112416722Y-95772000D01*
X112119278Y-95772000D01*
X111827549Y-95830029D01*
X111552747Y-95943856D01*
X111305431Y-96109107D01*
X111095107Y-96319431D01*
X110929856Y-96566747D01*
X110816029Y-96841549D01*
X110758000Y-97133278D01*
X110758000Y-97430722D01*
X110808977Y-97687000D01*
X110787721Y-97687000D01*
X110375244Y-97769047D01*
X109986698Y-97929988D01*
X109680292Y-98134721D01*
X109715873Y-98048822D01*
X109816900Y-97540924D01*
X109816900Y-97023076D01*
X109715873Y-96515178D01*
X109517701Y-96036749D01*
X109230000Y-95606174D01*
X108863826Y-95240000D01*
X108433251Y-94952299D01*
X107954822Y-94754127D01*
X107446924Y-94653100D01*
X106929076Y-94653100D01*
X106421178Y-94754127D01*
X105942749Y-94952299D01*
X105512174Y-95240000D01*
X105146000Y-95606174D01*
X104858299Y-96036749D01*
X104660127Y-96515178D01*
X104559100Y-97023076D01*
X104231080Y-97023076D01*
X104194971Y-96841549D01*
X104081144Y-96566747D01*
X103915893Y-96319431D01*
X103705569Y-96109107D01*
X103458253Y-95943856D01*
X103183451Y-95830029D01*
X102891722Y-95772000D01*
X102594278Y-95772000D01*
X102425500Y-95805572D01*
X102256722Y-95772000D01*
X101959278Y-95772000D01*
X101667549Y-95830029D01*
X101392747Y-95943856D01*
X101145431Y-96109107D01*
X100935107Y-96319431D01*
X100769856Y-96566747D01*
X100656029Y-96841549D01*
X100598000Y-97133278D01*
X100291900Y-97133278D01*
X100291900Y-97023076D01*
X100190873Y-96515178D01*
X99992701Y-96036749D01*
X99705000Y-95606174D01*
X99338826Y-95240000D01*
X98908251Y-94952299D01*
X98429822Y-94754127D01*
X97921924Y-94653100D01*
X97404076Y-94653100D01*
X96896178Y-94754127D01*
X96417749Y-94952299D01*
X95987174Y-95240000D01*
X95916763Y-95310411D01*
X95988000Y-94952279D01*
X95988000Y-94531721D01*
X95905953Y-94119244D01*
X95745012Y-93730698D01*
X95511363Y-93381017D01*
X95213983Y-93083637D01*
X94864302Y-92849988D01*
X94475756Y-92689047D01*
X94063279Y-92607000D01*
X93642721Y-92607000D01*
X93230244Y-92689047D01*
X92841698Y-92849988D01*
X92492017Y-93083637D01*
X92194637Y-93381017D01*
X91960988Y-93730698D01*
X91800047Y-94119244D01*
X91718000Y-94531721D01*
X91718000Y-94952279D01*
X91800047Y-95364756D01*
X91960988Y-95753302D01*
X92040499Y-95872299D01*
X91867747Y-95943856D01*
X91620431Y-96109107D01*
X91410107Y-96319431D01*
X91244856Y-96566747D01*
X91131029Y-96841549D01*
X91073000Y-97133278D01*
X38248001Y-97133278D01*
X38248001Y-91991721D01*
X98068000Y-91991721D01*
X98068000Y-92412279D01*
X98150047Y-92824756D01*
X98310988Y-93213302D01*
X98544637Y-93562983D01*
X98842017Y-93860363D01*
X99191698Y-94094012D01*
X99580244Y-94254953D01*
X99992721Y-94337000D01*
X100413279Y-94337000D01*
X100825756Y-94254953D01*
X101214302Y-94094012D01*
X101563983Y-93860363D01*
X101861363Y-93562983D01*
X102095012Y-93213302D01*
X102255953Y-92824756D01*
X102338000Y-92412279D01*
X102338000Y-91991721D01*
X102255953Y-91579244D01*
X102095012Y-91190698D01*
X101861363Y-90841017D01*
X101563983Y-90543637D01*
X101214302Y-90309988D01*
X100825756Y-90149047D01*
X100413279Y-90067000D01*
X99992721Y-90067000D01*
X99580244Y-90149047D01*
X99191698Y-90309988D01*
X98842017Y-90543637D01*
X98544637Y-90841017D01*
X98310988Y-91190698D01*
X98150047Y-91579244D01*
X98068000Y-91991721D01*
X38248001Y-91991721D01*
X38248001Y-88768076D01*
X47409100Y-88768076D01*
X47409100Y-89285924D01*
X47510127Y-89793822D01*
X47708299Y-90272251D01*
X47996000Y-90702826D01*
X48362174Y-91069000D01*
X48792749Y-91356701D01*
X49271178Y-91554873D01*
X49779076Y-91655900D01*
X50296924Y-91655900D01*
X50804822Y-91554873D01*
X51283251Y-91356701D01*
X51713826Y-91069000D01*
X52080000Y-90702826D01*
X52367701Y-90272251D01*
X52565873Y-89793822D01*
X52666900Y-89285924D01*
X52666900Y-88768076D01*
X54552850Y-88768076D01*
X54552850Y-89285924D01*
X54653877Y-89793822D01*
X54852049Y-90272251D01*
X55139750Y-90702826D01*
X55505924Y-91069000D01*
X55936499Y-91356701D01*
X56414928Y-91554873D01*
X56922826Y-91655900D01*
X57440674Y-91655900D01*
X57948572Y-91554873D01*
X58427001Y-91356701D01*
X58857576Y-91069000D01*
X59223750Y-90702826D01*
X59511451Y-90272251D01*
X59709623Y-89793822D01*
X59810650Y-89285924D01*
X59810650Y-88768076D01*
X142659100Y-88768076D01*
X142659100Y-89285924D01*
X142760127Y-89793822D01*
X142958299Y-90272251D01*
X143246000Y-90702826D01*
X143612174Y-91069000D01*
X144042749Y-91356701D01*
X144521178Y-91554873D01*
X145029076Y-91655900D01*
X145546924Y-91655900D01*
X146054822Y-91554873D01*
X146533251Y-91356701D01*
X146963826Y-91069000D01*
X147330000Y-90702826D01*
X147617701Y-90272251D01*
X147815873Y-89793822D01*
X147916900Y-89285924D01*
X147916900Y-88768076D01*
X154565350Y-88768076D01*
X154565350Y-89285924D01*
X154666377Y-89793822D01*
X154864549Y-90272251D01*
X155152250Y-90702826D01*
X155518424Y-91069000D01*
X155948999Y-91356701D01*
X156427428Y-91554873D01*
X156935326Y-91655900D01*
X157453174Y-91655900D01*
X157961072Y-91554873D01*
X158439501Y-91356701D01*
X158870076Y-91069000D01*
X159236250Y-90702826D01*
X159523951Y-90272251D01*
X159722123Y-89793822D01*
X159823150Y-89285924D01*
X159823150Y-88768076D01*
X161709100Y-88768076D01*
X161709100Y-89285924D01*
X161810127Y-89793822D01*
X162008299Y-90272251D01*
X162296000Y-90702826D01*
X162662174Y-91069000D01*
X163092749Y-91356701D01*
X163571178Y-91554873D01*
X164079076Y-91655900D01*
X164596924Y-91655900D01*
X165104822Y-91554873D01*
X165583251Y-91356701D01*
X166013826Y-91069000D01*
X166380000Y-90702826D01*
X166667701Y-90272251D01*
X166865873Y-89793822D01*
X166966900Y-89285924D01*
X166966900Y-88768076D01*
X166865873Y-88260178D01*
X166667701Y-87781749D01*
X166380000Y-87351174D01*
X166013826Y-86985000D01*
X165583251Y-86697299D01*
X165104822Y-86499127D01*
X164596924Y-86398100D01*
X164079076Y-86398100D01*
X163571178Y-86499127D01*
X163092749Y-86697299D01*
X162662174Y-86985000D01*
X162296000Y-87351174D01*
X162008299Y-87781749D01*
X161810127Y-88260178D01*
X161709100Y-88768076D01*
X159823150Y-88768076D01*
X159722123Y-88260178D01*
X159523951Y-87781749D01*
X159236250Y-87351174D01*
X158870076Y-86985000D01*
X158439501Y-86697299D01*
X157961072Y-86499127D01*
X157453174Y-86398100D01*
X156935326Y-86398100D01*
X156427428Y-86499127D01*
X155948999Y-86697299D01*
X155518424Y-86985000D01*
X155152250Y-87351174D01*
X154864549Y-87781749D01*
X154666377Y-88260178D01*
X154565350Y-88768076D01*
X147916900Y-88768076D01*
X147815873Y-88260178D01*
X147617701Y-87781749D01*
X147330000Y-87351174D01*
X146963826Y-86985000D01*
X146533251Y-86697299D01*
X146054822Y-86499127D01*
X145546924Y-86398100D01*
X145029076Y-86398100D01*
X144521178Y-86499127D01*
X144042749Y-86697299D01*
X143612174Y-86985000D01*
X143246000Y-87351174D01*
X142958299Y-87781749D01*
X142760127Y-88260178D01*
X142659100Y-88768076D01*
X59810650Y-88768076D01*
X59709623Y-88260178D01*
X59511451Y-87781749D01*
X59223750Y-87351174D01*
X58857576Y-86985000D01*
X58427001Y-86697299D01*
X57948572Y-86499127D01*
X57440674Y-86398100D01*
X56922826Y-86398100D01*
X56414928Y-86499127D01*
X55936499Y-86697299D01*
X55505924Y-86985000D01*
X55139750Y-87351174D01*
X54852049Y-87781749D01*
X54653877Y-88260178D01*
X54552850Y-88768076D01*
X52666900Y-88768076D01*
X52565873Y-88260178D01*
X52367701Y-87781749D01*
X52080000Y-87351174D01*
X51713826Y-86985000D01*
X51283251Y-86697299D01*
X50804822Y-86499127D01*
X50296924Y-86398100D01*
X49779076Y-86398100D01*
X49271178Y-86499127D01*
X48792749Y-86697299D01*
X48362174Y-86985000D01*
X47996000Y-87351174D01*
X47708299Y-87781749D01*
X47510127Y-88260178D01*
X47409100Y-88768076D01*
X38248001Y-88768076D01*
X38248001Y-85285229D01*
X105317053Y-85285229D01*
X105317053Y-85653773D01*
X105388952Y-86015236D01*
X105529988Y-86355727D01*
X105734740Y-86662160D01*
X105995341Y-86922761D01*
X106301774Y-87127513D01*
X106642265Y-87268549D01*
X107003728Y-87340448D01*
X107372272Y-87340448D01*
X107733735Y-87268549D01*
X108074226Y-87127513D01*
X108380659Y-86922761D01*
X108641260Y-86662160D01*
X108846012Y-86355727D01*
X108987048Y-86015236D01*
X109058947Y-85653773D01*
X109058947Y-85285229D01*
X108987048Y-84923766D01*
X108846012Y-84583275D01*
X108641260Y-84276842D01*
X108380659Y-84016241D01*
X108074226Y-83811489D01*
X107733735Y-83670453D01*
X107372272Y-83598554D01*
X107003728Y-83598554D01*
X106642265Y-83670453D01*
X106301774Y-83811489D01*
X105995341Y-84016241D01*
X105734740Y-84276842D01*
X105529988Y-84583275D01*
X105388952Y-84923766D01*
X105317053Y-85285229D01*
X38248001Y-85285229D01*
X38248001Y-81465576D01*
X45027850Y-81465576D01*
X45027850Y-81983424D01*
X45128877Y-82491322D01*
X45327049Y-82969751D01*
X45614750Y-83400326D01*
X45980924Y-83766500D01*
X46411499Y-84054201D01*
X46889928Y-84252373D01*
X47397826Y-84353400D01*
X47915674Y-84353400D01*
X48423572Y-84252373D01*
X48902001Y-84054201D01*
X49332576Y-83766500D01*
X49698750Y-83400326D01*
X49986451Y-82969751D01*
X50184623Y-82491322D01*
X50285650Y-81983424D01*
X50285650Y-81465576D01*
X68840350Y-81465576D01*
X68840350Y-81983424D01*
X68941377Y-82491322D01*
X69139549Y-82969751D01*
X69427250Y-83400326D01*
X69793424Y-83766500D01*
X70223999Y-84054201D01*
X70702428Y-84252373D01*
X71210326Y-84353400D01*
X71728174Y-84353400D01*
X72236072Y-84252373D01*
X72714501Y-84054201D01*
X73145076Y-83766500D01*
X73511250Y-83400326D01*
X73798951Y-82969751D01*
X73997123Y-82491322D01*
X74098150Y-81983424D01*
X74098150Y-81465577D01*
X85509100Y-81465577D01*
X85509100Y-81983425D01*
X85610127Y-82491323D01*
X85808299Y-82969752D01*
X86096000Y-83400327D01*
X86462174Y-83766501D01*
X86892749Y-84054202D01*
X87371178Y-84252374D01*
X87879076Y-84353401D01*
X88396924Y-84353401D01*
X88904822Y-84252374D01*
X89383251Y-84054202D01*
X89813826Y-83766501D01*
X90180000Y-83400327D01*
X90467701Y-82969752D01*
X90665873Y-82491323D01*
X90766900Y-81983425D01*
X90766900Y-81465576D01*
X92652850Y-81465576D01*
X92652850Y-81983424D01*
X92753877Y-82491322D01*
X92952049Y-82969751D01*
X93239750Y-83400326D01*
X93605924Y-83766500D01*
X94036499Y-84054201D01*
X94514928Y-84252373D01*
X95022826Y-84353400D01*
X95540674Y-84353400D01*
X96048572Y-84252373D01*
X96527001Y-84054201D01*
X96957576Y-83766500D01*
X97323750Y-83400326D01*
X97611451Y-82969751D01*
X97809623Y-82491322D01*
X97910650Y-81983424D01*
X97910650Y-81465576D01*
X116465350Y-81465576D01*
X116465350Y-81983424D01*
X116566377Y-82491322D01*
X116764549Y-82969751D01*
X117052250Y-83400326D01*
X117418424Y-83766500D01*
X117848999Y-84054201D01*
X118327428Y-84252373D01*
X118835326Y-84353400D01*
X119353174Y-84353400D01*
X119861072Y-84252373D01*
X120339501Y-84054201D01*
X120770076Y-83766500D01*
X121136250Y-83400326D01*
X121423951Y-82969751D01*
X121622123Y-82491322D01*
X121723150Y-81983424D01*
X121723150Y-81465577D01*
X123609100Y-81465577D01*
X123609100Y-81983425D01*
X123710127Y-82491323D01*
X123908299Y-82969752D01*
X124196000Y-83400327D01*
X124562174Y-83766501D01*
X124992749Y-84054202D01*
X125471178Y-84252374D01*
X125979076Y-84353401D01*
X126496924Y-84353401D01*
X127004822Y-84252374D01*
X127483251Y-84054202D01*
X127913826Y-83766501D01*
X128280000Y-83400327D01*
X128567701Y-82969752D01*
X128765873Y-82491323D01*
X128866900Y-81983425D01*
X128866900Y-81465576D01*
X140277850Y-81465576D01*
X140277850Y-81983424D01*
X140378877Y-82491322D01*
X140577049Y-82969751D01*
X140864750Y-83400326D01*
X141230924Y-83766500D01*
X141661499Y-84054201D01*
X142139928Y-84252373D01*
X142647826Y-84353400D01*
X143165674Y-84353400D01*
X143673572Y-84252373D01*
X144152001Y-84054201D01*
X144582576Y-83766500D01*
X144948750Y-83400326D01*
X145236451Y-82969751D01*
X145434623Y-82491322D01*
X145535650Y-81983424D01*
X145535650Y-81465576D01*
X164090350Y-81465576D01*
X164090350Y-81983424D01*
X164191377Y-82491322D01*
X164389549Y-82969751D01*
X164677250Y-83400326D01*
X165043424Y-83766500D01*
X165473999Y-84054201D01*
X165952428Y-84252373D01*
X166460326Y-84353400D01*
X166978174Y-84353400D01*
X167486072Y-84252373D01*
X167964501Y-84054201D01*
X168395076Y-83766500D01*
X168761250Y-83400326D01*
X169048951Y-82969751D01*
X169247123Y-82491322D01*
X169348150Y-81983424D01*
X169348150Y-81465576D01*
X169247123Y-80957678D01*
X169048951Y-80479249D01*
X168761250Y-80048674D01*
X168395076Y-79682500D01*
X167964501Y-79394799D01*
X167486072Y-79196627D01*
X166978174Y-79095600D01*
X166460326Y-79095600D01*
X165952428Y-79196627D01*
X165473999Y-79394799D01*
X165043424Y-79682500D01*
X164677250Y-80048674D01*
X164389549Y-80479249D01*
X164191377Y-80957678D01*
X164090350Y-81465576D01*
X145535650Y-81465576D01*
X145434623Y-80957678D01*
X145236451Y-80479249D01*
X144948750Y-80048674D01*
X144582576Y-79682500D01*
X144152001Y-79394799D01*
X143673572Y-79196627D01*
X143165674Y-79095600D01*
X142647826Y-79095600D01*
X142139928Y-79196627D01*
X141661499Y-79394799D01*
X141230924Y-79682500D01*
X140864750Y-80048674D01*
X140577049Y-80479249D01*
X140378877Y-80957678D01*
X140277850Y-81465576D01*
X128866900Y-81465576D01*
X128765873Y-80957679D01*
X128567701Y-80479250D01*
X128280000Y-80048675D01*
X127913826Y-79682501D01*
X127483251Y-79394800D01*
X127004822Y-79196628D01*
X126496924Y-79095601D01*
X125979076Y-79095601D01*
X125471178Y-79196628D01*
X124992749Y-79394800D01*
X124562174Y-79682501D01*
X124196000Y-80048675D01*
X123908299Y-80479250D01*
X123710127Y-80957679D01*
X123609100Y-81465577D01*
X121723150Y-81465577D01*
X121723150Y-81465576D01*
X121622123Y-80957678D01*
X121423951Y-80479249D01*
X121136250Y-80048674D01*
X120770076Y-79682500D01*
X120339501Y-79394799D01*
X119861072Y-79196627D01*
X119353174Y-79095600D01*
X118835326Y-79095600D01*
X118327428Y-79196627D01*
X117848999Y-79394799D01*
X117418424Y-79682500D01*
X117052250Y-80048674D01*
X116764549Y-80479249D01*
X116566377Y-80957678D01*
X116465350Y-81465576D01*
X97910650Y-81465576D01*
X97809623Y-80957678D01*
X97611451Y-80479249D01*
X97323750Y-80048674D01*
X96957576Y-79682500D01*
X96527001Y-79394799D01*
X96048572Y-79196627D01*
X95540674Y-79095600D01*
X95022826Y-79095600D01*
X94514928Y-79196627D01*
X94036499Y-79394799D01*
X93605924Y-79682500D01*
X93239750Y-80048674D01*
X92952049Y-80479249D01*
X92753877Y-80957678D01*
X92652850Y-81465576D01*
X90766900Y-81465576D01*
X90665873Y-80957679D01*
X90467701Y-80479250D01*
X90180000Y-80048675D01*
X89813826Y-79682501D01*
X89383251Y-79394800D01*
X88904822Y-79196628D01*
X88396924Y-79095601D01*
X87879076Y-79095601D01*
X87371178Y-79196628D01*
X86892749Y-79394800D01*
X86462174Y-79682501D01*
X86096000Y-80048675D01*
X85808299Y-80479250D01*
X85610127Y-80957679D01*
X85509100Y-81465577D01*
X74098150Y-81465577D01*
X74098150Y-81465576D01*
X73997123Y-80957678D01*
X73798951Y-80479249D01*
X73511250Y-80048674D01*
X73145076Y-79682500D01*
X72714501Y-79394799D01*
X72236072Y-79196627D01*
X71728174Y-79095600D01*
X71210326Y-79095600D01*
X70702428Y-79196627D01*
X70223999Y-79394799D01*
X69793424Y-79682500D01*
X69427250Y-80048674D01*
X69139549Y-80479249D01*
X68941377Y-80957678D01*
X68840350Y-81465576D01*
X50285650Y-81465576D01*
X50184623Y-80957678D01*
X49986451Y-80479249D01*
X49698750Y-80048674D01*
X49332576Y-79682500D01*
X48902001Y-79394799D01*
X48423572Y-79196627D01*
X47915674Y-79095600D01*
X47397826Y-79095600D01*
X46889928Y-79196627D01*
X46411499Y-79394799D01*
X45980924Y-79682500D01*
X45614750Y-80048674D01*
X45327049Y-80479249D01*
X45128877Y-80957678D01*
X45027850Y-81465576D01*
X38248001Y-81465576D01*
X38248001Y-73285229D01*
X39317053Y-73285229D01*
X39317053Y-73653773D01*
X39388952Y-74015236D01*
X39529988Y-74355727D01*
X39734740Y-74662160D01*
X39995341Y-74922761D01*
X40301774Y-75127513D01*
X40642265Y-75268549D01*
X41003728Y-75340448D01*
X41372272Y-75340448D01*
X41733735Y-75268549D01*
X42074226Y-75127513D01*
X42380659Y-74922761D01*
X42641260Y-74662160D01*
X42846012Y-74355727D01*
X42987048Y-74015236D01*
X43058947Y-73653773D01*
X43058947Y-73320778D01*
X52973000Y-73320778D01*
X52973000Y-73618222D01*
X53031029Y-73909951D01*
X53144856Y-74184753D01*
X53310107Y-74432069D01*
X53520431Y-74642393D01*
X53767747Y-74807644D01*
X54042549Y-74921471D01*
X54334278Y-74979500D01*
X54631722Y-74979500D01*
X54923451Y-74921471D01*
X55198253Y-74807644D01*
X55445569Y-74642393D01*
X55655893Y-74432069D01*
X55821144Y-74184753D01*
X55934971Y-73909951D01*
X55993000Y-73618222D01*
X55993000Y-73320778D01*
X55942023Y-73064500D01*
X55963279Y-73064500D01*
X56375756Y-72982453D01*
X56764302Y-72821512D01*
X57070708Y-72616779D01*
X57035127Y-72702678D01*
X56934100Y-73210576D01*
X56934100Y-73728424D01*
X57035127Y-74236322D01*
X57233299Y-74714751D01*
X57521000Y-75145326D01*
X57887174Y-75511500D01*
X58317749Y-75799201D01*
X58796178Y-75997373D01*
X59304076Y-76098400D01*
X59821924Y-76098400D01*
X60329822Y-75997373D01*
X60808251Y-75799201D01*
X61238826Y-75511500D01*
X61605000Y-75145326D01*
X61892701Y-74714751D01*
X62090873Y-74236322D01*
X62191900Y-73728424D01*
X62191900Y-73320778D01*
X63133000Y-73320778D01*
X63133000Y-73618222D01*
X63191029Y-73909951D01*
X63304856Y-74184753D01*
X63470107Y-74432069D01*
X63680431Y-74642393D01*
X63927747Y-74807644D01*
X64202549Y-74921471D01*
X64494278Y-74979500D01*
X64791722Y-74979500D01*
X65083451Y-74921471D01*
X65358253Y-74807644D01*
X65605569Y-74642393D01*
X65815893Y-74432069D01*
X65981144Y-74184753D01*
X66094971Y-73909951D01*
X66153000Y-73618222D01*
X66153000Y-73320778D01*
X100598000Y-73320778D01*
X100598000Y-73618222D01*
X100656029Y-73909951D01*
X100769856Y-74184753D01*
X100935107Y-74432069D01*
X101145431Y-74642393D01*
X101392747Y-74807644D01*
X101667549Y-74921471D01*
X101959278Y-74979500D01*
X102256722Y-74979500D01*
X102548451Y-74921471D01*
X102823253Y-74807644D01*
X103070569Y-74642393D01*
X103280893Y-74432069D01*
X103446144Y-74184753D01*
X103559971Y-73909951D01*
X103618000Y-73618222D01*
X103618000Y-73320778D01*
X103567023Y-73064500D01*
X103588279Y-73064500D01*
X104000756Y-72982453D01*
X104389302Y-72821512D01*
X104541700Y-72719683D01*
X104446266Y-73199464D01*
X104446266Y-73739538D01*
X104551629Y-74269235D01*
X104758307Y-74768199D01*
X105058356Y-75217254D01*
X105440247Y-75599145D01*
X105889302Y-75899194D01*
X106388266Y-76105872D01*
X106917963Y-76211235D01*
X107458037Y-76211235D01*
X107987734Y-76105872D01*
X108486698Y-75899194D01*
X108935753Y-75599145D01*
X109317644Y-75217254D01*
X109617693Y-74768199D01*
X109824371Y-74269235D01*
X109929734Y-73739538D01*
X109929734Y-73320778D01*
X110758000Y-73320778D01*
X110758000Y-73618222D01*
X110816029Y-73909951D01*
X110929856Y-74184753D01*
X111095107Y-74432069D01*
X111305431Y-74642393D01*
X111552747Y-74807644D01*
X111827549Y-74921471D01*
X112119278Y-74979500D01*
X112416722Y-74979500D01*
X112708451Y-74921471D01*
X112983253Y-74807644D01*
X113230569Y-74642393D01*
X113440893Y-74432069D01*
X113606144Y-74184753D01*
X113719971Y-73909951D01*
X113778000Y-73618222D01*
X113778000Y-73320778D01*
X148223000Y-73320778D01*
X148223000Y-73618222D01*
X148281029Y-73909951D01*
X148394856Y-74184753D01*
X148560107Y-74432069D01*
X148770431Y-74642393D01*
X149017747Y-74807644D01*
X149292549Y-74921471D01*
X149584278Y-74979500D01*
X149881722Y-74979500D01*
X150173451Y-74921471D01*
X150448253Y-74807644D01*
X150695569Y-74642393D01*
X150905893Y-74432069D01*
X151071144Y-74184753D01*
X151184971Y-73909951D01*
X151243000Y-73618222D01*
X151243000Y-73320778D01*
X151192023Y-73064500D01*
X151213279Y-73064500D01*
X151625756Y-72982453D01*
X152014302Y-72821512D01*
X152320708Y-72616779D01*
X152285127Y-72702678D01*
X152184100Y-73210576D01*
X152184100Y-73728424D01*
X152285127Y-74236322D01*
X152483299Y-74714751D01*
X152771000Y-75145326D01*
X153137174Y-75511500D01*
X153567749Y-75799201D01*
X154046178Y-75997373D01*
X154554076Y-76098400D01*
X155071924Y-76098400D01*
X155579822Y-75997373D01*
X156058251Y-75799201D01*
X156488826Y-75511500D01*
X156855000Y-75145326D01*
X157142701Y-74714751D01*
X157340873Y-74236322D01*
X157441900Y-73728424D01*
X157441900Y-73320778D01*
X158383000Y-73320778D01*
X158383000Y-73618222D01*
X158441029Y-73909951D01*
X158554856Y-74184753D01*
X158720107Y-74432069D01*
X158930431Y-74642393D01*
X159177747Y-74807644D01*
X159452549Y-74921471D01*
X159744278Y-74979500D01*
X160041722Y-74979500D01*
X160333451Y-74921471D01*
X160608253Y-74807644D01*
X160855569Y-74642393D01*
X161065893Y-74432069D01*
X161231144Y-74184753D01*
X161344971Y-73909951D01*
X161403000Y-73618222D01*
X161403000Y-73320778D01*
X161395929Y-73285229D01*
X171317053Y-73285229D01*
X171317053Y-73653773D01*
X171388952Y-74015236D01*
X171529988Y-74355727D01*
X171734740Y-74662160D01*
X171995341Y-74922761D01*
X172301774Y-75127513D01*
X172642265Y-75268549D01*
X173003728Y-75340448D01*
X173372272Y-75340448D01*
X173733735Y-75268549D01*
X174074226Y-75127513D01*
X174380659Y-74922761D01*
X174641260Y-74662160D01*
X174846012Y-74355727D01*
X174987048Y-74015236D01*
X175058947Y-73653773D01*
X175058947Y-73285229D01*
X174987048Y-72923766D01*
X174846012Y-72583275D01*
X174641260Y-72276842D01*
X174380659Y-72016241D01*
X174074226Y-71811489D01*
X173733735Y-71670453D01*
X173372272Y-71598554D01*
X173003728Y-71598554D01*
X172642265Y-71670453D01*
X172301774Y-71811489D01*
X171995341Y-72016241D01*
X171734740Y-72276842D01*
X171529988Y-72583275D01*
X171388952Y-72923766D01*
X171317053Y-73285229D01*
X161395929Y-73285229D01*
X161344971Y-73029049D01*
X161231144Y-72754247D01*
X161065893Y-72506931D01*
X160855569Y-72296607D01*
X160608253Y-72131356D01*
X160333451Y-72017529D01*
X160041722Y-71959500D01*
X159744278Y-71959500D01*
X159452549Y-72017529D01*
X159177747Y-72131356D01*
X158930431Y-72296607D01*
X158720107Y-72506931D01*
X158554856Y-72754247D01*
X158441029Y-73029049D01*
X158383000Y-73320778D01*
X157441900Y-73320778D01*
X157441900Y-73210576D01*
X157340873Y-72702678D01*
X157142701Y-72224249D01*
X156855000Y-71793674D01*
X156488826Y-71427500D01*
X156058251Y-71139799D01*
X155579822Y-70941627D01*
X155071924Y-70840600D01*
X154554076Y-70840600D01*
X154046178Y-70941627D01*
X153567749Y-71139799D01*
X153137174Y-71427500D01*
X153066763Y-71497911D01*
X153138000Y-71139779D01*
X153138000Y-70719221D01*
X153055953Y-70306744D01*
X152895012Y-69918198D01*
X152661363Y-69568517D01*
X152363983Y-69271137D01*
X152014302Y-69037488D01*
X151625756Y-68876547D01*
X151213279Y-68794500D01*
X150792721Y-68794500D01*
X150380244Y-68876547D01*
X149991698Y-69037488D01*
X149642017Y-69271137D01*
X149344637Y-69568517D01*
X149110988Y-69918198D01*
X148950047Y-70306744D01*
X148868000Y-70719221D01*
X148868000Y-71139779D01*
X148950047Y-71552256D01*
X149110988Y-71940802D01*
X149190499Y-72059799D01*
X149017747Y-72131356D01*
X148770431Y-72296607D01*
X148560107Y-72506931D01*
X148394856Y-72754247D01*
X148281029Y-73029049D01*
X148223000Y-73320778D01*
X113778000Y-73320778D01*
X113719971Y-73029049D01*
X113606144Y-72754247D01*
X113440893Y-72506931D01*
X113230569Y-72296607D01*
X112983253Y-72131356D01*
X112708451Y-72017529D01*
X112416722Y-71959500D01*
X112119278Y-71959500D01*
X111827549Y-72017529D01*
X111552747Y-72131356D01*
X111305431Y-72296607D01*
X111095107Y-72506931D01*
X110929856Y-72754247D01*
X110816029Y-73029049D01*
X110758000Y-73320778D01*
X109929734Y-73320778D01*
X109929734Y-73199464D01*
X109824371Y-72669767D01*
X109617693Y-72170803D01*
X109317644Y-71721748D01*
X108935753Y-71339857D01*
X108486698Y-71039808D01*
X107987734Y-70833130D01*
X107458037Y-70727767D01*
X106917963Y-70727767D01*
X106388266Y-70833130D01*
X105889302Y-71039808D01*
X105478253Y-71314462D01*
X105513000Y-71139779D01*
X105513000Y-70719221D01*
X105430953Y-70306744D01*
X105270012Y-69918198D01*
X105036363Y-69568517D01*
X104738983Y-69271137D01*
X104389302Y-69037488D01*
X104000756Y-68876547D01*
X103588279Y-68794500D01*
X103167721Y-68794500D01*
X102755244Y-68876547D01*
X102366698Y-69037488D01*
X102017017Y-69271137D01*
X101719637Y-69568517D01*
X101485988Y-69918198D01*
X101325047Y-70306744D01*
X101243000Y-70719221D01*
X101243000Y-71139779D01*
X101325047Y-71552256D01*
X101485988Y-71940802D01*
X101565499Y-72059799D01*
X101392747Y-72131356D01*
X101145431Y-72296607D01*
X100935107Y-72506931D01*
X100769856Y-72754247D01*
X100656029Y-73029049D01*
X100598000Y-73320778D01*
X66153000Y-73320778D01*
X66094971Y-73029049D01*
X65981144Y-72754247D01*
X65815893Y-72506931D01*
X65605569Y-72296607D01*
X65358253Y-72131356D01*
X65083451Y-72017529D01*
X64791722Y-71959500D01*
X64494278Y-71959500D01*
X64202549Y-72017529D01*
X63927747Y-72131356D01*
X63680431Y-72296607D01*
X63470107Y-72506931D01*
X63304856Y-72754247D01*
X63191029Y-73029049D01*
X63133000Y-73320778D01*
X62191900Y-73320778D01*
X62191900Y-73210576D01*
X62090873Y-72702678D01*
X61892701Y-72224249D01*
X61605000Y-71793674D01*
X61238826Y-71427500D01*
X60808251Y-71139799D01*
X60329822Y-70941627D01*
X59821924Y-70840600D01*
X59304076Y-70840600D01*
X58796178Y-70941627D01*
X58317749Y-71139799D01*
X57887174Y-71427500D01*
X57816763Y-71497911D01*
X57888000Y-71139779D01*
X57888000Y-70719221D01*
X57805953Y-70306744D01*
X57645012Y-69918198D01*
X57411363Y-69568517D01*
X57113983Y-69271137D01*
X56764302Y-69037488D01*
X56375756Y-68876547D01*
X55963279Y-68794500D01*
X55542721Y-68794500D01*
X55130244Y-68876547D01*
X54741698Y-69037488D01*
X54392017Y-69271137D01*
X54094637Y-69568517D01*
X53860988Y-69918198D01*
X53700047Y-70306744D01*
X53618000Y-70719221D01*
X53618000Y-71139779D01*
X53700047Y-71552256D01*
X53860988Y-71940802D01*
X53940499Y-72059799D01*
X53767747Y-72131356D01*
X53520431Y-72296607D01*
X53310107Y-72506931D01*
X53144856Y-72754247D01*
X53031029Y-73029049D01*
X52973000Y-73320778D01*
X43058947Y-73320778D01*
X43058947Y-73285229D01*
X42987048Y-72923766D01*
X42846012Y-72583275D01*
X42641260Y-72276842D01*
X42380659Y-72016241D01*
X42074226Y-71811489D01*
X41733735Y-71670453D01*
X41372272Y-71598554D01*
X41003728Y-71598554D01*
X40642265Y-71670453D01*
X40301774Y-71811489D01*
X39995341Y-72016241D01*
X39734740Y-72276842D01*
X39529988Y-72583275D01*
X39388952Y-72923766D01*
X39317053Y-73285229D01*
X38248001Y-73285229D01*
X38248001Y-66271857D01*
X45497750Y-66271857D01*
X45497750Y-66697143D01*
X45580720Y-67114257D01*
X45743469Y-67507170D01*
X45979746Y-67860782D01*
X46280468Y-68161504D01*
X46634080Y-68397781D01*
X47026993Y-68560530D01*
X47444107Y-68643500D01*
X47869393Y-68643500D01*
X48286507Y-68560530D01*
X48679420Y-68397781D01*
X49006516Y-68179221D01*
X59968000Y-68179221D01*
X59968000Y-68599779D01*
X60050047Y-69012256D01*
X60210988Y-69400802D01*
X60444637Y-69750483D01*
X60742017Y-70047863D01*
X61091698Y-70281512D01*
X61480244Y-70442453D01*
X61892721Y-70524500D01*
X62313279Y-70524500D01*
X62725756Y-70442453D01*
X63114302Y-70281512D01*
X63463983Y-70047863D01*
X63761363Y-69750483D01*
X63995012Y-69400802D01*
X64155953Y-69012256D01*
X64238000Y-68599779D01*
X64238000Y-68179221D01*
X64155953Y-67766744D01*
X63995012Y-67378198D01*
X63761363Y-67028517D01*
X63463983Y-66731137D01*
X63114302Y-66497488D01*
X62725756Y-66336547D01*
X62400539Y-66271857D01*
X69310250Y-66271857D01*
X69310250Y-66697143D01*
X69393220Y-67114257D01*
X69555969Y-67507170D01*
X69792246Y-67860782D01*
X70092968Y-68161504D01*
X70446580Y-68397781D01*
X70839493Y-68560530D01*
X71256607Y-68643500D01*
X71681893Y-68643500D01*
X72099007Y-68560530D01*
X72491920Y-68397781D01*
X72845532Y-68161504D01*
X73146254Y-67860782D01*
X73382531Y-67507170D01*
X73545280Y-67114257D01*
X73628250Y-66697143D01*
X73628250Y-66271858D01*
X85979000Y-66271858D01*
X85979000Y-66697144D01*
X86061970Y-67114258D01*
X86224719Y-67507171D01*
X86460996Y-67860783D01*
X86761718Y-68161505D01*
X87115330Y-68397782D01*
X87508243Y-68560531D01*
X87925357Y-68643501D01*
X88350643Y-68643501D01*
X88767757Y-68560531D01*
X89160670Y-68397782D01*
X89514282Y-68161505D01*
X89815004Y-67860783D01*
X90051281Y-67507171D01*
X90214030Y-67114258D01*
X90297000Y-66697144D01*
X90297000Y-66271857D01*
X93122750Y-66271857D01*
X93122750Y-66697143D01*
X93205720Y-67114257D01*
X93368469Y-67507170D01*
X93604746Y-67860782D01*
X93905468Y-68161504D01*
X94259080Y-68397781D01*
X94651993Y-68560530D01*
X95069107Y-68643500D01*
X95494393Y-68643500D01*
X95911507Y-68560530D01*
X96304420Y-68397781D01*
X96631516Y-68179221D01*
X107593000Y-68179221D01*
X107593000Y-68599779D01*
X107675047Y-69012256D01*
X107835988Y-69400802D01*
X108069637Y-69750483D01*
X108367017Y-70047863D01*
X108716698Y-70281512D01*
X109105244Y-70442453D01*
X109517721Y-70524500D01*
X109938279Y-70524500D01*
X110350756Y-70442453D01*
X110739302Y-70281512D01*
X111088983Y-70047863D01*
X111386363Y-69750483D01*
X111620012Y-69400802D01*
X111780953Y-69012256D01*
X111863000Y-68599779D01*
X111863000Y-68179221D01*
X111780953Y-67766744D01*
X111620012Y-67378198D01*
X111386363Y-67028517D01*
X111088983Y-66731137D01*
X110739302Y-66497488D01*
X110350756Y-66336547D01*
X110025539Y-66271857D01*
X116935250Y-66271857D01*
X116935250Y-66697143D01*
X117018220Y-67114257D01*
X117180969Y-67507170D01*
X117417246Y-67860782D01*
X117717968Y-68161504D01*
X118071580Y-68397781D01*
X118464493Y-68560530D01*
X118881607Y-68643500D01*
X119306893Y-68643500D01*
X119724007Y-68560530D01*
X120116920Y-68397781D01*
X120470532Y-68161504D01*
X120771254Y-67860782D01*
X121007531Y-67507170D01*
X121170280Y-67114257D01*
X121253250Y-66697143D01*
X121253250Y-66271858D01*
X124079000Y-66271858D01*
X124079000Y-66697144D01*
X124161970Y-67114258D01*
X124324719Y-67507171D01*
X124560996Y-67860783D01*
X124861718Y-68161505D01*
X125215330Y-68397782D01*
X125608243Y-68560531D01*
X126025357Y-68643501D01*
X126450643Y-68643501D01*
X126867757Y-68560531D01*
X127260670Y-68397782D01*
X127614282Y-68161505D01*
X127915004Y-67860783D01*
X128151281Y-67507171D01*
X128314030Y-67114258D01*
X128397000Y-66697144D01*
X128397000Y-66271857D01*
X140747750Y-66271857D01*
X140747750Y-66697143D01*
X140830720Y-67114257D01*
X140993469Y-67507170D01*
X141229746Y-67860782D01*
X141530468Y-68161504D01*
X141884080Y-68397781D01*
X142276993Y-68560530D01*
X142694107Y-68643500D01*
X143119393Y-68643500D01*
X143536507Y-68560530D01*
X143929420Y-68397781D01*
X144256516Y-68179221D01*
X155218000Y-68179221D01*
X155218000Y-68599779D01*
X155300047Y-69012256D01*
X155460988Y-69400802D01*
X155694637Y-69750483D01*
X155992017Y-70047863D01*
X156341698Y-70281512D01*
X156730244Y-70442453D01*
X157142721Y-70524500D01*
X157563279Y-70524500D01*
X157975756Y-70442453D01*
X158364302Y-70281512D01*
X158713983Y-70047863D01*
X159011363Y-69750483D01*
X159245012Y-69400802D01*
X159405953Y-69012256D01*
X159488000Y-68599779D01*
X159488000Y-68179221D01*
X159405953Y-67766744D01*
X159245012Y-67378198D01*
X159011363Y-67028517D01*
X158713983Y-66731137D01*
X158364302Y-66497488D01*
X157975756Y-66336547D01*
X157650539Y-66271857D01*
X164560250Y-66271857D01*
X164560250Y-66697143D01*
X164643220Y-67114257D01*
X164805969Y-67507170D01*
X165042246Y-67860782D01*
X165342968Y-68161504D01*
X165696580Y-68397781D01*
X166089493Y-68560530D01*
X166506607Y-68643500D01*
X166931893Y-68643500D01*
X167349007Y-68560530D01*
X167741920Y-68397781D01*
X168095532Y-68161504D01*
X168396254Y-67860782D01*
X168632531Y-67507170D01*
X168795280Y-67114257D01*
X168878250Y-66697143D01*
X168878250Y-66271857D01*
X168795280Y-65854743D01*
X168632531Y-65461830D01*
X168396254Y-65108218D01*
X168095532Y-64807496D01*
X167741920Y-64571219D01*
X167349007Y-64408470D01*
X166931893Y-64325500D01*
X166506607Y-64325500D01*
X166089493Y-64408470D01*
X165696580Y-64571219D01*
X165342968Y-64807496D01*
X165042246Y-65108218D01*
X164805969Y-65461830D01*
X164643220Y-65854743D01*
X164560250Y-66271857D01*
X157650539Y-66271857D01*
X157563279Y-66254500D01*
X157142721Y-66254500D01*
X156730244Y-66336547D01*
X156341698Y-66497488D01*
X155992017Y-66731137D01*
X155694637Y-67028517D01*
X155460988Y-67378198D01*
X155300047Y-67766744D01*
X155218000Y-68179221D01*
X144256516Y-68179221D01*
X144283032Y-68161504D01*
X144583754Y-67860782D01*
X144820031Y-67507170D01*
X144982780Y-67114257D01*
X145065750Y-66697143D01*
X145065750Y-66271857D01*
X144982780Y-65854743D01*
X144820031Y-65461830D01*
X144583754Y-65108218D01*
X144283032Y-64807496D01*
X143929420Y-64571219D01*
X143536507Y-64408470D01*
X143119393Y-64325500D01*
X142694107Y-64325500D01*
X142276993Y-64408470D01*
X141884080Y-64571219D01*
X141530468Y-64807496D01*
X141229746Y-65108218D01*
X140993469Y-65461830D01*
X140830720Y-65854743D01*
X140747750Y-66271857D01*
X128397000Y-66271857D01*
X128314030Y-65854744D01*
X128151281Y-65461831D01*
X127915004Y-65108219D01*
X127614282Y-64807497D01*
X127260670Y-64571220D01*
X126867757Y-64408471D01*
X126450643Y-64325501D01*
X126025357Y-64325501D01*
X125608243Y-64408471D01*
X125215330Y-64571220D01*
X124861718Y-64807497D01*
X124560996Y-65108219D01*
X124324719Y-65461831D01*
X124161970Y-65854744D01*
X124079000Y-66271858D01*
X121253250Y-66271858D01*
X121253250Y-66271857D01*
X121170280Y-65854743D01*
X121007531Y-65461830D01*
X120771254Y-65108218D01*
X120470532Y-64807496D01*
X120116920Y-64571219D01*
X119724007Y-64408470D01*
X119306893Y-64325500D01*
X118881607Y-64325500D01*
X118464493Y-64408470D01*
X118071580Y-64571219D01*
X117717968Y-64807496D01*
X117417246Y-65108218D01*
X117180969Y-65461830D01*
X117018220Y-65854743D01*
X116935250Y-66271857D01*
X110025539Y-66271857D01*
X109938279Y-66254500D01*
X109517721Y-66254500D01*
X109105244Y-66336547D01*
X108716698Y-66497488D01*
X108367017Y-66731137D01*
X108069637Y-67028517D01*
X107835988Y-67378198D01*
X107675047Y-67766744D01*
X107593000Y-68179221D01*
X96631516Y-68179221D01*
X96658032Y-68161504D01*
X96958754Y-67860782D01*
X97195031Y-67507170D01*
X97357780Y-67114257D01*
X97440750Y-66697143D01*
X97440750Y-66271857D01*
X97357780Y-65854743D01*
X97195031Y-65461830D01*
X96958754Y-65108218D01*
X96658032Y-64807496D01*
X96304420Y-64571219D01*
X95911507Y-64408470D01*
X95494393Y-64325500D01*
X95069107Y-64325500D01*
X94651993Y-64408470D01*
X94259080Y-64571219D01*
X93905468Y-64807496D01*
X93604746Y-65108218D01*
X93368469Y-65461830D01*
X93205720Y-65854743D01*
X93122750Y-66271857D01*
X90297000Y-66271857D01*
X90214030Y-65854744D01*
X90051281Y-65461831D01*
X89815004Y-65108219D01*
X89514282Y-64807497D01*
X89160670Y-64571220D01*
X88767757Y-64408471D01*
X88350643Y-64325501D01*
X87925357Y-64325501D01*
X87508243Y-64408471D01*
X87115330Y-64571220D01*
X86761718Y-64807497D01*
X86460996Y-65108219D01*
X86224719Y-65461831D01*
X86061970Y-65854744D01*
X85979000Y-66271858D01*
X73628250Y-66271858D01*
X73628250Y-66271857D01*
X73545280Y-65854743D01*
X73382531Y-65461830D01*
X73146254Y-65108218D01*
X72845532Y-64807496D01*
X72491920Y-64571219D01*
X72099007Y-64408470D01*
X71681893Y-64325500D01*
X71256607Y-64325500D01*
X70839493Y-64408470D01*
X70446580Y-64571219D01*
X70092968Y-64807496D01*
X69792246Y-65108218D01*
X69555969Y-65461830D01*
X69393220Y-65854743D01*
X69310250Y-66271857D01*
X62400539Y-66271857D01*
X62313279Y-66254500D01*
X61892721Y-66254500D01*
X61480244Y-66336547D01*
X61091698Y-66497488D01*
X60742017Y-66731137D01*
X60444637Y-67028517D01*
X60210988Y-67378198D01*
X60050047Y-67766744D01*
X59968000Y-68179221D01*
X49006516Y-68179221D01*
X49033032Y-68161504D01*
X49333754Y-67860782D01*
X49570031Y-67507170D01*
X49732780Y-67114257D01*
X49815750Y-66697143D01*
X49815750Y-66271857D01*
X49732780Y-65854743D01*
X49570031Y-65461830D01*
X49333754Y-65108218D01*
X49033032Y-64807496D01*
X48679420Y-64571219D01*
X48286507Y-64408470D01*
X47869393Y-64325500D01*
X47444107Y-64325500D01*
X47026993Y-64408470D01*
X46634080Y-64571219D01*
X46280468Y-64807496D01*
X45979746Y-65108218D01*
X45743469Y-65461830D01*
X45580720Y-65854743D01*
X45497750Y-66271857D01*
X38248001Y-66271857D01*
X38248001Y-61285229D01*
X105317053Y-61285229D01*
X105317053Y-61653773D01*
X105388952Y-62015236D01*
X105529988Y-62355727D01*
X105734740Y-62662160D01*
X105995341Y-62922761D01*
X106301774Y-63127513D01*
X106642265Y-63268549D01*
X107003728Y-63340448D01*
X107372272Y-63340448D01*
X107733735Y-63268549D01*
X108074226Y-63127513D01*
X108380659Y-62922761D01*
X108641260Y-62662160D01*
X108846012Y-62355727D01*
X108987048Y-62015236D01*
X109058947Y-61653773D01*
X109058947Y-61285229D01*
X108987048Y-60923766D01*
X108846012Y-60583275D01*
X108641260Y-60276842D01*
X108380659Y-60016241D01*
X108074226Y-59811489D01*
X107733735Y-59670453D01*
X107372272Y-59598554D01*
X107003728Y-59598554D01*
X106642265Y-59670453D01*
X106301774Y-59811489D01*
X105995341Y-60016241D01*
X105734740Y-60276842D01*
X105529988Y-60583275D01*
X105388952Y-60923766D01*
X105317053Y-61285229D01*
X38248001Y-61285229D01*
X38248001Y-57653076D01*
X45027850Y-57653076D01*
X45027850Y-58170924D01*
X45128877Y-58678822D01*
X45327049Y-59157251D01*
X45614750Y-59587826D01*
X45980924Y-59954000D01*
X46411499Y-60241701D01*
X46889928Y-60439873D01*
X47397826Y-60540900D01*
X47915674Y-60540900D01*
X48423572Y-60439873D01*
X48902001Y-60241701D01*
X49332576Y-59954000D01*
X49698750Y-59587826D01*
X49986451Y-59157251D01*
X50184623Y-58678822D01*
X50285650Y-58170924D01*
X50285650Y-57653076D01*
X68840350Y-57653076D01*
X68840350Y-58170924D01*
X68941377Y-58678822D01*
X69139549Y-59157251D01*
X69427250Y-59587826D01*
X69793424Y-59954000D01*
X70223999Y-60241701D01*
X70702428Y-60439873D01*
X71210326Y-60540900D01*
X71728174Y-60540900D01*
X72236072Y-60439873D01*
X72714501Y-60241701D01*
X73145076Y-59954000D01*
X73511250Y-59587826D01*
X73798951Y-59157251D01*
X73997123Y-58678822D01*
X74098150Y-58170924D01*
X74098150Y-57653076D01*
X85509100Y-57653076D01*
X85509100Y-58170924D01*
X85610127Y-58678822D01*
X85808299Y-59157251D01*
X86096000Y-59587826D01*
X86462174Y-59954000D01*
X86892749Y-60241701D01*
X87371178Y-60439873D01*
X87879076Y-60540900D01*
X88396924Y-60540900D01*
X88904822Y-60439873D01*
X89383251Y-60241701D01*
X89813826Y-59954000D01*
X90180000Y-59587826D01*
X90467701Y-59157251D01*
X90665873Y-58678822D01*
X90766900Y-58170924D01*
X90766900Y-57653076D01*
X92652850Y-57653076D01*
X92652850Y-58170924D01*
X92753877Y-58678822D01*
X92952049Y-59157251D01*
X93239750Y-59587826D01*
X93605924Y-59954000D01*
X94036499Y-60241701D01*
X94514928Y-60439873D01*
X95022826Y-60540900D01*
X95540674Y-60540900D01*
X96048572Y-60439873D01*
X96527001Y-60241701D01*
X96957576Y-59954000D01*
X97323750Y-59587826D01*
X97611451Y-59157251D01*
X97809623Y-58678822D01*
X97910650Y-58170924D01*
X97910650Y-57653076D01*
X116465350Y-57653076D01*
X116465350Y-58170924D01*
X116566377Y-58678822D01*
X116764549Y-59157251D01*
X117052250Y-59587826D01*
X117418424Y-59954000D01*
X117848999Y-60241701D01*
X118327428Y-60439873D01*
X118835326Y-60540900D01*
X119353174Y-60540900D01*
X119861072Y-60439873D01*
X120339501Y-60241701D01*
X120770076Y-59954000D01*
X121136250Y-59587826D01*
X121423951Y-59157251D01*
X121622123Y-58678822D01*
X121723150Y-58170924D01*
X121723150Y-57653076D01*
X123609100Y-57653076D01*
X123609100Y-58170924D01*
X123710127Y-58678822D01*
X123908299Y-59157251D01*
X124196000Y-59587826D01*
X124562174Y-59954000D01*
X124992749Y-60241701D01*
X125471178Y-60439873D01*
X125979076Y-60540900D01*
X126496924Y-60540900D01*
X127004822Y-60439873D01*
X127483251Y-60241701D01*
X127913826Y-59954000D01*
X128280000Y-59587826D01*
X128567701Y-59157251D01*
X128765873Y-58678822D01*
X128866900Y-58170924D01*
X128866900Y-57653076D01*
X140277850Y-57653076D01*
X140277850Y-58170924D01*
X140378877Y-58678822D01*
X140577049Y-59157251D01*
X140864750Y-59587826D01*
X141230924Y-59954000D01*
X141661499Y-60241701D01*
X142139928Y-60439873D01*
X142647826Y-60540900D01*
X143165674Y-60540900D01*
X143673572Y-60439873D01*
X144152001Y-60241701D01*
X144582576Y-59954000D01*
X144948750Y-59587826D01*
X145236451Y-59157251D01*
X145434623Y-58678822D01*
X145535650Y-58170924D01*
X145535650Y-57653076D01*
X164090350Y-57653076D01*
X164090350Y-58170924D01*
X164191377Y-58678822D01*
X164389549Y-59157251D01*
X164677250Y-59587826D01*
X165043424Y-59954000D01*
X165473999Y-60241701D01*
X165952428Y-60439873D01*
X166460326Y-60540900D01*
X166978174Y-60540900D01*
X167486072Y-60439873D01*
X167964501Y-60241701D01*
X168395076Y-59954000D01*
X168761250Y-59587826D01*
X169048951Y-59157251D01*
X169247123Y-58678822D01*
X169348150Y-58170924D01*
X169348150Y-57653076D01*
X169247123Y-57145178D01*
X169048951Y-56666749D01*
X168761250Y-56236174D01*
X168395076Y-55870000D01*
X167964501Y-55582299D01*
X167486072Y-55384127D01*
X166978174Y-55283100D01*
X166460326Y-55283100D01*
X165952428Y-55384127D01*
X165473999Y-55582299D01*
X165043424Y-55870000D01*
X164677250Y-56236174D01*
X164389549Y-56666749D01*
X164191377Y-57145178D01*
X164090350Y-57653076D01*
X145535650Y-57653076D01*
X145434623Y-57145178D01*
X145236451Y-56666749D01*
X144948750Y-56236174D01*
X144582576Y-55870000D01*
X144152001Y-55582299D01*
X143673572Y-55384127D01*
X143165674Y-55283100D01*
X142647826Y-55283100D01*
X142139928Y-55384127D01*
X141661499Y-55582299D01*
X141230924Y-55870000D01*
X140864750Y-56236174D01*
X140577049Y-56666749D01*
X140378877Y-57145178D01*
X140277850Y-57653076D01*
X128866900Y-57653076D01*
X128765873Y-57145178D01*
X128567701Y-56666749D01*
X128280000Y-56236174D01*
X127913826Y-55870000D01*
X127483251Y-55582299D01*
X127004822Y-55384127D01*
X126496924Y-55283100D01*
X125979076Y-55283100D01*
X125471178Y-55384127D01*
X124992749Y-55582299D01*
X124562174Y-55870000D01*
X124196000Y-56236174D01*
X123908299Y-56666749D01*
X123710127Y-57145178D01*
X123609100Y-57653076D01*
X121723150Y-57653076D01*
X121622123Y-57145178D01*
X121423951Y-56666749D01*
X121136250Y-56236174D01*
X120770076Y-55870000D01*
X120339501Y-55582299D01*
X119861072Y-55384127D01*
X119353174Y-55283100D01*
X118835326Y-55283100D01*
X118327428Y-55384127D01*
X117848999Y-55582299D01*
X117418424Y-55870000D01*
X117052250Y-56236174D01*
X116764549Y-56666749D01*
X116566377Y-57145178D01*
X116465350Y-57653076D01*
X97910650Y-57653076D01*
X97809623Y-57145178D01*
X97611451Y-56666749D01*
X97323750Y-56236174D01*
X96957576Y-55870000D01*
X96527001Y-55582299D01*
X96048572Y-55384127D01*
X95540674Y-55283100D01*
X95022826Y-55283100D01*
X94514928Y-55384127D01*
X94036499Y-55582299D01*
X93605924Y-55870000D01*
X93239750Y-56236174D01*
X92952049Y-56666749D01*
X92753877Y-57145178D01*
X92652850Y-57653076D01*
X90766900Y-57653076D01*
X90665873Y-57145178D01*
X90467701Y-56666749D01*
X90180000Y-56236174D01*
X89813826Y-55870000D01*
X89383251Y-55582299D01*
X88904822Y-55384127D01*
X88396924Y-55283100D01*
X87879076Y-55283100D01*
X87371178Y-55384127D01*
X86892749Y-55582299D01*
X86462174Y-55870000D01*
X86096000Y-56236174D01*
X85808299Y-56666749D01*
X85610127Y-57145178D01*
X85509100Y-57653076D01*
X74098150Y-57653076D01*
X73997123Y-57145178D01*
X73798951Y-56666749D01*
X73511250Y-56236174D01*
X73145076Y-55870000D01*
X72714501Y-55582299D01*
X72236072Y-55384127D01*
X71728174Y-55283100D01*
X71210326Y-55283100D01*
X70702428Y-55384127D01*
X70223999Y-55582299D01*
X69793424Y-55870000D01*
X69427250Y-56236174D01*
X69139549Y-56666749D01*
X68941377Y-57145178D01*
X68840350Y-57653076D01*
X50285650Y-57653076D01*
X50184623Y-57145178D01*
X49986451Y-56666749D01*
X49698750Y-56236174D01*
X49332576Y-55870000D01*
X48902001Y-55582299D01*
X48423572Y-55384127D01*
X47915674Y-55283100D01*
X47397826Y-55283100D01*
X46889928Y-55384127D01*
X46411499Y-55582299D01*
X45980924Y-55870000D01*
X45614750Y-56236174D01*
X45327049Y-56666749D01*
X45128877Y-57145178D01*
X45027850Y-57653076D01*
X38248001Y-57653076D01*
X38248001Y-49508278D01*
X52973000Y-49508278D01*
X52973000Y-49805722D01*
X53031029Y-50097451D01*
X53144856Y-50372253D01*
X53310107Y-50619569D01*
X53520431Y-50829893D01*
X53767747Y-50995144D01*
X54042549Y-51108971D01*
X54334278Y-51167000D01*
X54631722Y-51167000D01*
X54923451Y-51108971D01*
X55198253Y-50995144D01*
X55445569Y-50829893D01*
X55655893Y-50619569D01*
X55821144Y-50372253D01*
X55934971Y-50097451D01*
X55993000Y-49805722D01*
X55993000Y-49508278D01*
X55942023Y-49252000D01*
X55963279Y-49252000D01*
X56375756Y-49169953D01*
X56764302Y-49009012D01*
X57070708Y-48804279D01*
X57035127Y-48890178D01*
X56934100Y-49398076D01*
X56934100Y-49915924D01*
X57035127Y-50423822D01*
X57233299Y-50902251D01*
X57521000Y-51332826D01*
X57887174Y-51699000D01*
X58317749Y-51986701D01*
X58796178Y-52184873D01*
X59304076Y-52285900D01*
X59821924Y-52285900D01*
X60329822Y-52184873D01*
X60808251Y-51986701D01*
X61238826Y-51699000D01*
X61605000Y-51332826D01*
X61892701Y-50902251D01*
X62090873Y-50423822D01*
X62191900Y-49915924D01*
X62191900Y-49508278D01*
X63133000Y-49508278D01*
X63133000Y-49805722D01*
X63191029Y-50097451D01*
X63304856Y-50372253D01*
X63470107Y-50619569D01*
X63680431Y-50829893D01*
X63927747Y-50995144D01*
X64202549Y-51108971D01*
X64494278Y-51167000D01*
X64791722Y-51167000D01*
X65083451Y-51108971D01*
X65358253Y-50995144D01*
X65605569Y-50829893D01*
X65815893Y-50619569D01*
X65981144Y-50372253D01*
X66094971Y-50097451D01*
X66153000Y-49805722D01*
X66153000Y-49508278D01*
X100598000Y-49508278D01*
X100598000Y-49805722D01*
X100656029Y-50097451D01*
X100769856Y-50372253D01*
X100935107Y-50619569D01*
X101145431Y-50829893D01*
X101392747Y-50995144D01*
X101667549Y-51108971D01*
X101959278Y-51167000D01*
X102256722Y-51167000D01*
X102548451Y-51108971D01*
X102823253Y-50995144D01*
X103070569Y-50829893D01*
X103280893Y-50619569D01*
X103446144Y-50372253D01*
X103559971Y-50097451D01*
X103618000Y-49805722D01*
X103618000Y-49508278D01*
X103567023Y-49252000D01*
X103588279Y-49252000D01*
X104000756Y-49169953D01*
X104389302Y-49009012D01*
X104695708Y-48804279D01*
X104660127Y-48890178D01*
X104559100Y-49398076D01*
X104559100Y-49915924D01*
X104660127Y-50423822D01*
X104858299Y-50902251D01*
X105146000Y-51332826D01*
X105512174Y-51699000D01*
X105942749Y-51986701D01*
X106421178Y-52184873D01*
X106929076Y-52285900D01*
X107446924Y-52285900D01*
X107954822Y-52184873D01*
X108433251Y-51986701D01*
X108863826Y-51699000D01*
X109230000Y-51332826D01*
X109517701Y-50902251D01*
X109715873Y-50423822D01*
X109816900Y-49915924D01*
X109816900Y-49508278D01*
X110758000Y-49508278D01*
X110758000Y-49805722D01*
X110816029Y-50097451D01*
X110929856Y-50372253D01*
X111095107Y-50619569D01*
X111305431Y-50829893D01*
X111552747Y-50995144D01*
X111827549Y-51108971D01*
X112119278Y-51167000D01*
X112416722Y-51167000D01*
X112708451Y-51108971D01*
X112983253Y-50995144D01*
X113230569Y-50829893D01*
X113440893Y-50619569D01*
X113606144Y-50372253D01*
X113719971Y-50097451D01*
X113778000Y-49805722D01*
X113778000Y-49508278D01*
X148223000Y-49508278D01*
X148223000Y-49805722D01*
X148281029Y-50097451D01*
X148394856Y-50372253D01*
X148560107Y-50619569D01*
X148770431Y-50829893D01*
X149017747Y-50995144D01*
X149292549Y-51108971D01*
X149584278Y-51167000D01*
X149881722Y-51167000D01*
X150173451Y-51108971D01*
X150448253Y-50995144D01*
X150695569Y-50829893D01*
X150905893Y-50619569D01*
X151071144Y-50372253D01*
X151184971Y-50097451D01*
X151243000Y-49805722D01*
X151243000Y-49508278D01*
X151192023Y-49252000D01*
X151213279Y-49252000D01*
X151625756Y-49169953D01*
X152014302Y-49009012D01*
X152320708Y-48804279D01*
X152285127Y-48890178D01*
X152184100Y-49398076D01*
X152184100Y-49915924D01*
X152285127Y-50423822D01*
X152483299Y-50902251D01*
X152771000Y-51332826D01*
X153137174Y-51699000D01*
X153567749Y-51986701D01*
X154046178Y-52184873D01*
X154554076Y-52285900D01*
X155071924Y-52285900D01*
X155579822Y-52184873D01*
X156058251Y-51986701D01*
X156488826Y-51699000D01*
X156855000Y-51332826D01*
X157142701Y-50902251D01*
X157340873Y-50423822D01*
X157441900Y-49915924D01*
X157441900Y-49508278D01*
X158383000Y-49508278D01*
X158383000Y-49805722D01*
X158441029Y-50097451D01*
X158554856Y-50372253D01*
X158720107Y-50619569D01*
X158930431Y-50829893D01*
X159177747Y-50995144D01*
X159452549Y-51108971D01*
X159744278Y-51167000D01*
X160041722Y-51167000D01*
X160333451Y-51108971D01*
X160608253Y-50995144D01*
X160855569Y-50829893D01*
X161065893Y-50619569D01*
X161231144Y-50372253D01*
X161344971Y-50097451D01*
X161403000Y-49805722D01*
X161403000Y-49508278D01*
X161344971Y-49216549D01*
X161231144Y-48941747D01*
X161065893Y-48694431D01*
X160855569Y-48484107D01*
X160608253Y-48318856D01*
X160333451Y-48205029D01*
X160041722Y-48147000D01*
X159744278Y-48147000D01*
X159452549Y-48205029D01*
X159177747Y-48318856D01*
X158930431Y-48484107D01*
X158720107Y-48694431D01*
X158554856Y-48941747D01*
X158441029Y-49216549D01*
X158383000Y-49508278D01*
X157441900Y-49508278D01*
X157441900Y-49398076D01*
X157340873Y-48890178D01*
X157142701Y-48411749D01*
X156855000Y-47981174D01*
X156488826Y-47615000D01*
X156058251Y-47327299D01*
X155579822Y-47129127D01*
X155071924Y-47028100D01*
X154554076Y-47028100D01*
X154046178Y-47129127D01*
X153567749Y-47327299D01*
X153137174Y-47615000D01*
X153066763Y-47685411D01*
X153138000Y-47327279D01*
X153138000Y-46906721D01*
X153055953Y-46494244D01*
X152895012Y-46105698D01*
X152661363Y-45756017D01*
X152363983Y-45458637D01*
X152014302Y-45224988D01*
X151625756Y-45064047D01*
X151213279Y-44982000D01*
X150792721Y-44982000D01*
X150380244Y-45064047D01*
X149991698Y-45224988D01*
X149642017Y-45458637D01*
X149344637Y-45756017D01*
X149110988Y-46105698D01*
X148950047Y-46494244D01*
X148868000Y-46906721D01*
X148868000Y-47327279D01*
X148950047Y-47739756D01*
X149110988Y-48128302D01*
X149190499Y-48247299D01*
X149017747Y-48318856D01*
X148770431Y-48484107D01*
X148560107Y-48694431D01*
X148394856Y-48941747D01*
X148281029Y-49216549D01*
X148223000Y-49508278D01*
X113778000Y-49508278D01*
X113719971Y-49216549D01*
X113606144Y-48941747D01*
X113440893Y-48694431D01*
X113230569Y-48484107D01*
X112983253Y-48318856D01*
X112708451Y-48205029D01*
X112416722Y-48147000D01*
X112119278Y-48147000D01*
X111827549Y-48205029D01*
X111552747Y-48318856D01*
X111305431Y-48484107D01*
X111095107Y-48694431D01*
X110929856Y-48941747D01*
X110816029Y-49216549D01*
X110758000Y-49508278D01*
X109816900Y-49508278D01*
X109816900Y-49398076D01*
X109715873Y-48890178D01*
X109517701Y-48411749D01*
X109230000Y-47981174D01*
X108863826Y-47615000D01*
X108433251Y-47327299D01*
X107954822Y-47129127D01*
X107446924Y-47028100D01*
X106929076Y-47028100D01*
X106421178Y-47129127D01*
X105942749Y-47327299D01*
X105512174Y-47615000D01*
X105441763Y-47685411D01*
X105513000Y-47327279D01*
X105513000Y-46906721D01*
X105430953Y-46494244D01*
X105270012Y-46105698D01*
X105036363Y-45756017D01*
X104738983Y-45458637D01*
X104389302Y-45224988D01*
X104000756Y-45064047D01*
X103588279Y-44982000D01*
X103167721Y-44982000D01*
X102755244Y-45064047D01*
X102366698Y-45224988D01*
X102017017Y-45458637D01*
X101719637Y-45756017D01*
X101485988Y-46105698D01*
X101325047Y-46494244D01*
X101243000Y-46906721D01*
X101243000Y-47327279D01*
X101325047Y-47739756D01*
X101485988Y-48128302D01*
X101565499Y-48247299D01*
X101392747Y-48318856D01*
X101145431Y-48484107D01*
X100935107Y-48694431D01*
X100769856Y-48941747D01*
X100656029Y-49216549D01*
X100598000Y-49508278D01*
X66153000Y-49508278D01*
X66094971Y-49216549D01*
X65981144Y-48941747D01*
X65815893Y-48694431D01*
X65605569Y-48484107D01*
X65358253Y-48318856D01*
X65083451Y-48205029D01*
X64791722Y-48147000D01*
X64494278Y-48147000D01*
X64202549Y-48205029D01*
X63927747Y-48318856D01*
X63680431Y-48484107D01*
X63470107Y-48694431D01*
X63304856Y-48941747D01*
X63191029Y-49216549D01*
X63133000Y-49508278D01*
X62191900Y-49508278D01*
X62191900Y-49398076D01*
X62090873Y-48890178D01*
X61892701Y-48411749D01*
X61605000Y-47981174D01*
X61238826Y-47615000D01*
X60808251Y-47327299D01*
X60329822Y-47129127D01*
X59821924Y-47028100D01*
X59304076Y-47028100D01*
X58796178Y-47129127D01*
X58317749Y-47327299D01*
X57887174Y-47615000D01*
X57816763Y-47685411D01*
X57888000Y-47327279D01*
X57888000Y-46906721D01*
X57805953Y-46494244D01*
X57645012Y-46105698D01*
X57411363Y-45756017D01*
X57113983Y-45458637D01*
X56764302Y-45224988D01*
X56375756Y-45064047D01*
X55963279Y-44982000D01*
X55542721Y-44982000D01*
X55130244Y-45064047D01*
X54741698Y-45224988D01*
X54392017Y-45458637D01*
X54094637Y-45756017D01*
X53860988Y-46105698D01*
X53700047Y-46494244D01*
X53618000Y-46906721D01*
X53618000Y-47327279D01*
X53700047Y-47739756D01*
X53860988Y-48128302D01*
X53940499Y-48247299D01*
X53767747Y-48318856D01*
X53520431Y-48484107D01*
X53310107Y-48694431D01*
X53144856Y-48941747D01*
X53031029Y-49216549D01*
X52973000Y-49508278D01*
X38248001Y-49508278D01*
X38248000Y-40869315D01*
X38845905Y-40869315D01*
X38845905Y-41394687D01*
X38948400Y-41909964D01*
X39149451Y-42395344D01*
X39441332Y-42832175D01*
X39812826Y-43203669D01*
X40249657Y-43495550D01*
X40735037Y-43696601D01*
X41250314Y-43799096D01*
X41775686Y-43799096D01*
X42290963Y-43696601D01*
X42776343Y-43495550D01*
X43213174Y-43203669D01*
X43584668Y-42832175D01*
X43833776Y-42459357D01*
X45497750Y-42459357D01*
X45497750Y-42884643D01*
X45580720Y-43301757D01*
X45743469Y-43694670D01*
X45979746Y-44048282D01*
X46280468Y-44349004D01*
X46634080Y-44585281D01*
X47026993Y-44748030D01*
X47444107Y-44831000D01*
X47869393Y-44831000D01*
X48286507Y-44748030D01*
X48679420Y-44585281D01*
X49006516Y-44366721D01*
X59968000Y-44366721D01*
X59968000Y-44787279D01*
X60050047Y-45199756D01*
X60210988Y-45588302D01*
X60444637Y-45937983D01*
X60742017Y-46235363D01*
X61091698Y-46469012D01*
X61480244Y-46629953D01*
X61892721Y-46712000D01*
X62313279Y-46712000D01*
X62725756Y-46629953D01*
X63114302Y-46469012D01*
X63463983Y-46235363D01*
X63761363Y-45937983D01*
X63995012Y-45588302D01*
X64155953Y-45199756D01*
X64238000Y-44787279D01*
X64238000Y-44366721D01*
X64155953Y-43954244D01*
X63995012Y-43565698D01*
X63761363Y-43216017D01*
X63463983Y-42918637D01*
X63114302Y-42684988D01*
X62725756Y-42524047D01*
X62400539Y-42459357D01*
X69310250Y-42459357D01*
X69310250Y-42884643D01*
X69393220Y-43301757D01*
X69555969Y-43694670D01*
X69792246Y-44048282D01*
X70092968Y-44349004D01*
X70446580Y-44585281D01*
X70839493Y-44748030D01*
X71256607Y-44831000D01*
X71681893Y-44831000D01*
X72099007Y-44748030D01*
X72491920Y-44585281D01*
X72845532Y-44349004D01*
X73146254Y-44048282D01*
X73382531Y-43694670D01*
X73545280Y-43301757D01*
X73628250Y-42884643D01*
X73628250Y-42459357D01*
X85979000Y-42459357D01*
X85979000Y-42884643D01*
X86061970Y-43301757D01*
X86224719Y-43694670D01*
X86460996Y-44048282D01*
X86761718Y-44349004D01*
X87115330Y-44585281D01*
X87508243Y-44748030D01*
X87925357Y-44831000D01*
X88350643Y-44831000D01*
X88767757Y-44748030D01*
X89160670Y-44585281D01*
X89514282Y-44349004D01*
X89815004Y-44048282D01*
X90051281Y-43694670D01*
X90214030Y-43301757D01*
X90297000Y-42884643D01*
X90297000Y-42459357D01*
X93122750Y-42459357D01*
X93122750Y-42884643D01*
X93205720Y-43301757D01*
X93368469Y-43694670D01*
X93604746Y-44048282D01*
X93905468Y-44349004D01*
X94259080Y-44585281D01*
X94651993Y-44748030D01*
X95069107Y-44831000D01*
X95494393Y-44831000D01*
X95911507Y-44748030D01*
X96304420Y-44585281D01*
X96631516Y-44366721D01*
X107593000Y-44366721D01*
X107593000Y-44787279D01*
X107675047Y-45199756D01*
X107835988Y-45588302D01*
X108069637Y-45937983D01*
X108367017Y-46235363D01*
X108716698Y-46469012D01*
X109105244Y-46629953D01*
X109517721Y-46712000D01*
X109938279Y-46712000D01*
X110350756Y-46629953D01*
X110739302Y-46469012D01*
X111088983Y-46235363D01*
X111386363Y-45937983D01*
X111620012Y-45588302D01*
X111780953Y-45199756D01*
X111863000Y-44787279D01*
X111863000Y-44366721D01*
X111780953Y-43954244D01*
X111620012Y-43565698D01*
X111386363Y-43216017D01*
X111088983Y-42918637D01*
X110739302Y-42684988D01*
X110350756Y-42524047D01*
X110025539Y-42459357D01*
X116935250Y-42459357D01*
X116935250Y-42884643D01*
X117018220Y-43301757D01*
X117180969Y-43694670D01*
X117417246Y-44048282D01*
X117717968Y-44349004D01*
X118071580Y-44585281D01*
X118464493Y-44748030D01*
X118881607Y-44831000D01*
X119306893Y-44831000D01*
X119724007Y-44748030D01*
X120116920Y-44585281D01*
X120470532Y-44349004D01*
X120771254Y-44048282D01*
X121007531Y-43694670D01*
X121170280Y-43301757D01*
X121253250Y-42884643D01*
X121253250Y-42459357D01*
X124079000Y-42459357D01*
X124079000Y-42884643D01*
X124161970Y-43301757D01*
X124324719Y-43694670D01*
X124560996Y-44048282D01*
X124861718Y-44349004D01*
X125215330Y-44585281D01*
X125608243Y-44748030D01*
X126025357Y-44831000D01*
X126450643Y-44831000D01*
X126867757Y-44748030D01*
X127260670Y-44585281D01*
X127614282Y-44349004D01*
X127915004Y-44048282D01*
X128151281Y-43694670D01*
X128314030Y-43301757D01*
X128397000Y-42884643D01*
X128397000Y-42459357D01*
X140747750Y-42459357D01*
X140747750Y-42884643D01*
X140830720Y-43301757D01*
X140993469Y-43694670D01*
X141229746Y-44048282D01*
X141530468Y-44349004D01*
X141884080Y-44585281D01*
X142276993Y-44748030D01*
X142694107Y-44831000D01*
X143119393Y-44831000D01*
X143536507Y-44748030D01*
X143929420Y-44585281D01*
X144256516Y-44366721D01*
X155218000Y-44366721D01*
X155218000Y-44787279D01*
X155300047Y-45199756D01*
X155460988Y-45588302D01*
X155694637Y-45937983D01*
X155992017Y-46235363D01*
X156341698Y-46469012D01*
X156730244Y-46629953D01*
X157142721Y-46712000D01*
X157563279Y-46712000D01*
X157975756Y-46629953D01*
X158364302Y-46469012D01*
X158713983Y-46235363D01*
X159011363Y-45937983D01*
X159245012Y-45588302D01*
X159405953Y-45199756D01*
X159488000Y-44787279D01*
X159488000Y-44366721D01*
X159405953Y-43954244D01*
X159245012Y-43565698D01*
X159011363Y-43216017D01*
X158713983Y-42918637D01*
X158364302Y-42684988D01*
X157975756Y-42524047D01*
X157650539Y-42459357D01*
X164560250Y-42459357D01*
X164560250Y-42884643D01*
X164643220Y-43301757D01*
X164805969Y-43694670D01*
X165042246Y-44048282D01*
X165342968Y-44349004D01*
X165696580Y-44585281D01*
X166089493Y-44748030D01*
X166506607Y-44831000D01*
X166931893Y-44831000D01*
X167349007Y-44748030D01*
X167741920Y-44585281D01*
X168095532Y-44349004D01*
X168396254Y-44048282D01*
X168632531Y-43694670D01*
X168795280Y-43301757D01*
X168878250Y-42884643D01*
X168878250Y-42459357D01*
X168795280Y-42042243D01*
X168632531Y-41649330D01*
X168396254Y-41295718D01*
X168095532Y-40994996D01*
X167907438Y-40869315D01*
X170195905Y-40869315D01*
X170195905Y-41394687D01*
X170298400Y-41909964D01*
X170499451Y-42395344D01*
X170791332Y-42832175D01*
X171162826Y-43203669D01*
X171599657Y-43495550D01*
X172085037Y-43696601D01*
X172600314Y-43799096D01*
X173125686Y-43799096D01*
X173640963Y-43696601D01*
X174126343Y-43495550D01*
X174563174Y-43203669D01*
X174934668Y-42832175D01*
X175226549Y-42395344D01*
X175427600Y-41909964D01*
X175530095Y-41394687D01*
X175530095Y-40869315D01*
X175427600Y-40354038D01*
X175226549Y-39868658D01*
X174934668Y-39431827D01*
X174563174Y-39060333D01*
X174126343Y-38768452D01*
X173640963Y-38567401D01*
X173125686Y-38464906D01*
X172600314Y-38464906D01*
X172085037Y-38567401D01*
X171599657Y-38768452D01*
X171162826Y-39060333D01*
X170791332Y-39431827D01*
X170499451Y-39868658D01*
X170298400Y-40354038D01*
X170195905Y-40869315D01*
X167907438Y-40869315D01*
X167741920Y-40758719D01*
X167349007Y-40595970D01*
X166931893Y-40513000D01*
X166506607Y-40513000D01*
X166089493Y-40595970D01*
X165696580Y-40758719D01*
X165342968Y-40994996D01*
X165042246Y-41295718D01*
X164805969Y-41649330D01*
X164643220Y-42042243D01*
X164560250Y-42459357D01*
X157650539Y-42459357D01*
X157563279Y-42442000D01*
X157142721Y-42442000D01*
X156730244Y-42524047D01*
X156341698Y-42684988D01*
X155992017Y-42918637D01*
X155694637Y-43216017D01*
X155460988Y-43565698D01*
X155300047Y-43954244D01*
X155218000Y-44366721D01*
X144256516Y-44366721D01*
X144283032Y-44349004D01*
X144583754Y-44048282D01*
X144820031Y-43694670D01*
X144982780Y-43301757D01*
X145065750Y-42884643D01*
X145065750Y-42459357D01*
X144982780Y-42042243D01*
X144820031Y-41649330D01*
X144583754Y-41295718D01*
X144283032Y-40994996D01*
X143929420Y-40758719D01*
X143536507Y-40595970D01*
X143119393Y-40513000D01*
X142694107Y-40513000D01*
X142276993Y-40595970D01*
X141884080Y-40758719D01*
X141530468Y-40994996D01*
X141229746Y-41295718D01*
X140993469Y-41649330D01*
X140830720Y-42042243D01*
X140747750Y-42459357D01*
X128397000Y-42459357D01*
X128314030Y-42042243D01*
X128151281Y-41649330D01*
X127915004Y-41295718D01*
X127614282Y-40994996D01*
X127260670Y-40758719D01*
X126867757Y-40595970D01*
X126450643Y-40513000D01*
X126025357Y-40513000D01*
X125608243Y-40595970D01*
X125215330Y-40758719D01*
X124861718Y-40994996D01*
X124560996Y-41295718D01*
X124324719Y-41649330D01*
X124161970Y-42042243D01*
X124079000Y-42459357D01*
X121253250Y-42459357D01*
X121170280Y-42042243D01*
X121007531Y-41649330D01*
X120771254Y-41295718D01*
X120470532Y-40994996D01*
X120116920Y-40758719D01*
X119724007Y-40595970D01*
X119306893Y-40513000D01*
X118881607Y-40513000D01*
X118464493Y-40595970D01*
X118071580Y-40758719D01*
X117717968Y-40994996D01*
X117417246Y-41295718D01*
X117180969Y-41649330D01*
X117018220Y-42042243D01*
X116935250Y-42459357D01*
X110025539Y-42459357D01*
X109938279Y-42442000D01*
X109517721Y-42442000D01*
X109105244Y-42524047D01*
X108716698Y-42684988D01*
X108367017Y-42918637D01*
X108069637Y-43216017D01*
X107835988Y-43565698D01*
X107675047Y-43954244D01*
X107593000Y-44366721D01*
X96631516Y-44366721D01*
X96658032Y-44349004D01*
X96958754Y-44048282D01*
X97195031Y-43694670D01*
X97357780Y-43301757D01*
X97440750Y-42884643D01*
X97440750Y-42459357D01*
X97357780Y-42042243D01*
X97195031Y-41649330D01*
X96958754Y-41295718D01*
X96658032Y-40994996D01*
X96304420Y-40758719D01*
X95911507Y-40595970D01*
X95494393Y-40513000D01*
X95069107Y-40513000D01*
X94651993Y-40595970D01*
X94259080Y-40758719D01*
X93905468Y-40994996D01*
X93604746Y-41295718D01*
X93368469Y-41649330D01*
X93205720Y-42042243D01*
X93122750Y-42459357D01*
X90297000Y-42459357D01*
X90214030Y-42042243D01*
X90051281Y-41649330D01*
X89815004Y-41295718D01*
X89514282Y-40994996D01*
X89160670Y-40758719D01*
X88767757Y-40595970D01*
X88350643Y-40513000D01*
X87925357Y-40513000D01*
X87508243Y-40595970D01*
X87115330Y-40758719D01*
X86761718Y-40994996D01*
X86460996Y-41295718D01*
X86224719Y-41649330D01*
X86061970Y-42042243D01*
X85979000Y-42459357D01*
X73628250Y-42459357D01*
X73545280Y-42042243D01*
X73382531Y-41649330D01*
X73146254Y-41295718D01*
X72845532Y-40994996D01*
X72491920Y-40758719D01*
X72099007Y-40595970D01*
X71681893Y-40513000D01*
X71256607Y-40513000D01*
X70839493Y-40595970D01*
X70446580Y-40758719D01*
X70092968Y-40994996D01*
X69792246Y-41295718D01*
X69555969Y-41649330D01*
X69393220Y-42042243D01*
X69310250Y-42459357D01*
X62400539Y-42459357D01*
X62313279Y-42442000D01*
X61892721Y-42442000D01*
X61480244Y-42524047D01*
X61091698Y-42684988D01*
X60742017Y-42918637D01*
X60444637Y-43216017D01*
X60210988Y-43565698D01*
X60050047Y-43954244D01*
X59968000Y-44366721D01*
X49006516Y-44366721D01*
X49033032Y-44349004D01*
X49333754Y-44048282D01*
X49570031Y-43694670D01*
X49732780Y-43301757D01*
X49815750Y-42884643D01*
X49815750Y-42459357D01*
X49732780Y-42042243D01*
X49570031Y-41649330D01*
X49333754Y-41295718D01*
X49033032Y-40994996D01*
X48679420Y-40758719D01*
X48286507Y-40595970D01*
X47869393Y-40513000D01*
X47444107Y-40513000D01*
X47026993Y-40595970D01*
X46634080Y-40758719D01*
X46280468Y-40994996D01*
X45979746Y-41295718D01*
X45743469Y-41649330D01*
X45580720Y-42042243D01*
X45497750Y-42459357D01*
X43833776Y-42459357D01*
X43876549Y-42395344D01*
X44077600Y-41909964D01*
X44180095Y-41394687D01*
X44180095Y-40869315D01*
X44077600Y-40354038D01*
X43876549Y-39868658D01*
X43584668Y-39431827D01*
X43213174Y-39060333D01*
X42776343Y-38768452D01*
X42290963Y-38567401D01*
X41775686Y-38464906D01*
X41250314Y-38464906D01*
X40735037Y-38567401D01*
X40249657Y-38768452D01*
X39812826Y-39060333D01*
X39441332Y-39431827D01*
X39149451Y-39868658D01*
X38948400Y-40354038D01*
X38845905Y-40869315D01*
X38248000Y-40869315D01*
X38247999Y-40167958D01*
X38294594Y-39692746D01*
X38422162Y-39270220D01*
X38629369Y-38880519D01*
X38908324Y-38538488D01*
X39248399Y-38257152D01*
X39636644Y-38047230D01*
X40058265Y-37916716D01*
X40531274Y-37867001D01*
X173827053Y-37867001D01*
X174302255Y-37913595D01*
G04 #@! TA.AperFunction,NonConductor*
D11*
G36*
X174302255Y-37913595D02*
G01*
X174724781Y-38041163D01*
X175114482Y-38248370D01*
X175456513Y-38527325D01*
X175737849Y-38867400D01*
X175947771Y-39255645D01*
X176078285Y-39677266D01*
X176128000Y-40150275D01*
X176128001Y-106771053D01*
X176081406Y-107246257D01*
X175953838Y-107668784D01*
X175746632Y-108058481D01*
X175467677Y-108400514D01*
X175127601Y-108681850D01*
X174739356Y-108891772D01*
X174317737Y-109022286D01*
X173844726Y-109072001D01*
X40548957Y-109072001D01*
X40073745Y-109025406D01*
X39651217Y-108897837D01*
X39261520Y-108690631D01*
X38919488Y-108411677D01*
X38638153Y-108071602D01*
X38428228Y-107683354D01*
X38297716Y-107261735D01*
X38248001Y-106788727D01*
X38248001Y-105544315D01*
X38845905Y-105544315D01*
X38845905Y-106069687D01*
X38948400Y-106584964D01*
X39149451Y-107070344D01*
X39441332Y-107507175D01*
X39812826Y-107878669D01*
X40249657Y-108170550D01*
X40735037Y-108371601D01*
X41250314Y-108474096D01*
X41775686Y-108474096D01*
X42290963Y-108371601D01*
X42776343Y-108170550D01*
X43213174Y-107878669D01*
X43584668Y-107507175D01*
X43876549Y-107070344D01*
X44077600Y-106584964D01*
X44180095Y-106069687D01*
X44180095Y-105544315D01*
X44077600Y-105029038D01*
X43876549Y-104543658D01*
X43584668Y-104106827D01*
X43532198Y-104054357D01*
X47879000Y-104054357D01*
X47879000Y-104479643D01*
X47961970Y-104896757D01*
X48124719Y-105289670D01*
X48360996Y-105643282D01*
X48661718Y-105944004D01*
X49015330Y-106180281D01*
X49408243Y-106343030D01*
X49825357Y-106426000D01*
X50250643Y-106426000D01*
X50667757Y-106343030D01*
X51060670Y-106180281D01*
X51414282Y-105944004D01*
X51715004Y-105643282D01*
X51951281Y-105289670D01*
X52114030Y-104896757D01*
X52197000Y-104479643D01*
X52197000Y-104054357D01*
X55022750Y-104054357D01*
X55022750Y-104479643D01*
X55105720Y-104896757D01*
X55268469Y-105289670D01*
X55504746Y-105643282D01*
X55805468Y-105944004D01*
X56159080Y-106180281D01*
X56551993Y-106343030D01*
X56969107Y-106426000D01*
X57394393Y-106426000D01*
X57811507Y-106343030D01*
X58204420Y-106180281D01*
X58558032Y-105944004D01*
X58858754Y-105643282D01*
X59095031Y-105289670D01*
X59257780Y-104896757D01*
X59340750Y-104479643D01*
X59340750Y-104054357D01*
X59257780Y-103637243D01*
X59095031Y-103244330D01*
X58858754Y-102890718D01*
X58558032Y-102589996D01*
X58204420Y-102353719D01*
X57811507Y-102190970D01*
X57614192Y-102151721D01*
X102513000Y-102151721D01*
X102513000Y-102572279D01*
X102595047Y-102984756D01*
X102755988Y-103373302D01*
X102989637Y-103722983D01*
X103287017Y-104020363D01*
X103636698Y-104254012D01*
X104025244Y-104414953D01*
X104437721Y-104497000D01*
X104858279Y-104497000D01*
X105270756Y-104414953D01*
X105659302Y-104254012D01*
X105958107Y-104054357D01*
X143129000Y-104054357D01*
X143129000Y-104479643D01*
X143211970Y-104896757D01*
X143374719Y-105289670D01*
X143610996Y-105643282D01*
X143911718Y-105944004D01*
X144265330Y-106180281D01*
X144658243Y-106343030D01*
X145075357Y-106426000D01*
X145500643Y-106426000D01*
X145917757Y-106343030D01*
X146310670Y-106180281D01*
X146664282Y-105944004D01*
X146965004Y-105643282D01*
X147201281Y-105289670D01*
X147364030Y-104896757D01*
X147447000Y-104479643D01*
X147447000Y-104054357D01*
X155035250Y-104054357D01*
X155035250Y-104479643D01*
X155118220Y-104896757D01*
X155280969Y-105289670D01*
X155517246Y-105643282D01*
X155817968Y-105944004D01*
X156171580Y-106180281D01*
X156564493Y-106343030D01*
X156981607Y-106426000D01*
X157406893Y-106426000D01*
X157824007Y-106343030D01*
X158216920Y-106180281D01*
X158570532Y-105944004D01*
X158871254Y-105643282D01*
X159107531Y-105289670D01*
X159270280Y-104896757D01*
X159353250Y-104479643D01*
X159353250Y-104054357D01*
X162179000Y-104054357D01*
X162179000Y-104479643D01*
X162261970Y-104896757D01*
X162424719Y-105289670D01*
X162660996Y-105643282D01*
X162961718Y-105944004D01*
X163315330Y-106180281D01*
X163708243Y-106343030D01*
X164125357Y-106426000D01*
X164550643Y-106426000D01*
X164967757Y-106343030D01*
X165360670Y-106180281D01*
X165714282Y-105944004D01*
X166015004Y-105643282D01*
X166081131Y-105544315D01*
X170195905Y-105544315D01*
X170195905Y-106069687D01*
X170298400Y-106584964D01*
X170499451Y-107070344D01*
X170791332Y-107507175D01*
X171162826Y-107878669D01*
X171599657Y-108170550D01*
X172085037Y-108371601D01*
X172600314Y-108474096D01*
X173125686Y-108474096D01*
X173640963Y-108371601D01*
X174126343Y-108170550D01*
X174563174Y-107878669D01*
X174934668Y-107507175D01*
X175226549Y-107070344D01*
X175427600Y-106584964D01*
X175530095Y-106069687D01*
X175530095Y-105544315D01*
X175427600Y-105029038D01*
X175226549Y-104543658D01*
X174934668Y-104106827D01*
X174563174Y-103735333D01*
X174126343Y-103443452D01*
X173640963Y-103242401D01*
X173125686Y-103139906D01*
X172600314Y-103139906D01*
X172085037Y-103242401D01*
X171599657Y-103443452D01*
X171162826Y-103735333D01*
X170791332Y-104106827D01*
X170499451Y-104543658D01*
X170298400Y-105029038D01*
X170195905Y-105544315D01*
X166081131Y-105544315D01*
X166251281Y-105289670D01*
X166414030Y-104896757D01*
X166497000Y-104479643D01*
X166497000Y-104054357D01*
X166414030Y-103637243D01*
X166251281Y-103244330D01*
X166015004Y-102890718D01*
X165714282Y-102589996D01*
X165360670Y-102353719D01*
X164967757Y-102190970D01*
X164550643Y-102108000D01*
X164125357Y-102108000D01*
X163708243Y-102190970D01*
X163315330Y-102353719D01*
X162961718Y-102589996D01*
X162660996Y-102890718D01*
X162424719Y-103244330D01*
X162261970Y-103637243D01*
X162179000Y-104054357D01*
X159353250Y-104054357D01*
X159270280Y-103637243D01*
X159107531Y-103244330D01*
X158871254Y-102890718D01*
X158570532Y-102589996D01*
X158216920Y-102353719D01*
X157824007Y-102190970D01*
X157406893Y-102108000D01*
X156981607Y-102108000D01*
X156564493Y-102190970D01*
X156171580Y-102353719D01*
X155817968Y-102589996D01*
X155517246Y-102890718D01*
X155280969Y-103244330D01*
X155118220Y-103637243D01*
X155035250Y-104054357D01*
X147447000Y-104054357D01*
X147364030Y-103637243D01*
X147201281Y-103244330D01*
X146965004Y-102890718D01*
X146664282Y-102589996D01*
X146310670Y-102353719D01*
X145917757Y-102190970D01*
X145500643Y-102108000D01*
X145075357Y-102108000D01*
X144658243Y-102190970D01*
X144265330Y-102353719D01*
X143911718Y-102589996D01*
X143610996Y-102890718D01*
X143374719Y-103244330D01*
X143211970Y-103637243D01*
X143129000Y-104054357D01*
X105958107Y-104054357D01*
X106008983Y-104020363D01*
X106306363Y-103722983D01*
X106540012Y-103373302D01*
X106700953Y-102984756D01*
X106783000Y-102572279D01*
X106783000Y-102151721D01*
X106700953Y-101739244D01*
X106540012Y-101350698D01*
X106306363Y-101001017D01*
X106008983Y-100703637D01*
X105659302Y-100469988D01*
X105270756Y-100309047D01*
X104858279Y-100227000D01*
X104437721Y-100227000D01*
X104025244Y-100309047D01*
X103636698Y-100469988D01*
X103287017Y-100703637D01*
X102989637Y-101001017D01*
X102755988Y-101350698D01*
X102595047Y-101739244D01*
X102513000Y-102151721D01*
X57614192Y-102151721D01*
X57394393Y-102108000D01*
X56969107Y-102108000D01*
X56551993Y-102190970D01*
X56159080Y-102353719D01*
X55805468Y-102589996D01*
X55504746Y-102890718D01*
X55268469Y-103244330D01*
X55105720Y-103637243D01*
X55022750Y-104054357D01*
X52197000Y-104054357D01*
X52114030Y-103637243D01*
X51951281Y-103244330D01*
X51715004Y-102890718D01*
X51414282Y-102589996D01*
X51060670Y-102353719D01*
X50667757Y-102190970D01*
X50250643Y-102108000D01*
X49825357Y-102108000D01*
X49408243Y-102190970D01*
X49015330Y-102353719D01*
X48661718Y-102589996D01*
X48360996Y-102890718D01*
X48124719Y-103244330D01*
X47961970Y-103637243D01*
X47879000Y-104054357D01*
X43532198Y-104054357D01*
X43213174Y-103735333D01*
X42776343Y-103443452D01*
X42290963Y-103242401D01*
X41775686Y-103139906D01*
X41250314Y-103139906D01*
X40735037Y-103242401D01*
X40249657Y-103443452D01*
X39812826Y-103735333D01*
X39441332Y-104106827D01*
X39149451Y-104543658D01*
X38948400Y-105029038D01*
X38845905Y-105544315D01*
X38248001Y-105544315D01*
X38248001Y-97133278D01*
X91073000Y-97133278D01*
X91073000Y-97430722D01*
X91131029Y-97722451D01*
X91244856Y-97997253D01*
X91410107Y-98244569D01*
X91620431Y-98454893D01*
X91867747Y-98620144D01*
X92142549Y-98733971D01*
X92434278Y-98792000D01*
X92731722Y-98792000D01*
X93023451Y-98733971D01*
X93298253Y-98620144D01*
X93545569Y-98454893D01*
X93755893Y-98244569D01*
X93921144Y-97997253D01*
X94034971Y-97722451D01*
X94093000Y-97430722D01*
X94093000Y-97133278D01*
X94042023Y-96877000D01*
X94063279Y-96877000D01*
X94475756Y-96794953D01*
X94864302Y-96634012D01*
X95170708Y-96429279D01*
X95135127Y-96515178D01*
X95034100Y-97023076D01*
X95034100Y-97540924D01*
X95135127Y-98048822D01*
X95333299Y-98527251D01*
X95621000Y-98957826D01*
X95987174Y-99324000D01*
X96417749Y-99611701D01*
X96896178Y-99809873D01*
X97404076Y-99910900D01*
X97921924Y-99910900D01*
X98429822Y-99809873D01*
X98908251Y-99611701D01*
X99338826Y-99324000D01*
X99705000Y-98957826D01*
X99992701Y-98527251D01*
X100190873Y-98048822D01*
X100291900Y-97540924D01*
X100291900Y-97133278D01*
X100598000Y-97133278D01*
X100598000Y-97430722D01*
X100656029Y-97722451D01*
X100769856Y-97997253D01*
X100935107Y-98244569D01*
X101145431Y-98454893D01*
X101392747Y-98620144D01*
X101667549Y-98733971D01*
X101959278Y-98792000D01*
X102256722Y-98792000D01*
X102425500Y-98758428D01*
X102594278Y-98792000D01*
X102891722Y-98792000D01*
X103183451Y-98733971D01*
X103458253Y-98620144D01*
X103705569Y-98454893D01*
X103915893Y-98244569D01*
X104081144Y-97997253D01*
X104194971Y-97722451D01*
X104253000Y-97430722D01*
X104253000Y-97133278D01*
X104231080Y-97023076D01*
X104559100Y-97023076D01*
X104559100Y-97540924D01*
X104660127Y-98048822D01*
X104858299Y-98527251D01*
X105146000Y-98957826D01*
X105512174Y-99324000D01*
X105942749Y-99611701D01*
X106421178Y-99809873D01*
X106929076Y-99910900D01*
X107446924Y-99910900D01*
X107954822Y-99809873D01*
X108433251Y-99611701D01*
X108863826Y-99324000D01*
X108934237Y-99253589D01*
X108863000Y-99611721D01*
X108863000Y-100032279D01*
X108945047Y-100444756D01*
X109105988Y-100833302D01*
X109339637Y-101182983D01*
X109637017Y-101480363D01*
X109986698Y-101714012D01*
X110375244Y-101874953D01*
X110787721Y-101957000D01*
X111208279Y-101957000D01*
X111620756Y-101874953D01*
X112009302Y-101714012D01*
X112358983Y-101480363D01*
X112656363Y-101182983D01*
X112890012Y-100833302D01*
X113050953Y-100444756D01*
X113133000Y-100032279D01*
X113133000Y-99611721D01*
X113050953Y-99199244D01*
X112890012Y-98810698D01*
X112810501Y-98691701D01*
X112983253Y-98620144D01*
X113230569Y-98454893D01*
X113440893Y-98244569D01*
X113606144Y-97997253D01*
X113719971Y-97722451D01*
X113778000Y-97430722D01*
X113778000Y-97133278D01*
X113719971Y-96841549D01*
X113606144Y-96566747D01*
X113440893Y-96319431D01*
X113230569Y-96109107D01*
X112983253Y-95943856D01*
X112708451Y-95830029D01*
X112416722Y-95772000D01*
X112119278Y-95772000D01*
X111827549Y-95830029D01*
X111552747Y-95943856D01*
X111305431Y-96109107D01*
X111095107Y-96319431D01*
X110929856Y-96566747D01*
X110816029Y-96841549D01*
X110758000Y-97133278D01*
X110758000Y-97430722D01*
X110808977Y-97687000D01*
X110787721Y-97687000D01*
X110375244Y-97769047D01*
X109986698Y-97929988D01*
X109680292Y-98134721D01*
X109715873Y-98048822D01*
X109816900Y-97540924D01*
X109816900Y-97023076D01*
X109715873Y-96515178D01*
X109517701Y-96036749D01*
X109230000Y-95606174D01*
X108863826Y-95240000D01*
X108433251Y-94952299D01*
X107954822Y-94754127D01*
X107446924Y-94653100D01*
X106929076Y-94653100D01*
X106421178Y-94754127D01*
X105942749Y-94952299D01*
X105512174Y-95240000D01*
X105146000Y-95606174D01*
X104858299Y-96036749D01*
X104660127Y-96515178D01*
X104559100Y-97023076D01*
X104231080Y-97023076D01*
X104194971Y-96841549D01*
X104081144Y-96566747D01*
X103915893Y-96319431D01*
X103705569Y-96109107D01*
X103458253Y-95943856D01*
X103183451Y-95830029D01*
X102891722Y-95772000D01*
X102594278Y-95772000D01*
X102425500Y-95805572D01*
X102256722Y-95772000D01*
X101959278Y-95772000D01*
X101667549Y-95830029D01*
X101392747Y-95943856D01*
X101145431Y-96109107D01*
X100935107Y-96319431D01*
X100769856Y-96566747D01*
X100656029Y-96841549D01*
X100598000Y-97133278D01*
X100291900Y-97133278D01*
X100291900Y-97023076D01*
X100190873Y-96515178D01*
X99992701Y-96036749D01*
X99705000Y-95606174D01*
X99338826Y-95240000D01*
X98908251Y-94952299D01*
X98429822Y-94754127D01*
X97921924Y-94653100D01*
X97404076Y-94653100D01*
X96896178Y-94754127D01*
X96417749Y-94952299D01*
X95987174Y-95240000D01*
X95916763Y-95310411D01*
X95988000Y-94952279D01*
X95988000Y-94531721D01*
X95905953Y-94119244D01*
X95745012Y-93730698D01*
X95511363Y-93381017D01*
X95213983Y-93083637D01*
X94864302Y-92849988D01*
X94475756Y-92689047D01*
X94063279Y-92607000D01*
X93642721Y-92607000D01*
X93230244Y-92689047D01*
X92841698Y-92849988D01*
X92492017Y-93083637D01*
X92194637Y-93381017D01*
X91960988Y-93730698D01*
X91800047Y-94119244D01*
X91718000Y-94531721D01*
X91718000Y-94952279D01*
X91800047Y-95364756D01*
X91960988Y-95753302D01*
X92040499Y-95872299D01*
X91867747Y-95943856D01*
X91620431Y-96109107D01*
X91410107Y-96319431D01*
X91244856Y-96566747D01*
X91131029Y-96841549D01*
X91073000Y-97133278D01*
X38248001Y-97133278D01*
X38248001Y-91991721D01*
X98068000Y-91991721D01*
X98068000Y-92412279D01*
X98150047Y-92824756D01*
X98310988Y-93213302D01*
X98544637Y-93562983D01*
X98842017Y-93860363D01*
X99191698Y-94094012D01*
X99580244Y-94254953D01*
X99992721Y-94337000D01*
X100413279Y-94337000D01*
X100825756Y-94254953D01*
X101214302Y-94094012D01*
X101563983Y-93860363D01*
X101861363Y-93562983D01*
X102095012Y-93213302D01*
X102255953Y-92824756D01*
X102338000Y-92412279D01*
X102338000Y-91991721D01*
X102255953Y-91579244D01*
X102095012Y-91190698D01*
X101861363Y-90841017D01*
X101563983Y-90543637D01*
X101214302Y-90309988D01*
X100825756Y-90149047D01*
X100413279Y-90067000D01*
X99992721Y-90067000D01*
X99580244Y-90149047D01*
X99191698Y-90309988D01*
X98842017Y-90543637D01*
X98544637Y-90841017D01*
X98310988Y-91190698D01*
X98150047Y-91579244D01*
X98068000Y-91991721D01*
X38248001Y-91991721D01*
X38248001Y-88768076D01*
X47409100Y-88768076D01*
X47409100Y-89285924D01*
X47510127Y-89793822D01*
X47708299Y-90272251D01*
X47996000Y-90702826D01*
X48362174Y-91069000D01*
X48792749Y-91356701D01*
X49271178Y-91554873D01*
X49779076Y-91655900D01*
X50296924Y-91655900D01*
X50804822Y-91554873D01*
X51283251Y-91356701D01*
X51713826Y-91069000D01*
X52080000Y-90702826D01*
X52367701Y-90272251D01*
X52565873Y-89793822D01*
X52666900Y-89285924D01*
X52666900Y-88768076D01*
X54552850Y-88768076D01*
X54552850Y-89285924D01*
X54653877Y-89793822D01*
X54852049Y-90272251D01*
X55139750Y-90702826D01*
X55505924Y-91069000D01*
X55936499Y-91356701D01*
X56414928Y-91554873D01*
X56922826Y-91655900D01*
X57440674Y-91655900D01*
X57948572Y-91554873D01*
X58427001Y-91356701D01*
X58857576Y-91069000D01*
X59223750Y-90702826D01*
X59511451Y-90272251D01*
X59709623Y-89793822D01*
X59810650Y-89285924D01*
X59810650Y-88768076D01*
X142659100Y-88768076D01*
X142659100Y-89285924D01*
X142760127Y-89793822D01*
X142958299Y-90272251D01*
X143246000Y-90702826D01*
X143612174Y-91069000D01*
X144042749Y-91356701D01*
X144521178Y-91554873D01*
X145029076Y-91655900D01*
X145546924Y-91655900D01*
X146054822Y-91554873D01*
X146533251Y-91356701D01*
X146963826Y-91069000D01*
X147330000Y-90702826D01*
X147617701Y-90272251D01*
X147815873Y-89793822D01*
X147916900Y-89285924D01*
X147916900Y-88768076D01*
X154565350Y-88768076D01*
X154565350Y-89285924D01*
X154666377Y-89793822D01*
X154864549Y-90272251D01*
X155152250Y-90702826D01*
X155518424Y-91069000D01*
X155948999Y-91356701D01*
X156427428Y-91554873D01*
X156935326Y-91655900D01*
X157453174Y-91655900D01*
X157961072Y-91554873D01*
X158439501Y-91356701D01*
X158870076Y-91069000D01*
X159236250Y-90702826D01*
X159523951Y-90272251D01*
X159722123Y-89793822D01*
X159823150Y-89285924D01*
X159823150Y-88768076D01*
X161709100Y-88768076D01*
X161709100Y-89285924D01*
X161810127Y-89793822D01*
X162008299Y-90272251D01*
X162296000Y-90702826D01*
X162662174Y-91069000D01*
X163092749Y-91356701D01*
X163571178Y-91554873D01*
X164079076Y-91655900D01*
X164596924Y-91655900D01*
X165104822Y-91554873D01*
X165583251Y-91356701D01*
X166013826Y-91069000D01*
X166380000Y-90702826D01*
X166667701Y-90272251D01*
X166865873Y-89793822D01*
X166966900Y-89285924D01*
X166966900Y-88768076D01*
X166865873Y-88260178D01*
X166667701Y-87781749D01*
X166380000Y-87351174D01*
X166013826Y-86985000D01*
X165583251Y-86697299D01*
X165104822Y-86499127D01*
X164596924Y-86398100D01*
X164079076Y-86398100D01*
X163571178Y-86499127D01*
X163092749Y-86697299D01*
X162662174Y-86985000D01*
X162296000Y-87351174D01*
X162008299Y-87781749D01*
X161810127Y-88260178D01*
X161709100Y-88768076D01*
X159823150Y-88768076D01*
X159722123Y-88260178D01*
X159523951Y-87781749D01*
X159236250Y-87351174D01*
X158870076Y-86985000D01*
X158439501Y-86697299D01*
X157961072Y-86499127D01*
X157453174Y-86398100D01*
X156935326Y-86398100D01*
X156427428Y-86499127D01*
X155948999Y-86697299D01*
X155518424Y-86985000D01*
X155152250Y-87351174D01*
X154864549Y-87781749D01*
X154666377Y-88260178D01*
X154565350Y-88768076D01*
X147916900Y-88768076D01*
X147815873Y-88260178D01*
X147617701Y-87781749D01*
X147330000Y-87351174D01*
X146963826Y-86985000D01*
X146533251Y-86697299D01*
X146054822Y-86499127D01*
X145546924Y-86398100D01*
X145029076Y-86398100D01*
X144521178Y-86499127D01*
X144042749Y-86697299D01*
X143612174Y-86985000D01*
X143246000Y-87351174D01*
X142958299Y-87781749D01*
X142760127Y-88260178D01*
X142659100Y-88768076D01*
X59810650Y-88768076D01*
X59709623Y-88260178D01*
X59511451Y-87781749D01*
X59223750Y-87351174D01*
X58857576Y-86985000D01*
X58427001Y-86697299D01*
X57948572Y-86499127D01*
X57440674Y-86398100D01*
X56922826Y-86398100D01*
X56414928Y-86499127D01*
X55936499Y-86697299D01*
X55505924Y-86985000D01*
X55139750Y-87351174D01*
X54852049Y-87781749D01*
X54653877Y-88260178D01*
X54552850Y-88768076D01*
X52666900Y-88768076D01*
X52565873Y-88260178D01*
X52367701Y-87781749D01*
X52080000Y-87351174D01*
X51713826Y-86985000D01*
X51283251Y-86697299D01*
X50804822Y-86499127D01*
X50296924Y-86398100D01*
X49779076Y-86398100D01*
X49271178Y-86499127D01*
X48792749Y-86697299D01*
X48362174Y-86985000D01*
X47996000Y-87351174D01*
X47708299Y-87781749D01*
X47510127Y-88260178D01*
X47409100Y-88768076D01*
X38248001Y-88768076D01*
X38248001Y-85285229D01*
X105317053Y-85285229D01*
X105317053Y-85653773D01*
X105388952Y-86015236D01*
X105529988Y-86355727D01*
X105734740Y-86662160D01*
X105995341Y-86922761D01*
X106301774Y-87127513D01*
X106642265Y-87268549D01*
X107003728Y-87340448D01*
X107372272Y-87340448D01*
X107733735Y-87268549D01*
X108074226Y-87127513D01*
X108380659Y-86922761D01*
X108641260Y-86662160D01*
X108846012Y-86355727D01*
X108987048Y-86015236D01*
X109058947Y-85653773D01*
X109058947Y-85285229D01*
X108987048Y-84923766D01*
X108846012Y-84583275D01*
X108641260Y-84276842D01*
X108380659Y-84016241D01*
X108074226Y-83811489D01*
X107733735Y-83670453D01*
X107372272Y-83598554D01*
X107003728Y-83598554D01*
X106642265Y-83670453D01*
X106301774Y-83811489D01*
X105995341Y-84016241D01*
X105734740Y-84276842D01*
X105529988Y-84583275D01*
X105388952Y-84923766D01*
X105317053Y-85285229D01*
X38248001Y-85285229D01*
X38248001Y-81465576D01*
X45027850Y-81465576D01*
X45027850Y-81983424D01*
X45128877Y-82491322D01*
X45327049Y-82969751D01*
X45614750Y-83400326D01*
X45980924Y-83766500D01*
X46411499Y-84054201D01*
X46889928Y-84252373D01*
X47397826Y-84353400D01*
X47915674Y-84353400D01*
X48423572Y-84252373D01*
X48902001Y-84054201D01*
X49332576Y-83766500D01*
X49698750Y-83400326D01*
X49986451Y-82969751D01*
X50184623Y-82491322D01*
X50285650Y-81983424D01*
X50285650Y-81465576D01*
X68840350Y-81465576D01*
X68840350Y-81983424D01*
X68941377Y-82491322D01*
X69139549Y-82969751D01*
X69427250Y-83400326D01*
X69793424Y-83766500D01*
X70223999Y-84054201D01*
X70702428Y-84252373D01*
X71210326Y-84353400D01*
X71728174Y-84353400D01*
X72236072Y-84252373D01*
X72714501Y-84054201D01*
X73145076Y-83766500D01*
X73511250Y-83400326D01*
X73798951Y-82969751D01*
X73997123Y-82491322D01*
X74098150Y-81983424D01*
X74098150Y-81465577D01*
X85509100Y-81465577D01*
X85509100Y-81983425D01*
X85610127Y-82491323D01*
X85808299Y-82969752D01*
X86096000Y-83400327D01*
X86462174Y-83766501D01*
X86892749Y-84054202D01*
X87371178Y-84252374D01*
X87879076Y-84353401D01*
X88396924Y-84353401D01*
X88904822Y-84252374D01*
X89383251Y-84054202D01*
X89813826Y-83766501D01*
X90180000Y-83400327D01*
X90467701Y-82969752D01*
X90665873Y-82491323D01*
X90766900Y-81983425D01*
X90766900Y-81465576D01*
X92652850Y-81465576D01*
X92652850Y-81983424D01*
X92753877Y-82491322D01*
X92952049Y-82969751D01*
X93239750Y-83400326D01*
X93605924Y-83766500D01*
X94036499Y-84054201D01*
X94514928Y-84252373D01*
X95022826Y-84353400D01*
X95540674Y-84353400D01*
X96048572Y-84252373D01*
X96527001Y-84054201D01*
X96957576Y-83766500D01*
X97323750Y-83400326D01*
X97611451Y-82969751D01*
X97809623Y-82491322D01*
X97910650Y-81983424D01*
X97910650Y-81465576D01*
X116465350Y-81465576D01*
X116465350Y-81983424D01*
X116566377Y-82491322D01*
X116764549Y-82969751D01*
X117052250Y-83400326D01*
X117418424Y-83766500D01*
X117848999Y-84054201D01*
X118327428Y-84252373D01*
X118835326Y-84353400D01*
X119353174Y-84353400D01*
X119861072Y-84252373D01*
X120339501Y-84054201D01*
X120770076Y-83766500D01*
X121136250Y-83400326D01*
X121423951Y-82969751D01*
X121622123Y-82491322D01*
X121723150Y-81983424D01*
X121723150Y-81465577D01*
X123609100Y-81465577D01*
X123609100Y-81983425D01*
X123710127Y-82491323D01*
X123908299Y-82969752D01*
X124196000Y-83400327D01*
X124562174Y-83766501D01*
X124992749Y-84054202D01*
X125471178Y-84252374D01*
X125979076Y-84353401D01*
X126496924Y-84353401D01*
X127004822Y-84252374D01*
X127483251Y-84054202D01*
X127913826Y-83766501D01*
X128280000Y-83400327D01*
X128567701Y-82969752D01*
X128765873Y-82491323D01*
X128866900Y-81983425D01*
X128866900Y-81465576D01*
X140277850Y-81465576D01*
X140277850Y-81983424D01*
X140378877Y-82491322D01*
X140577049Y-82969751D01*
X140864750Y-83400326D01*
X141230924Y-83766500D01*
X141661499Y-84054201D01*
X142139928Y-84252373D01*
X142647826Y-84353400D01*
X143165674Y-84353400D01*
X143673572Y-84252373D01*
X144152001Y-84054201D01*
X144582576Y-83766500D01*
X144948750Y-83400326D01*
X145236451Y-82969751D01*
X145434623Y-82491322D01*
X145535650Y-81983424D01*
X145535650Y-81465576D01*
X164090350Y-81465576D01*
X164090350Y-81983424D01*
X164191377Y-82491322D01*
X164389549Y-82969751D01*
X164677250Y-83400326D01*
X165043424Y-83766500D01*
X165473999Y-84054201D01*
X165952428Y-84252373D01*
X166460326Y-84353400D01*
X166978174Y-84353400D01*
X167486072Y-84252373D01*
X167964501Y-84054201D01*
X168395076Y-83766500D01*
X168761250Y-83400326D01*
X169048951Y-82969751D01*
X169247123Y-82491322D01*
X169348150Y-81983424D01*
X169348150Y-81465576D01*
X169247123Y-80957678D01*
X169048951Y-80479249D01*
X168761250Y-80048674D01*
X168395076Y-79682500D01*
X167964501Y-79394799D01*
X167486072Y-79196627D01*
X166978174Y-79095600D01*
X166460326Y-79095600D01*
X165952428Y-79196627D01*
X165473999Y-79394799D01*
X165043424Y-79682500D01*
X164677250Y-80048674D01*
X164389549Y-80479249D01*
X164191377Y-80957678D01*
X164090350Y-81465576D01*
X145535650Y-81465576D01*
X145434623Y-80957678D01*
X145236451Y-80479249D01*
X144948750Y-80048674D01*
X144582576Y-79682500D01*
X144152001Y-79394799D01*
X143673572Y-79196627D01*
X143165674Y-79095600D01*
X142647826Y-79095600D01*
X142139928Y-79196627D01*
X141661499Y-79394799D01*
X141230924Y-79682500D01*
X140864750Y-80048674D01*
X140577049Y-80479249D01*
X140378877Y-80957678D01*
X140277850Y-81465576D01*
X128866900Y-81465576D01*
X128765873Y-80957679D01*
X128567701Y-80479250D01*
X128280000Y-80048675D01*
X127913826Y-79682501D01*
X127483251Y-79394800D01*
X127004822Y-79196628D01*
X126496924Y-79095601D01*
X125979076Y-79095601D01*
X125471178Y-79196628D01*
X124992749Y-79394800D01*
X124562174Y-79682501D01*
X124196000Y-80048675D01*
X123908299Y-80479250D01*
X123710127Y-80957679D01*
X123609100Y-81465577D01*
X121723150Y-81465577D01*
X121723150Y-81465576D01*
X121622123Y-80957678D01*
X121423951Y-80479249D01*
X121136250Y-80048674D01*
X120770076Y-79682500D01*
X120339501Y-79394799D01*
X119861072Y-79196627D01*
X119353174Y-79095600D01*
X118835326Y-79095600D01*
X118327428Y-79196627D01*
X117848999Y-79394799D01*
X117418424Y-79682500D01*
X117052250Y-80048674D01*
X116764549Y-80479249D01*
X116566377Y-80957678D01*
X116465350Y-81465576D01*
X97910650Y-81465576D01*
X97809623Y-80957678D01*
X97611451Y-80479249D01*
X97323750Y-80048674D01*
X96957576Y-79682500D01*
X96527001Y-79394799D01*
X96048572Y-79196627D01*
X95540674Y-79095600D01*
X95022826Y-79095600D01*
X94514928Y-79196627D01*
X94036499Y-79394799D01*
X93605924Y-79682500D01*
X93239750Y-80048674D01*
X92952049Y-80479249D01*
X92753877Y-80957678D01*
X92652850Y-81465576D01*
X90766900Y-81465576D01*
X90665873Y-80957679D01*
X90467701Y-80479250D01*
X90180000Y-80048675D01*
X89813826Y-79682501D01*
X89383251Y-79394800D01*
X88904822Y-79196628D01*
X88396924Y-79095601D01*
X87879076Y-79095601D01*
X87371178Y-79196628D01*
X86892749Y-79394800D01*
X86462174Y-79682501D01*
X86096000Y-80048675D01*
X85808299Y-80479250D01*
X85610127Y-80957679D01*
X85509100Y-81465577D01*
X74098150Y-81465577D01*
X74098150Y-81465576D01*
X73997123Y-80957678D01*
X73798951Y-80479249D01*
X73511250Y-80048674D01*
X73145076Y-79682500D01*
X72714501Y-79394799D01*
X72236072Y-79196627D01*
X71728174Y-79095600D01*
X71210326Y-79095600D01*
X70702428Y-79196627D01*
X70223999Y-79394799D01*
X69793424Y-79682500D01*
X69427250Y-80048674D01*
X69139549Y-80479249D01*
X68941377Y-80957678D01*
X68840350Y-81465576D01*
X50285650Y-81465576D01*
X50184623Y-80957678D01*
X49986451Y-80479249D01*
X49698750Y-80048674D01*
X49332576Y-79682500D01*
X48902001Y-79394799D01*
X48423572Y-79196627D01*
X47915674Y-79095600D01*
X47397826Y-79095600D01*
X46889928Y-79196627D01*
X46411499Y-79394799D01*
X45980924Y-79682500D01*
X45614750Y-80048674D01*
X45327049Y-80479249D01*
X45128877Y-80957678D01*
X45027850Y-81465576D01*
X38248001Y-81465576D01*
X38248001Y-73285229D01*
X39317053Y-73285229D01*
X39317053Y-73653773D01*
X39388952Y-74015236D01*
X39529988Y-74355727D01*
X39734740Y-74662160D01*
X39995341Y-74922761D01*
X40301774Y-75127513D01*
X40642265Y-75268549D01*
X41003728Y-75340448D01*
X41372272Y-75340448D01*
X41733735Y-75268549D01*
X42074226Y-75127513D01*
X42380659Y-74922761D01*
X42641260Y-74662160D01*
X42846012Y-74355727D01*
X42987048Y-74015236D01*
X43058947Y-73653773D01*
X43058947Y-73320778D01*
X52973000Y-73320778D01*
X52973000Y-73618222D01*
X53031029Y-73909951D01*
X53144856Y-74184753D01*
X53310107Y-74432069D01*
X53520431Y-74642393D01*
X53767747Y-74807644D01*
X54042549Y-74921471D01*
X54334278Y-74979500D01*
X54631722Y-74979500D01*
X54923451Y-74921471D01*
X55198253Y-74807644D01*
X55445569Y-74642393D01*
X55655893Y-74432069D01*
X55821144Y-74184753D01*
X55934971Y-73909951D01*
X55993000Y-73618222D01*
X55993000Y-73320778D01*
X55942023Y-73064500D01*
X55963279Y-73064500D01*
X56375756Y-72982453D01*
X56764302Y-72821512D01*
X57070708Y-72616779D01*
X57035127Y-72702678D01*
X56934100Y-73210576D01*
X56934100Y-73728424D01*
X57035127Y-74236322D01*
X57233299Y-74714751D01*
X57521000Y-75145326D01*
X57887174Y-75511500D01*
X58317749Y-75799201D01*
X58796178Y-75997373D01*
X59304076Y-76098400D01*
X59821924Y-76098400D01*
X60329822Y-75997373D01*
X60808251Y-75799201D01*
X61238826Y-75511500D01*
X61605000Y-75145326D01*
X61892701Y-74714751D01*
X62090873Y-74236322D01*
X62191900Y-73728424D01*
X62191900Y-73320778D01*
X63133000Y-73320778D01*
X63133000Y-73618222D01*
X63191029Y-73909951D01*
X63304856Y-74184753D01*
X63470107Y-74432069D01*
X63680431Y-74642393D01*
X63927747Y-74807644D01*
X64202549Y-74921471D01*
X64494278Y-74979500D01*
X64791722Y-74979500D01*
X65083451Y-74921471D01*
X65358253Y-74807644D01*
X65605569Y-74642393D01*
X65815893Y-74432069D01*
X65981144Y-74184753D01*
X66094971Y-73909951D01*
X66153000Y-73618222D01*
X66153000Y-73320778D01*
X100598000Y-73320778D01*
X100598000Y-73618222D01*
X100656029Y-73909951D01*
X100769856Y-74184753D01*
X100935107Y-74432069D01*
X101145431Y-74642393D01*
X101392747Y-74807644D01*
X101667549Y-74921471D01*
X101959278Y-74979500D01*
X102256722Y-74979500D01*
X102548451Y-74921471D01*
X102823253Y-74807644D01*
X103070569Y-74642393D01*
X103280893Y-74432069D01*
X103446144Y-74184753D01*
X103559971Y-73909951D01*
X103618000Y-73618222D01*
X103618000Y-73320778D01*
X103567023Y-73064500D01*
X103588279Y-73064500D01*
X104000756Y-72982453D01*
X104389302Y-72821512D01*
X104541700Y-72719683D01*
X104446266Y-73199464D01*
X104446266Y-73739538D01*
X104551629Y-74269235D01*
X104758307Y-74768199D01*
X105058356Y-75217254D01*
X105440247Y-75599145D01*
X105889302Y-75899194D01*
X106388266Y-76105872D01*
X106917963Y-76211235D01*
X107458037Y-76211235D01*
X107987734Y-76105872D01*
X108486698Y-75899194D01*
X108935753Y-75599145D01*
X109317644Y-75217254D01*
X109617693Y-74768199D01*
X109824371Y-74269235D01*
X109929734Y-73739538D01*
X109929734Y-73320778D01*
X110758000Y-73320778D01*
X110758000Y-73618222D01*
X110816029Y-73909951D01*
X110929856Y-74184753D01*
X111095107Y-74432069D01*
X111305431Y-74642393D01*
X111552747Y-74807644D01*
X111827549Y-74921471D01*
X112119278Y-74979500D01*
X112416722Y-74979500D01*
X112708451Y-74921471D01*
X112983253Y-74807644D01*
X113230569Y-74642393D01*
X113440893Y-74432069D01*
X113606144Y-74184753D01*
X113719971Y-73909951D01*
X113778000Y-73618222D01*
X113778000Y-73320778D01*
X148223000Y-73320778D01*
X148223000Y-73618222D01*
X148281029Y-73909951D01*
X148394856Y-74184753D01*
X148560107Y-74432069D01*
X148770431Y-74642393D01*
X149017747Y-74807644D01*
X149292549Y-74921471D01*
X149584278Y-74979500D01*
X149881722Y-74979500D01*
X150173451Y-74921471D01*
X150448253Y-74807644D01*
X150695569Y-74642393D01*
X150905893Y-74432069D01*
X151071144Y-74184753D01*
X151184971Y-73909951D01*
X151243000Y-73618222D01*
X151243000Y-73320778D01*
X151192023Y-73064500D01*
X151213279Y-73064500D01*
X151625756Y-72982453D01*
X152014302Y-72821512D01*
X152320708Y-72616779D01*
X152285127Y-72702678D01*
X152184100Y-73210576D01*
X152184100Y-73728424D01*
X152285127Y-74236322D01*
X152483299Y-74714751D01*
X152771000Y-75145326D01*
X153137174Y-75511500D01*
X153567749Y-75799201D01*
X154046178Y-75997373D01*
X154554076Y-76098400D01*
X155071924Y-76098400D01*
X155579822Y-75997373D01*
X156058251Y-75799201D01*
X156488826Y-75511500D01*
X156855000Y-75145326D01*
X157142701Y-74714751D01*
X157340873Y-74236322D01*
X157441900Y-73728424D01*
X157441900Y-73320778D01*
X158383000Y-73320778D01*
X158383000Y-73618222D01*
X158441029Y-73909951D01*
X158554856Y-74184753D01*
X158720107Y-74432069D01*
X158930431Y-74642393D01*
X159177747Y-74807644D01*
X159452549Y-74921471D01*
X159744278Y-74979500D01*
X160041722Y-74979500D01*
X160333451Y-74921471D01*
X160608253Y-74807644D01*
X160855569Y-74642393D01*
X161065893Y-74432069D01*
X161231144Y-74184753D01*
X161344971Y-73909951D01*
X161403000Y-73618222D01*
X161403000Y-73320778D01*
X161395929Y-73285229D01*
X171317053Y-73285229D01*
X171317053Y-73653773D01*
X171388952Y-74015236D01*
X171529988Y-74355727D01*
X171734740Y-74662160D01*
X171995341Y-74922761D01*
X172301774Y-75127513D01*
X172642265Y-75268549D01*
X173003728Y-75340448D01*
X173372272Y-75340448D01*
X173733735Y-75268549D01*
X174074226Y-75127513D01*
X174380659Y-74922761D01*
X174641260Y-74662160D01*
X174846012Y-74355727D01*
X174987048Y-74015236D01*
X175058947Y-73653773D01*
X175058947Y-73285229D01*
X174987048Y-72923766D01*
X174846012Y-72583275D01*
X174641260Y-72276842D01*
X174380659Y-72016241D01*
X174074226Y-71811489D01*
X173733735Y-71670453D01*
X173372272Y-71598554D01*
X173003728Y-71598554D01*
X172642265Y-71670453D01*
X172301774Y-71811489D01*
X171995341Y-72016241D01*
X171734740Y-72276842D01*
X171529988Y-72583275D01*
X171388952Y-72923766D01*
X171317053Y-73285229D01*
X161395929Y-73285229D01*
X161344971Y-73029049D01*
X161231144Y-72754247D01*
X161065893Y-72506931D01*
X160855569Y-72296607D01*
X160608253Y-72131356D01*
X160333451Y-72017529D01*
X160041722Y-71959500D01*
X159744278Y-71959500D01*
X159452549Y-72017529D01*
X159177747Y-72131356D01*
X158930431Y-72296607D01*
X158720107Y-72506931D01*
X158554856Y-72754247D01*
X158441029Y-73029049D01*
X158383000Y-73320778D01*
X157441900Y-73320778D01*
X157441900Y-73210576D01*
X157340873Y-72702678D01*
X157142701Y-72224249D01*
X156855000Y-71793674D01*
X156488826Y-71427500D01*
X156058251Y-71139799D01*
X155579822Y-70941627D01*
X155071924Y-70840600D01*
X154554076Y-70840600D01*
X154046178Y-70941627D01*
X153567749Y-71139799D01*
X153137174Y-71427500D01*
X153066763Y-71497911D01*
X153138000Y-71139779D01*
X153138000Y-70719221D01*
X153055953Y-70306744D01*
X152895012Y-69918198D01*
X152661363Y-69568517D01*
X152363983Y-69271137D01*
X152014302Y-69037488D01*
X151625756Y-68876547D01*
X151213279Y-68794500D01*
X150792721Y-68794500D01*
X150380244Y-68876547D01*
X149991698Y-69037488D01*
X149642017Y-69271137D01*
X149344637Y-69568517D01*
X149110988Y-69918198D01*
X148950047Y-70306744D01*
X148868000Y-70719221D01*
X148868000Y-71139779D01*
X148950047Y-71552256D01*
X149110988Y-71940802D01*
X149190499Y-72059799D01*
X149017747Y-72131356D01*
X148770431Y-72296607D01*
X148560107Y-72506931D01*
X148394856Y-72754247D01*
X148281029Y-73029049D01*
X148223000Y-73320778D01*
X113778000Y-73320778D01*
X113719971Y-73029049D01*
X113606144Y-72754247D01*
X113440893Y-72506931D01*
X113230569Y-72296607D01*
X112983253Y-72131356D01*
X112708451Y-72017529D01*
X112416722Y-71959500D01*
X112119278Y-71959500D01*
X111827549Y-72017529D01*
X111552747Y-72131356D01*
X111305431Y-72296607D01*
X111095107Y-72506931D01*
X110929856Y-72754247D01*
X110816029Y-73029049D01*
X110758000Y-73320778D01*
X109929734Y-73320778D01*
X109929734Y-73199464D01*
X109824371Y-72669767D01*
X109617693Y-72170803D01*
X109317644Y-71721748D01*
X108935753Y-71339857D01*
X108486698Y-71039808D01*
X107987734Y-70833130D01*
X107458037Y-70727767D01*
X106917963Y-70727767D01*
X106388266Y-70833130D01*
X105889302Y-71039808D01*
X105478253Y-71314462D01*
X105513000Y-71139779D01*
X105513000Y-70719221D01*
X105430953Y-70306744D01*
X105270012Y-69918198D01*
X105036363Y-69568517D01*
X104738983Y-69271137D01*
X104389302Y-69037488D01*
X104000756Y-68876547D01*
X103588279Y-68794500D01*
X103167721Y-68794500D01*
X102755244Y-68876547D01*
X102366698Y-69037488D01*
X102017017Y-69271137D01*
X101719637Y-69568517D01*
X101485988Y-69918198D01*
X101325047Y-70306744D01*
X101243000Y-70719221D01*
X101243000Y-71139779D01*
X101325047Y-71552256D01*
X101485988Y-71940802D01*
X101565499Y-72059799D01*
X101392747Y-72131356D01*
X101145431Y-72296607D01*
X100935107Y-72506931D01*
X100769856Y-72754247D01*
X100656029Y-73029049D01*
X100598000Y-73320778D01*
X66153000Y-73320778D01*
X66094971Y-73029049D01*
X65981144Y-72754247D01*
X65815893Y-72506931D01*
X65605569Y-72296607D01*
X65358253Y-72131356D01*
X65083451Y-72017529D01*
X64791722Y-71959500D01*
X64494278Y-71959500D01*
X64202549Y-72017529D01*
X63927747Y-72131356D01*
X63680431Y-72296607D01*
X63470107Y-72506931D01*
X63304856Y-72754247D01*
X63191029Y-73029049D01*
X63133000Y-73320778D01*
X62191900Y-73320778D01*
X62191900Y-73210576D01*
X62090873Y-72702678D01*
X61892701Y-72224249D01*
X61605000Y-71793674D01*
X61238826Y-71427500D01*
X60808251Y-71139799D01*
X60329822Y-70941627D01*
X59821924Y-70840600D01*
X59304076Y-70840600D01*
X58796178Y-70941627D01*
X58317749Y-71139799D01*
X57887174Y-71427500D01*
X57816763Y-71497911D01*
X57888000Y-71139779D01*
X57888000Y-70719221D01*
X57805953Y-70306744D01*
X57645012Y-69918198D01*
X57411363Y-69568517D01*
X57113983Y-69271137D01*
X56764302Y-69037488D01*
X56375756Y-68876547D01*
X55963279Y-68794500D01*
X55542721Y-68794500D01*
X55130244Y-68876547D01*
X54741698Y-69037488D01*
X54392017Y-69271137D01*
X54094637Y-69568517D01*
X53860988Y-69918198D01*
X53700047Y-70306744D01*
X53618000Y-70719221D01*
X53618000Y-71139779D01*
X53700047Y-71552256D01*
X53860988Y-71940802D01*
X53940499Y-72059799D01*
X53767747Y-72131356D01*
X53520431Y-72296607D01*
X53310107Y-72506931D01*
X53144856Y-72754247D01*
X53031029Y-73029049D01*
X52973000Y-73320778D01*
X43058947Y-73320778D01*
X43058947Y-73285229D01*
X42987048Y-72923766D01*
X42846012Y-72583275D01*
X42641260Y-72276842D01*
X42380659Y-72016241D01*
X42074226Y-71811489D01*
X41733735Y-71670453D01*
X41372272Y-71598554D01*
X41003728Y-71598554D01*
X40642265Y-71670453D01*
X40301774Y-71811489D01*
X39995341Y-72016241D01*
X39734740Y-72276842D01*
X39529988Y-72583275D01*
X39388952Y-72923766D01*
X39317053Y-73285229D01*
X38248001Y-73285229D01*
X38248001Y-66271857D01*
X45497750Y-66271857D01*
X45497750Y-66697143D01*
X45580720Y-67114257D01*
X45743469Y-67507170D01*
X45979746Y-67860782D01*
X46280468Y-68161504D01*
X46634080Y-68397781D01*
X47026993Y-68560530D01*
X47444107Y-68643500D01*
X47869393Y-68643500D01*
X48286507Y-68560530D01*
X48679420Y-68397781D01*
X49006516Y-68179221D01*
X59968000Y-68179221D01*
X59968000Y-68599779D01*
X60050047Y-69012256D01*
X60210988Y-69400802D01*
X60444637Y-69750483D01*
X60742017Y-70047863D01*
X61091698Y-70281512D01*
X61480244Y-70442453D01*
X61892721Y-70524500D01*
X62313279Y-70524500D01*
X62725756Y-70442453D01*
X63114302Y-70281512D01*
X63463983Y-70047863D01*
X63761363Y-69750483D01*
X63995012Y-69400802D01*
X64155953Y-69012256D01*
X64238000Y-68599779D01*
X64238000Y-68179221D01*
X64155953Y-67766744D01*
X63995012Y-67378198D01*
X63761363Y-67028517D01*
X63463983Y-66731137D01*
X63114302Y-66497488D01*
X62725756Y-66336547D01*
X62400539Y-66271857D01*
X69310250Y-66271857D01*
X69310250Y-66697143D01*
X69393220Y-67114257D01*
X69555969Y-67507170D01*
X69792246Y-67860782D01*
X70092968Y-68161504D01*
X70446580Y-68397781D01*
X70839493Y-68560530D01*
X71256607Y-68643500D01*
X71681893Y-68643500D01*
X72099007Y-68560530D01*
X72491920Y-68397781D01*
X72845532Y-68161504D01*
X73146254Y-67860782D01*
X73382531Y-67507170D01*
X73545280Y-67114257D01*
X73628250Y-66697143D01*
X73628250Y-66271858D01*
X85979000Y-66271858D01*
X85979000Y-66697144D01*
X86061970Y-67114258D01*
X86224719Y-67507171D01*
X86460996Y-67860783D01*
X86761718Y-68161505D01*
X87115330Y-68397782D01*
X87508243Y-68560531D01*
X87925357Y-68643501D01*
X88350643Y-68643501D01*
X88767757Y-68560531D01*
X89160670Y-68397782D01*
X89514282Y-68161505D01*
X89815004Y-67860783D01*
X90051281Y-67507171D01*
X90214030Y-67114258D01*
X90297000Y-66697144D01*
X90297000Y-66271857D01*
X93122750Y-66271857D01*
X93122750Y-66697143D01*
X93205720Y-67114257D01*
X93368469Y-67507170D01*
X93604746Y-67860782D01*
X93905468Y-68161504D01*
X94259080Y-68397781D01*
X94651993Y-68560530D01*
X95069107Y-68643500D01*
X95494393Y-68643500D01*
X95911507Y-68560530D01*
X96304420Y-68397781D01*
X96631516Y-68179221D01*
X107593000Y-68179221D01*
X107593000Y-68599779D01*
X107675047Y-69012256D01*
X107835988Y-69400802D01*
X108069637Y-69750483D01*
X108367017Y-70047863D01*
X108716698Y-70281512D01*
X109105244Y-70442453D01*
X109517721Y-70524500D01*
X109938279Y-70524500D01*
X110350756Y-70442453D01*
X110739302Y-70281512D01*
X111088983Y-70047863D01*
X111386363Y-69750483D01*
X111620012Y-69400802D01*
X111780953Y-69012256D01*
X111863000Y-68599779D01*
X111863000Y-68179221D01*
X111780953Y-67766744D01*
X111620012Y-67378198D01*
X111386363Y-67028517D01*
X111088983Y-66731137D01*
X110739302Y-66497488D01*
X110350756Y-66336547D01*
X110025539Y-66271857D01*
X116935250Y-66271857D01*
X116935250Y-66697143D01*
X117018220Y-67114257D01*
X117180969Y-67507170D01*
X117417246Y-67860782D01*
X117717968Y-68161504D01*
X118071580Y-68397781D01*
X118464493Y-68560530D01*
X118881607Y-68643500D01*
X119306893Y-68643500D01*
X119724007Y-68560530D01*
X120116920Y-68397781D01*
X120470532Y-68161504D01*
X120771254Y-67860782D01*
X121007531Y-67507170D01*
X121170280Y-67114257D01*
X121253250Y-66697143D01*
X121253250Y-66271858D01*
X124079000Y-66271858D01*
X124079000Y-66697144D01*
X124161970Y-67114258D01*
X124324719Y-67507171D01*
X124560996Y-67860783D01*
X124861718Y-68161505D01*
X125215330Y-68397782D01*
X125608243Y-68560531D01*
X126025357Y-68643501D01*
X126450643Y-68643501D01*
X126867757Y-68560531D01*
X127260670Y-68397782D01*
X127614282Y-68161505D01*
X127915004Y-67860783D01*
X128151281Y-67507171D01*
X128314030Y-67114258D01*
X128397000Y-66697144D01*
X128397000Y-66271857D01*
X140747750Y-66271857D01*
X140747750Y-66697143D01*
X140830720Y-67114257D01*
X140993469Y-67507170D01*
X141229746Y-67860782D01*
X141530468Y-68161504D01*
X141884080Y-68397781D01*
X142276993Y-68560530D01*
X142694107Y-68643500D01*
X143119393Y-68643500D01*
X143536507Y-68560530D01*
X143929420Y-68397781D01*
X144256516Y-68179221D01*
X155218000Y-68179221D01*
X155218000Y-68599779D01*
X155300047Y-69012256D01*
X155460988Y-69400802D01*
X155694637Y-69750483D01*
X155992017Y-70047863D01*
X156341698Y-70281512D01*
X156730244Y-70442453D01*
X157142721Y-70524500D01*
X157563279Y-70524500D01*
X157975756Y-70442453D01*
X158364302Y-70281512D01*
X158713983Y-70047863D01*
X159011363Y-69750483D01*
X159245012Y-69400802D01*
X159405953Y-69012256D01*
X159488000Y-68599779D01*
X159488000Y-68179221D01*
X159405953Y-67766744D01*
X159245012Y-67378198D01*
X159011363Y-67028517D01*
X158713983Y-66731137D01*
X158364302Y-66497488D01*
X157975756Y-66336547D01*
X157650539Y-66271857D01*
X164560250Y-66271857D01*
X164560250Y-66697143D01*
X164643220Y-67114257D01*
X164805969Y-67507170D01*
X165042246Y-67860782D01*
X165342968Y-68161504D01*
X165696580Y-68397781D01*
X166089493Y-68560530D01*
X166506607Y-68643500D01*
X166931893Y-68643500D01*
X167349007Y-68560530D01*
X167741920Y-68397781D01*
X168095532Y-68161504D01*
X168396254Y-67860782D01*
X168632531Y-67507170D01*
X168795280Y-67114257D01*
X168878250Y-66697143D01*
X168878250Y-66271857D01*
X168795280Y-65854743D01*
X168632531Y-65461830D01*
X168396254Y-65108218D01*
X168095532Y-64807496D01*
X167741920Y-64571219D01*
X167349007Y-64408470D01*
X166931893Y-64325500D01*
X166506607Y-64325500D01*
X166089493Y-64408470D01*
X165696580Y-64571219D01*
X165342968Y-64807496D01*
X165042246Y-65108218D01*
X164805969Y-65461830D01*
X164643220Y-65854743D01*
X164560250Y-66271857D01*
X157650539Y-66271857D01*
X157563279Y-66254500D01*
X157142721Y-66254500D01*
X156730244Y-66336547D01*
X156341698Y-66497488D01*
X155992017Y-66731137D01*
X155694637Y-67028517D01*
X155460988Y-67378198D01*
X155300047Y-67766744D01*
X155218000Y-68179221D01*
X144256516Y-68179221D01*
X144283032Y-68161504D01*
X144583754Y-67860782D01*
X144820031Y-67507170D01*
X144982780Y-67114257D01*
X145065750Y-66697143D01*
X145065750Y-66271857D01*
X144982780Y-65854743D01*
X144820031Y-65461830D01*
X144583754Y-65108218D01*
X144283032Y-64807496D01*
X143929420Y-64571219D01*
X143536507Y-64408470D01*
X143119393Y-64325500D01*
X142694107Y-64325500D01*
X142276993Y-64408470D01*
X141884080Y-64571219D01*
X141530468Y-64807496D01*
X141229746Y-65108218D01*
X140993469Y-65461830D01*
X140830720Y-65854743D01*
X140747750Y-66271857D01*
X128397000Y-66271857D01*
X128314030Y-65854744D01*
X128151281Y-65461831D01*
X127915004Y-65108219D01*
X127614282Y-64807497D01*
X127260670Y-64571220D01*
X126867757Y-64408471D01*
X126450643Y-64325501D01*
X126025357Y-64325501D01*
X125608243Y-64408471D01*
X125215330Y-64571220D01*
X124861718Y-64807497D01*
X124560996Y-65108219D01*
X124324719Y-65461831D01*
X124161970Y-65854744D01*
X124079000Y-66271858D01*
X121253250Y-66271858D01*
X121253250Y-66271857D01*
X121170280Y-65854743D01*
X121007531Y-65461830D01*
X120771254Y-65108218D01*
X120470532Y-64807496D01*
X120116920Y-64571219D01*
X119724007Y-64408470D01*
X119306893Y-64325500D01*
X118881607Y-64325500D01*
X118464493Y-64408470D01*
X118071580Y-64571219D01*
X117717968Y-64807496D01*
X117417246Y-65108218D01*
X117180969Y-65461830D01*
X117018220Y-65854743D01*
X116935250Y-66271857D01*
X110025539Y-66271857D01*
X109938279Y-66254500D01*
X109517721Y-66254500D01*
X109105244Y-66336547D01*
X108716698Y-66497488D01*
X108367017Y-66731137D01*
X108069637Y-67028517D01*
X107835988Y-67378198D01*
X107675047Y-67766744D01*
X107593000Y-68179221D01*
X96631516Y-68179221D01*
X96658032Y-68161504D01*
X96958754Y-67860782D01*
X97195031Y-67507170D01*
X97357780Y-67114257D01*
X97440750Y-66697143D01*
X97440750Y-66271857D01*
X97357780Y-65854743D01*
X97195031Y-65461830D01*
X96958754Y-65108218D01*
X96658032Y-64807496D01*
X96304420Y-64571219D01*
X95911507Y-64408470D01*
X95494393Y-64325500D01*
X95069107Y-64325500D01*
X94651993Y-64408470D01*
X94259080Y-64571219D01*
X93905468Y-64807496D01*
X93604746Y-65108218D01*
X93368469Y-65461830D01*
X93205720Y-65854743D01*
X93122750Y-66271857D01*
X90297000Y-66271857D01*
X90214030Y-65854744D01*
X90051281Y-65461831D01*
X89815004Y-65108219D01*
X89514282Y-64807497D01*
X89160670Y-64571220D01*
X88767757Y-64408471D01*
X88350643Y-64325501D01*
X87925357Y-64325501D01*
X87508243Y-64408471D01*
X87115330Y-64571220D01*
X86761718Y-64807497D01*
X86460996Y-65108219D01*
X86224719Y-65461831D01*
X86061970Y-65854744D01*
X85979000Y-66271858D01*
X73628250Y-66271858D01*
X73628250Y-66271857D01*
X73545280Y-65854743D01*
X73382531Y-65461830D01*
X73146254Y-65108218D01*
X72845532Y-64807496D01*
X72491920Y-64571219D01*
X72099007Y-64408470D01*
X71681893Y-64325500D01*
X71256607Y-64325500D01*
X70839493Y-64408470D01*
X70446580Y-64571219D01*
X70092968Y-64807496D01*
X69792246Y-65108218D01*
X69555969Y-65461830D01*
X69393220Y-65854743D01*
X69310250Y-66271857D01*
X62400539Y-66271857D01*
X62313279Y-66254500D01*
X61892721Y-66254500D01*
X61480244Y-66336547D01*
X61091698Y-66497488D01*
X60742017Y-66731137D01*
X60444637Y-67028517D01*
X60210988Y-67378198D01*
X60050047Y-67766744D01*
X59968000Y-68179221D01*
X49006516Y-68179221D01*
X49033032Y-68161504D01*
X49333754Y-67860782D01*
X49570031Y-67507170D01*
X49732780Y-67114257D01*
X49815750Y-66697143D01*
X49815750Y-66271857D01*
X49732780Y-65854743D01*
X49570031Y-65461830D01*
X49333754Y-65108218D01*
X49033032Y-64807496D01*
X48679420Y-64571219D01*
X48286507Y-64408470D01*
X47869393Y-64325500D01*
X47444107Y-64325500D01*
X47026993Y-64408470D01*
X46634080Y-64571219D01*
X46280468Y-64807496D01*
X45979746Y-65108218D01*
X45743469Y-65461830D01*
X45580720Y-65854743D01*
X45497750Y-66271857D01*
X38248001Y-66271857D01*
X38248001Y-61285229D01*
X105317053Y-61285229D01*
X105317053Y-61653773D01*
X105388952Y-62015236D01*
X105529988Y-62355727D01*
X105734740Y-62662160D01*
X105995341Y-62922761D01*
X106301774Y-63127513D01*
X106642265Y-63268549D01*
X107003728Y-63340448D01*
X107372272Y-63340448D01*
X107733735Y-63268549D01*
X108074226Y-63127513D01*
X108380659Y-62922761D01*
X108641260Y-62662160D01*
X108846012Y-62355727D01*
X108987048Y-62015236D01*
X109058947Y-61653773D01*
X109058947Y-61285229D01*
X108987048Y-60923766D01*
X108846012Y-60583275D01*
X108641260Y-60276842D01*
X108380659Y-60016241D01*
X108074226Y-59811489D01*
X107733735Y-59670453D01*
X107372272Y-59598554D01*
X107003728Y-59598554D01*
X106642265Y-59670453D01*
X106301774Y-59811489D01*
X105995341Y-60016241D01*
X105734740Y-60276842D01*
X105529988Y-60583275D01*
X105388952Y-60923766D01*
X105317053Y-61285229D01*
X38248001Y-61285229D01*
X38248001Y-57653076D01*
X45027850Y-57653076D01*
X45027850Y-58170924D01*
X45128877Y-58678822D01*
X45327049Y-59157251D01*
X45614750Y-59587826D01*
X45980924Y-59954000D01*
X46411499Y-60241701D01*
X46889928Y-60439873D01*
X47397826Y-60540900D01*
X47915674Y-60540900D01*
X48423572Y-60439873D01*
X48902001Y-60241701D01*
X49332576Y-59954000D01*
X49698750Y-59587826D01*
X49986451Y-59157251D01*
X50184623Y-58678822D01*
X50285650Y-58170924D01*
X50285650Y-57653076D01*
X68840350Y-57653076D01*
X68840350Y-58170924D01*
X68941377Y-58678822D01*
X69139549Y-59157251D01*
X69427250Y-59587826D01*
X69793424Y-59954000D01*
X70223999Y-60241701D01*
X70702428Y-60439873D01*
X71210326Y-60540900D01*
X71728174Y-60540900D01*
X72236072Y-60439873D01*
X72714501Y-60241701D01*
X73145076Y-59954000D01*
X73511250Y-59587826D01*
X73798951Y-59157251D01*
X73997123Y-58678822D01*
X74098150Y-58170924D01*
X74098150Y-57653076D01*
X85509100Y-57653076D01*
X85509100Y-58170924D01*
X85610127Y-58678822D01*
X85808299Y-59157251D01*
X86096000Y-59587826D01*
X86462174Y-59954000D01*
X86892749Y-60241701D01*
X87371178Y-60439873D01*
X87879076Y-60540900D01*
X88396924Y-60540900D01*
X88904822Y-60439873D01*
X89383251Y-60241701D01*
X89813826Y-59954000D01*
X90180000Y-59587826D01*
X90467701Y-59157251D01*
X90665873Y-58678822D01*
X90766900Y-58170924D01*
X90766900Y-57653076D01*
X92652850Y-57653076D01*
X92652850Y-58170924D01*
X92753877Y-58678822D01*
X92952049Y-59157251D01*
X93239750Y-59587826D01*
X93605924Y-59954000D01*
X94036499Y-60241701D01*
X94514928Y-60439873D01*
X95022826Y-60540900D01*
X95540674Y-60540900D01*
X96048572Y-60439873D01*
X96527001Y-60241701D01*
X96957576Y-59954000D01*
X97323750Y-59587826D01*
X97611451Y-59157251D01*
X97809623Y-58678822D01*
X97910650Y-58170924D01*
X97910650Y-57653076D01*
X116465350Y-57653076D01*
X116465350Y-58170924D01*
X116566377Y-58678822D01*
X116764549Y-59157251D01*
X117052250Y-59587826D01*
X117418424Y-59954000D01*
X117848999Y-60241701D01*
X118327428Y-60439873D01*
X118835326Y-60540900D01*
X119353174Y-60540900D01*
X119861072Y-60439873D01*
X120339501Y-60241701D01*
X120770076Y-59954000D01*
X121136250Y-59587826D01*
X121423951Y-59157251D01*
X121622123Y-58678822D01*
X121723150Y-58170924D01*
X121723150Y-57653076D01*
X123609100Y-57653076D01*
X123609100Y-58170924D01*
X123710127Y-58678822D01*
X123908299Y-59157251D01*
X124196000Y-59587826D01*
X124562174Y-59954000D01*
X124992749Y-60241701D01*
X125471178Y-60439873D01*
X125979076Y-60540900D01*
X126496924Y-60540900D01*
X127004822Y-60439873D01*
X127483251Y-60241701D01*
X127913826Y-59954000D01*
X128280000Y-59587826D01*
X128567701Y-59157251D01*
X128765873Y-58678822D01*
X128866900Y-58170924D01*
X128866900Y-57653076D01*
X140277850Y-57653076D01*
X140277850Y-58170924D01*
X140378877Y-58678822D01*
X140577049Y-59157251D01*
X140864750Y-59587826D01*
X141230924Y-59954000D01*
X141661499Y-60241701D01*
X142139928Y-60439873D01*
X142647826Y-60540900D01*
X143165674Y-60540900D01*
X143673572Y-60439873D01*
X144152001Y-60241701D01*
X144582576Y-59954000D01*
X144948750Y-59587826D01*
X145236451Y-59157251D01*
X145434623Y-58678822D01*
X145535650Y-58170924D01*
X145535650Y-57653076D01*
X164090350Y-57653076D01*
X164090350Y-58170924D01*
X164191377Y-58678822D01*
X164389549Y-59157251D01*
X164677250Y-59587826D01*
X165043424Y-59954000D01*
X165473999Y-60241701D01*
X165952428Y-60439873D01*
X166460326Y-60540900D01*
X166978174Y-60540900D01*
X167486072Y-60439873D01*
X167964501Y-60241701D01*
X168395076Y-59954000D01*
X168761250Y-59587826D01*
X169048951Y-59157251D01*
X169247123Y-58678822D01*
X169348150Y-58170924D01*
X169348150Y-57653076D01*
X169247123Y-57145178D01*
X169048951Y-56666749D01*
X168761250Y-56236174D01*
X168395076Y-55870000D01*
X167964501Y-55582299D01*
X167486072Y-55384127D01*
X166978174Y-55283100D01*
X166460326Y-55283100D01*
X165952428Y-55384127D01*
X165473999Y-55582299D01*
X165043424Y-55870000D01*
X164677250Y-56236174D01*
X164389549Y-56666749D01*
X164191377Y-57145178D01*
X164090350Y-57653076D01*
X145535650Y-57653076D01*
X145434623Y-57145178D01*
X145236451Y-56666749D01*
X144948750Y-56236174D01*
X144582576Y-55870000D01*
X144152001Y-55582299D01*
X143673572Y-55384127D01*
X143165674Y-55283100D01*
X142647826Y-55283100D01*
X142139928Y-55384127D01*
X141661499Y-55582299D01*
X141230924Y-55870000D01*
X140864750Y-56236174D01*
X140577049Y-56666749D01*
X140378877Y-57145178D01*
X140277850Y-57653076D01*
X128866900Y-57653076D01*
X128765873Y-57145178D01*
X128567701Y-56666749D01*
X128280000Y-56236174D01*
X127913826Y-55870000D01*
X127483251Y-55582299D01*
X127004822Y-55384127D01*
X126496924Y-55283100D01*
X125979076Y-55283100D01*
X125471178Y-55384127D01*
X124992749Y-55582299D01*
X124562174Y-55870000D01*
X124196000Y-56236174D01*
X123908299Y-56666749D01*
X123710127Y-57145178D01*
X123609100Y-57653076D01*
X121723150Y-57653076D01*
X121622123Y-57145178D01*
X121423951Y-56666749D01*
X121136250Y-56236174D01*
X120770076Y-55870000D01*
X120339501Y-55582299D01*
X119861072Y-55384127D01*
X119353174Y-55283100D01*
X118835326Y-55283100D01*
X118327428Y-55384127D01*
X117848999Y-55582299D01*
X117418424Y-55870000D01*
X117052250Y-56236174D01*
X116764549Y-56666749D01*
X116566377Y-57145178D01*
X116465350Y-57653076D01*
X97910650Y-57653076D01*
X97809623Y-57145178D01*
X97611451Y-56666749D01*
X97323750Y-56236174D01*
X96957576Y-55870000D01*
X96527001Y-55582299D01*
X96048572Y-55384127D01*
X95540674Y-55283100D01*
X95022826Y-55283100D01*
X94514928Y-55384127D01*
X94036499Y-55582299D01*
X93605924Y-55870000D01*
X93239750Y-56236174D01*
X92952049Y-56666749D01*
X92753877Y-57145178D01*
X92652850Y-57653076D01*
X90766900Y-57653076D01*
X90665873Y-57145178D01*
X90467701Y-56666749D01*
X90180000Y-56236174D01*
X89813826Y-55870000D01*
X89383251Y-55582299D01*
X88904822Y-55384127D01*
X88396924Y-55283100D01*
X87879076Y-55283100D01*
X87371178Y-55384127D01*
X86892749Y-55582299D01*
X86462174Y-55870000D01*
X86096000Y-56236174D01*
X85808299Y-56666749D01*
X85610127Y-57145178D01*
X85509100Y-57653076D01*
X74098150Y-57653076D01*
X73997123Y-57145178D01*
X73798951Y-56666749D01*
X73511250Y-56236174D01*
X73145076Y-55870000D01*
X72714501Y-55582299D01*
X72236072Y-55384127D01*
X71728174Y-55283100D01*
X71210326Y-55283100D01*
X70702428Y-55384127D01*
X70223999Y-55582299D01*
X69793424Y-55870000D01*
X69427250Y-56236174D01*
X69139549Y-56666749D01*
X68941377Y-57145178D01*
X68840350Y-57653076D01*
X50285650Y-57653076D01*
X50184623Y-57145178D01*
X49986451Y-56666749D01*
X49698750Y-56236174D01*
X49332576Y-55870000D01*
X48902001Y-55582299D01*
X48423572Y-55384127D01*
X47915674Y-55283100D01*
X47397826Y-55283100D01*
X46889928Y-55384127D01*
X46411499Y-55582299D01*
X45980924Y-55870000D01*
X45614750Y-56236174D01*
X45327049Y-56666749D01*
X45128877Y-57145178D01*
X45027850Y-57653076D01*
X38248001Y-57653076D01*
X38248001Y-49508278D01*
X52973000Y-49508278D01*
X52973000Y-49805722D01*
X53031029Y-50097451D01*
X53144856Y-50372253D01*
X53310107Y-50619569D01*
X53520431Y-50829893D01*
X53767747Y-50995144D01*
X54042549Y-51108971D01*
X54334278Y-51167000D01*
X54631722Y-51167000D01*
X54923451Y-51108971D01*
X55198253Y-50995144D01*
X55445569Y-50829893D01*
X55655893Y-50619569D01*
X55821144Y-50372253D01*
X55934971Y-50097451D01*
X55993000Y-49805722D01*
X55993000Y-49508278D01*
X55942023Y-49252000D01*
X55963279Y-49252000D01*
X56375756Y-49169953D01*
X56764302Y-49009012D01*
X57070708Y-48804279D01*
X57035127Y-48890178D01*
X56934100Y-49398076D01*
X56934100Y-49915924D01*
X57035127Y-50423822D01*
X57233299Y-50902251D01*
X57521000Y-51332826D01*
X57887174Y-51699000D01*
X58317749Y-51986701D01*
X58796178Y-52184873D01*
X59304076Y-52285900D01*
X59821924Y-52285900D01*
X60329822Y-52184873D01*
X60808251Y-51986701D01*
X61238826Y-51699000D01*
X61605000Y-51332826D01*
X61892701Y-50902251D01*
X62090873Y-50423822D01*
X62191900Y-49915924D01*
X62191900Y-49508278D01*
X63133000Y-49508278D01*
X63133000Y-49805722D01*
X63191029Y-50097451D01*
X63304856Y-50372253D01*
X63470107Y-50619569D01*
X63680431Y-50829893D01*
X63927747Y-50995144D01*
X64202549Y-51108971D01*
X64494278Y-51167000D01*
X64791722Y-51167000D01*
X65083451Y-51108971D01*
X65358253Y-50995144D01*
X65605569Y-50829893D01*
X65815893Y-50619569D01*
X65981144Y-50372253D01*
X66094971Y-50097451D01*
X66153000Y-49805722D01*
X66153000Y-49508278D01*
X100598000Y-49508278D01*
X100598000Y-49805722D01*
X100656029Y-50097451D01*
X100769856Y-50372253D01*
X100935107Y-50619569D01*
X101145431Y-50829893D01*
X101392747Y-50995144D01*
X101667549Y-51108971D01*
X101959278Y-51167000D01*
X102256722Y-51167000D01*
X102548451Y-51108971D01*
X102823253Y-50995144D01*
X103070569Y-50829893D01*
X103280893Y-50619569D01*
X103446144Y-50372253D01*
X103559971Y-50097451D01*
X103618000Y-49805722D01*
X103618000Y-49508278D01*
X103567023Y-49252000D01*
X103588279Y-49252000D01*
X104000756Y-49169953D01*
X104389302Y-49009012D01*
X104695708Y-48804279D01*
X104660127Y-48890178D01*
X104559100Y-49398076D01*
X104559100Y-49915924D01*
X104660127Y-50423822D01*
X104858299Y-50902251D01*
X105146000Y-51332826D01*
X105512174Y-51699000D01*
X105942749Y-51986701D01*
X106421178Y-52184873D01*
X106929076Y-52285900D01*
X107446924Y-52285900D01*
X107954822Y-52184873D01*
X108433251Y-51986701D01*
X108863826Y-51699000D01*
X109230000Y-51332826D01*
X109517701Y-50902251D01*
X109715873Y-50423822D01*
X109816900Y-49915924D01*
X109816900Y-49508278D01*
X110758000Y-49508278D01*
X110758000Y-49805722D01*
X110816029Y-50097451D01*
X110929856Y-50372253D01*
X111095107Y-50619569D01*
X111305431Y-50829893D01*
X111552747Y-50995144D01*
X111827549Y-51108971D01*
X112119278Y-51167000D01*
X112416722Y-51167000D01*
X112708451Y-51108971D01*
X112983253Y-50995144D01*
X113230569Y-50829893D01*
X113440893Y-50619569D01*
X113606144Y-50372253D01*
X113719971Y-50097451D01*
X113778000Y-49805722D01*
X113778000Y-49508278D01*
X148223000Y-49508278D01*
X148223000Y-49805722D01*
X148281029Y-50097451D01*
X148394856Y-50372253D01*
X148560107Y-50619569D01*
X148770431Y-50829893D01*
X149017747Y-50995144D01*
X149292549Y-51108971D01*
X149584278Y-51167000D01*
X149881722Y-51167000D01*
X150173451Y-51108971D01*
X150448253Y-50995144D01*
X150695569Y-50829893D01*
X150905893Y-50619569D01*
X151071144Y-50372253D01*
X151184971Y-50097451D01*
X151243000Y-49805722D01*
X151243000Y-49508278D01*
X151192023Y-49252000D01*
X151213279Y-49252000D01*
X151625756Y-49169953D01*
X152014302Y-49009012D01*
X152320708Y-48804279D01*
X152285127Y-48890178D01*
X152184100Y-49398076D01*
X152184100Y-49915924D01*
X152285127Y-50423822D01*
X152483299Y-50902251D01*
X152771000Y-51332826D01*
X153137174Y-51699000D01*
X153567749Y-51986701D01*
X154046178Y-52184873D01*
X154554076Y-52285900D01*
X155071924Y-52285900D01*
X155579822Y-52184873D01*
X156058251Y-51986701D01*
X156488826Y-51699000D01*
X156855000Y-51332826D01*
X157142701Y-50902251D01*
X157340873Y-50423822D01*
X157441900Y-49915924D01*
X157441900Y-49508278D01*
X158383000Y-49508278D01*
X158383000Y-49805722D01*
X158441029Y-50097451D01*
X158554856Y-50372253D01*
X158720107Y-50619569D01*
X158930431Y-50829893D01*
X159177747Y-50995144D01*
X159452549Y-51108971D01*
X159744278Y-51167000D01*
X160041722Y-51167000D01*
X160333451Y-51108971D01*
X160608253Y-50995144D01*
X160855569Y-50829893D01*
X161065893Y-50619569D01*
X161231144Y-50372253D01*
X161344971Y-50097451D01*
X161403000Y-49805722D01*
X161403000Y-49508278D01*
X161344971Y-49216549D01*
X161231144Y-48941747D01*
X161065893Y-48694431D01*
X160855569Y-48484107D01*
X160608253Y-48318856D01*
X160333451Y-48205029D01*
X160041722Y-48147000D01*
X159744278Y-48147000D01*
X159452549Y-48205029D01*
X159177747Y-48318856D01*
X158930431Y-48484107D01*
X158720107Y-48694431D01*
X158554856Y-48941747D01*
X158441029Y-49216549D01*
X158383000Y-49508278D01*
X157441900Y-49508278D01*
X157441900Y-49398076D01*
X157340873Y-48890178D01*
X157142701Y-48411749D01*
X156855000Y-47981174D01*
X156488826Y-47615000D01*
X156058251Y-47327299D01*
X155579822Y-47129127D01*
X155071924Y-47028100D01*
X154554076Y-47028100D01*
X154046178Y-47129127D01*
X153567749Y-47327299D01*
X153137174Y-47615000D01*
X153066763Y-47685411D01*
X153138000Y-47327279D01*
X153138000Y-46906721D01*
X153055953Y-46494244D01*
X152895012Y-46105698D01*
X152661363Y-45756017D01*
X152363983Y-45458637D01*
X152014302Y-45224988D01*
X151625756Y-45064047D01*
X151213279Y-44982000D01*
X150792721Y-44982000D01*
X150380244Y-45064047D01*
X149991698Y-45224988D01*
X149642017Y-45458637D01*
X149344637Y-45756017D01*
X149110988Y-46105698D01*
X148950047Y-46494244D01*
X148868000Y-46906721D01*
X148868000Y-47327279D01*
X148950047Y-47739756D01*
X149110988Y-48128302D01*
X149190499Y-48247299D01*
X149017747Y-48318856D01*
X148770431Y-48484107D01*
X148560107Y-48694431D01*
X148394856Y-48941747D01*
X148281029Y-49216549D01*
X148223000Y-49508278D01*
X113778000Y-49508278D01*
X113719971Y-49216549D01*
X113606144Y-48941747D01*
X113440893Y-48694431D01*
X113230569Y-48484107D01*
X112983253Y-48318856D01*
X112708451Y-48205029D01*
X112416722Y-48147000D01*
X112119278Y-48147000D01*
X111827549Y-48205029D01*
X111552747Y-48318856D01*
X111305431Y-48484107D01*
X111095107Y-48694431D01*
X110929856Y-48941747D01*
X110816029Y-49216549D01*
X110758000Y-49508278D01*
X109816900Y-49508278D01*
X109816900Y-49398076D01*
X109715873Y-48890178D01*
X109517701Y-48411749D01*
X109230000Y-47981174D01*
X108863826Y-47615000D01*
X108433251Y-47327299D01*
X107954822Y-47129127D01*
X107446924Y-47028100D01*
X106929076Y-47028100D01*
X106421178Y-47129127D01*
X105942749Y-47327299D01*
X105512174Y-47615000D01*
X105441763Y-47685411D01*
X105513000Y-47327279D01*
X105513000Y-46906721D01*
X105430953Y-46494244D01*
X105270012Y-46105698D01*
X105036363Y-45756017D01*
X104738983Y-45458637D01*
X104389302Y-45224988D01*
X104000756Y-45064047D01*
X103588279Y-44982000D01*
X103167721Y-44982000D01*
X102755244Y-45064047D01*
X102366698Y-45224988D01*
X102017017Y-45458637D01*
X101719637Y-45756017D01*
X101485988Y-46105698D01*
X101325047Y-46494244D01*
X101243000Y-46906721D01*
X101243000Y-47327279D01*
X101325047Y-47739756D01*
X101485988Y-48128302D01*
X101565499Y-48247299D01*
X101392747Y-48318856D01*
X101145431Y-48484107D01*
X100935107Y-48694431D01*
X100769856Y-48941747D01*
X100656029Y-49216549D01*
X100598000Y-49508278D01*
X66153000Y-49508278D01*
X66094971Y-49216549D01*
X65981144Y-48941747D01*
X65815893Y-48694431D01*
X65605569Y-48484107D01*
X65358253Y-48318856D01*
X65083451Y-48205029D01*
X64791722Y-48147000D01*
X64494278Y-48147000D01*
X64202549Y-48205029D01*
X63927747Y-48318856D01*
X63680431Y-48484107D01*
X63470107Y-48694431D01*
X63304856Y-48941747D01*
X63191029Y-49216549D01*
X63133000Y-49508278D01*
X62191900Y-49508278D01*
X62191900Y-49398076D01*
X62090873Y-48890178D01*
X61892701Y-48411749D01*
X61605000Y-47981174D01*
X61238826Y-47615000D01*
X60808251Y-47327299D01*
X60329822Y-47129127D01*
X59821924Y-47028100D01*
X59304076Y-47028100D01*
X58796178Y-47129127D01*
X58317749Y-47327299D01*
X57887174Y-47615000D01*
X57816763Y-47685411D01*
X57888000Y-47327279D01*
X57888000Y-46906721D01*
X57805953Y-46494244D01*
X57645012Y-46105698D01*
X57411363Y-45756017D01*
X57113983Y-45458637D01*
X56764302Y-45224988D01*
X56375756Y-45064047D01*
X55963279Y-44982000D01*
X55542721Y-44982000D01*
X55130244Y-45064047D01*
X54741698Y-45224988D01*
X54392017Y-45458637D01*
X54094637Y-45756017D01*
X53860988Y-46105698D01*
X53700047Y-46494244D01*
X53618000Y-46906721D01*
X53618000Y-47327279D01*
X53700047Y-47739756D01*
X53860988Y-48128302D01*
X53940499Y-48247299D01*
X53767747Y-48318856D01*
X53520431Y-48484107D01*
X53310107Y-48694431D01*
X53144856Y-48941747D01*
X53031029Y-49216549D01*
X52973000Y-49508278D01*
X38248001Y-49508278D01*
X38248000Y-40869315D01*
X38845905Y-40869315D01*
X38845905Y-41394687D01*
X38948400Y-41909964D01*
X39149451Y-42395344D01*
X39441332Y-42832175D01*
X39812826Y-43203669D01*
X40249657Y-43495550D01*
X40735037Y-43696601D01*
X41250314Y-43799096D01*
X41775686Y-43799096D01*
X42290963Y-43696601D01*
X42776343Y-43495550D01*
X43213174Y-43203669D01*
X43584668Y-42832175D01*
X43833776Y-42459357D01*
X45497750Y-42459357D01*
X45497750Y-42884643D01*
X45580720Y-43301757D01*
X45743469Y-43694670D01*
X45979746Y-44048282D01*
X46280468Y-44349004D01*
X46634080Y-44585281D01*
X47026993Y-44748030D01*
X47444107Y-44831000D01*
X47869393Y-44831000D01*
X48286507Y-44748030D01*
X48679420Y-44585281D01*
X49006516Y-44366721D01*
X59968000Y-44366721D01*
X59968000Y-44787279D01*
X60050047Y-45199756D01*
X60210988Y-45588302D01*
X60444637Y-45937983D01*
X60742017Y-46235363D01*
X61091698Y-46469012D01*
X61480244Y-46629953D01*
X61892721Y-46712000D01*
X62313279Y-46712000D01*
X62725756Y-46629953D01*
X63114302Y-46469012D01*
X63463983Y-46235363D01*
X63761363Y-45937983D01*
X63995012Y-45588302D01*
X64155953Y-45199756D01*
X64238000Y-44787279D01*
X64238000Y-44366721D01*
X64155953Y-43954244D01*
X63995012Y-43565698D01*
X63761363Y-43216017D01*
X63463983Y-42918637D01*
X63114302Y-42684988D01*
X62725756Y-42524047D01*
X62400539Y-42459357D01*
X69310250Y-42459357D01*
X69310250Y-42884643D01*
X69393220Y-43301757D01*
X69555969Y-43694670D01*
X69792246Y-44048282D01*
X70092968Y-44349004D01*
X70446580Y-44585281D01*
X70839493Y-44748030D01*
X71256607Y-44831000D01*
X71681893Y-44831000D01*
X72099007Y-44748030D01*
X72491920Y-44585281D01*
X72845532Y-44349004D01*
X73146254Y-44048282D01*
X73382531Y-43694670D01*
X73545280Y-43301757D01*
X73628250Y-42884643D01*
X73628250Y-42459357D01*
X85979000Y-42459357D01*
X85979000Y-42884643D01*
X86061970Y-43301757D01*
X86224719Y-43694670D01*
X86460996Y-44048282D01*
X86761718Y-44349004D01*
X87115330Y-44585281D01*
X87508243Y-44748030D01*
X87925357Y-44831000D01*
X88350643Y-44831000D01*
X88767757Y-44748030D01*
X89160670Y-44585281D01*
X89514282Y-44349004D01*
X89815004Y-44048282D01*
X90051281Y-43694670D01*
X90214030Y-43301757D01*
X90297000Y-42884643D01*
X90297000Y-42459357D01*
X93122750Y-42459357D01*
X93122750Y-42884643D01*
X93205720Y-43301757D01*
X93368469Y-43694670D01*
X93604746Y-44048282D01*
X93905468Y-44349004D01*
X94259080Y-44585281D01*
X94651993Y-44748030D01*
X95069107Y-44831000D01*
X95494393Y-44831000D01*
X95911507Y-44748030D01*
X96304420Y-44585281D01*
X96631516Y-44366721D01*
X107593000Y-44366721D01*
X107593000Y-44787279D01*
X107675047Y-45199756D01*
X107835988Y-45588302D01*
X108069637Y-45937983D01*
X108367017Y-46235363D01*
X108716698Y-46469012D01*
X109105244Y-46629953D01*
X109517721Y-46712000D01*
X109938279Y-46712000D01*
X110350756Y-46629953D01*
X110739302Y-46469012D01*
X111088983Y-46235363D01*
X111386363Y-45937983D01*
X111620012Y-45588302D01*
X111780953Y-45199756D01*
X111863000Y-44787279D01*
X111863000Y-44366721D01*
X111780953Y-43954244D01*
X111620012Y-43565698D01*
X111386363Y-43216017D01*
X111088983Y-42918637D01*
X110739302Y-42684988D01*
X110350756Y-42524047D01*
X110025539Y-42459357D01*
X116935250Y-42459357D01*
X116935250Y-42884643D01*
X117018220Y-43301757D01*
X117180969Y-43694670D01*
X117417246Y-44048282D01*
X117717968Y-44349004D01*
X118071580Y-44585281D01*
X118464493Y-44748030D01*
X118881607Y-44831000D01*
X119306893Y-44831000D01*
X119724007Y-44748030D01*
X120116920Y-44585281D01*
X120470532Y-44349004D01*
X120771254Y-44048282D01*
X121007531Y-43694670D01*
X121170280Y-43301757D01*
X121253250Y-42884643D01*
X121253250Y-42459357D01*
X124079000Y-42459357D01*
X124079000Y-42884643D01*
X124161970Y-43301757D01*
X124324719Y-43694670D01*
X124560996Y-44048282D01*
X124861718Y-44349004D01*
X125215330Y-44585281D01*
X125608243Y-44748030D01*
X126025357Y-44831000D01*
X126450643Y-44831000D01*
X126867757Y-44748030D01*
X127260670Y-44585281D01*
X127614282Y-44349004D01*
X127915004Y-44048282D01*
X128151281Y-43694670D01*
X128314030Y-43301757D01*
X128397000Y-42884643D01*
X128397000Y-42459357D01*
X140747750Y-42459357D01*
X140747750Y-42884643D01*
X140830720Y-43301757D01*
X140993469Y-43694670D01*
X141229746Y-44048282D01*
X141530468Y-44349004D01*
X141884080Y-44585281D01*
X142276993Y-44748030D01*
X142694107Y-44831000D01*
X143119393Y-44831000D01*
X143536507Y-44748030D01*
X143929420Y-44585281D01*
X144256516Y-44366721D01*
X155218000Y-44366721D01*
X155218000Y-44787279D01*
X155300047Y-45199756D01*
X155460988Y-45588302D01*
X155694637Y-45937983D01*
X155992017Y-46235363D01*
X156341698Y-46469012D01*
X156730244Y-46629953D01*
X157142721Y-46712000D01*
X157563279Y-46712000D01*
X157975756Y-46629953D01*
X158364302Y-46469012D01*
X158713983Y-46235363D01*
X159011363Y-45937983D01*
X159245012Y-45588302D01*
X159405953Y-45199756D01*
X159488000Y-44787279D01*
X159488000Y-44366721D01*
X159405953Y-43954244D01*
X159245012Y-43565698D01*
X159011363Y-43216017D01*
X158713983Y-42918637D01*
X158364302Y-42684988D01*
X157975756Y-42524047D01*
X157650539Y-42459357D01*
X164560250Y-42459357D01*
X164560250Y-42884643D01*
X164643220Y-43301757D01*
X164805969Y-43694670D01*
X165042246Y-44048282D01*
X165342968Y-44349004D01*
X165696580Y-44585281D01*
X166089493Y-44748030D01*
X166506607Y-44831000D01*
X166931893Y-44831000D01*
X167349007Y-44748030D01*
X167741920Y-44585281D01*
X168095532Y-44349004D01*
X168396254Y-44048282D01*
X168632531Y-43694670D01*
X168795280Y-43301757D01*
X168878250Y-42884643D01*
X168878250Y-42459357D01*
X168795280Y-42042243D01*
X168632531Y-41649330D01*
X168396254Y-41295718D01*
X168095532Y-40994996D01*
X167907438Y-40869315D01*
X170195905Y-40869315D01*
X170195905Y-41394687D01*
X170298400Y-41909964D01*
X170499451Y-42395344D01*
X170791332Y-42832175D01*
X171162826Y-43203669D01*
X171599657Y-43495550D01*
X172085037Y-43696601D01*
X172600314Y-43799096D01*
X173125686Y-43799096D01*
X173640963Y-43696601D01*
X174126343Y-43495550D01*
X174563174Y-43203669D01*
X174934668Y-42832175D01*
X175226549Y-42395344D01*
X175427600Y-41909964D01*
X175530095Y-41394687D01*
X175530095Y-40869315D01*
X175427600Y-40354038D01*
X175226549Y-39868658D01*
X174934668Y-39431827D01*
X174563174Y-39060333D01*
X174126343Y-38768452D01*
X173640963Y-38567401D01*
X173125686Y-38464906D01*
X172600314Y-38464906D01*
X172085037Y-38567401D01*
X171599657Y-38768452D01*
X171162826Y-39060333D01*
X170791332Y-39431827D01*
X170499451Y-39868658D01*
X170298400Y-40354038D01*
X170195905Y-40869315D01*
X167907438Y-40869315D01*
X167741920Y-40758719D01*
X167349007Y-40595970D01*
X166931893Y-40513000D01*
X166506607Y-40513000D01*
X166089493Y-40595970D01*
X165696580Y-40758719D01*
X165342968Y-40994996D01*
X165042246Y-41295718D01*
X164805969Y-41649330D01*
X164643220Y-42042243D01*
X164560250Y-42459357D01*
X157650539Y-42459357D01*
X157563279Y-42442000D01*
X157142721Y-42442000D01*
X156730244Y-42524047D01*
X156341698Y-42684988D01*
X155992017Y-42918637D01*
X155694637Y-43216017D01*
X155460988Y-43565698D01*
X155300047Y-43954244D01*
X155218000Y-44366721D01*
X144256516Y-44366721D01*
X144283032Y-44349004D01*
X144583754Y-44048282D01*
X144820031Y-43694670D01*
X144982780Y-43301757D01*
X145065750Y-42884643D01*
X145065750Y-42459357D01*
X144982780Y-42042243D01*
X144820031Y-41649330D01*
X144583754Y-41295718D01*
X144283032Y-40994996D01*
X143929420Y-40758719D01*
X143536507Y-40595970D01*
X143119393Y-40513000D01*
X142694107Y-40513000D01*
X142276993Y-40595970D01*
X141884080Y-40758719D01*
X141530468Y-40994996D01*
X141229746Y-41295718D01*
X140993469Y-41649330D01*
X140830720Y-42042243D01*
X140747750Y-42459357D01*
X128397000Y-42459357D01*
X128314030Y-42042243D01*
X128151281Y-41649330D01*
X127915004Y-41295718D01*
X127614282Y-40994996D01*
X127260670Y-40758719D01*
X126867757Y-40595970D01*
X126450643Y-40513000D01*
X126025357Y-40513000D01*
X125608243Y-40595970D01*
X125215330Y-40758719D01*
X124861718Y-40994996D01*
X124560996Y-41295718D01*
X124324719Y-41649330D01*
X124161970Y-42042243D01*
X124079000Y-42459357D01*
X121253250Y-42459357D01*
X121170280Y-42042243D01*
X121007531Y-41649330D01*
X120771254Y-41295718D01*
X120470532Y-40994996D01*
X120116920Y-40758719D01*
X119724007Y-40595970D01*
X119306893Y-40513000D01*
X118881607Y-40513000D01*
X118464493Y-40595970D01*
X118071580Y-40758719D01*
X117717968Y-40994996D01*
X117417246Y-41295718D01*
X117180969Y-41649330D01*
X117018220Y-42042243D01*
X116935250Y-42459357D01*
X110025539Y-42459357D01*
X109938279Y-42442000D01*
X109517721Y-42442000D01*
X109105244Y-42524047D01*
X108716698Y-42684988D01*
X108367017Y-42918637D01*
X108069637Y-43216017D01*
X107835988Y-43565698D01*
X107675047Y-43954244D01*
X107593000Y-44366721D01*
X96631516Y-44366721D01*
X96658032Y-44349004D01*
X96958754Y-44048282D01*
X97195031Y-43694670D01*
X97357780Y-43301757D01*
X97440750Y-42884643D01*
X97440750Y-42459357D01*
X97357780Y-42042243D01*
X97195031Y-41649330D01*
X96958754Y-41295718D01*
X96658032Y-40994996D01*
X96304420Y-40758719D01*
X95911507Y-40595970D01*
X95494393Y-40513000D01*
X95069107Y-40513000D01*
X94651993Y-40595970D01*
X94259080Y-40758719D01*
X93905468Y-40994996D01*
X93604746Y-41295718D01*
X93368469Y-41649330D01*
X93205720Y-42042243D01*
X93122750Y-42459357D01*
X90297000Y-42459357D01*
X90214030Y-42042243D01*
X90051281Y-41649330D01*
X89815004Y-41295718D01*
X89514282Y-40994996D01*
X89160670Y-40758719D01*
X88767757Y-40595970D01*
X88350643Y-40513000D01*
X87925357Y-40513000D01*
X87508243Y-40595970D01*
X87115330Y-40758719D01*
X86761718Y-40994996D01*
X86460996Y-41295718D01*
X86224719Y-41649330D01*
X86061970Y-42042243D01*
X85979000Y-42459357D01*
X73628250Y-42459357D01*
X73545280Y-42042243D01*
X73382531Y-41649330D01*
X73146254Y-41295718D01*
X72845532Y-40994996D01*
X72491920Y-40758719D01*
X72099007Y-40595970D01*
X71681893Y-40513000D01*
X71256607Y-40513000D01*
X70839493Y-40595970D01*
X70446580Y-40758719D01*
X70092968Y-40994996D01*
X69792246Y-41295718D01*
X69555969Y-41649330D01*
X69393220Y-42042243D01*
X69310250Y-42459357D01*
X62400539Y-42459357D01*
X62313279Y-42442000D01*
X61892721Y-42442000D01*
X61480244Y-42524047D01*
X61091698Y-42684988D01*
X60742017Y-42918637D01*
X60444637Y-43216017D01*
X60210988Y-43565698D01*
X60050047Y-43954244D01*
X59968000Y-44366721D01*
X49006516Y-44366721D01*
X49033032Y-44349004D01*
X49333754Y-44048282D01*
X49570031Y-43694670D01*
X49732780Y-43301757D01*
X49815750Y-42884643D01*
X49815750Y-42459357D01*
X49732780Y-42042243D01*
X49570031Y-41649330D01*
X49333754Y-41295718D01*
X49033032Y-40994996D01*
X48679420Y-40758719D01*
X48286507Y-40595970D01*
X47869393Y-40513000D01*
X47444107Y-40513000D01*
X47026993Y-40595970D01*
X46634080Y-40758719D01*
X46280468Y-40994996D01*
X45979746Y-41295718D01*
X45743469Y-41649330D01*
X45580720Y-42042243D01*
X45497750Y-42459357D01*
X43833776Y-42459357D01*
X43876549Y-42395344D01*
X44077600Y-41909964D01*
X44180095Y-41394687D01*
X44180095Y-40869315D01*
X44077600Y-40354038D01*
X43876549Y-39868658D01*
X43584668Y-39431827D01*
X43213174Y-39060333D01*
X42776343Y-38768452D01*
X42290963Y-38567401D01*
X41775686Y-38464906D01*
X41250314Y-38464906D01*
X40735037Y-38567401D01*
X40249657Y-38768452D01*
X39812826Y-39060333D01*
X39441332Y-39431827D01*
X39149451Y-39868658D01*
X38948400Y-40354038D01*
X38845905Y-40869315D01*
X38248000Y-40869315D01*
X38247999Y-40167958D01*
X38294594Y-39692746D01*
X38422162Y-39270220D01*
X38629369Y-38880519D01*
X38908324Y-38538488D01*
X39248399Y-38257152D01*
X39636644Y-38047230D01*
X40058265Y-37916716D01*
X40531274Y-37867001D01*
X173827053Y-37867001D01*
X174302255Y-37913595D01*
G37*
G04 #@! TD.AperFunction*
M02*
