G04 #@! TF.GenerationSoftware,KiCad,Pcbnew,(5.1.10)-1*
G04 #@! TF.CreationDate,2021-07-29T20:34:06+02:00*
G04 #@! TF.ProjectId,stab_tester,73746162-5f74-4657-9374-65722e6b6963,rev?*
G04 #@! TF.SameCoordinates,Original*
G04 #@! TF.FileFunction,Legend,Top*
G04 #@! TF.FilePolarity,Positive*
%FSLAX46Y46*%
G04 Gerber Fmt 4.6, Leading zero omitted, Abs format (unit mm)*
G04 Created by KiCad (PCBNEW (5.1.10)-1) date 2021-07-29 20:34:06*
%MOMM*%
%LPD*%
G01*
G04 APERTURE LIST*
%ADD10C,0.150000*%
%ADD11C,0.120000*%
G04 APERTURE END LIST*
D10*
X106643357Y-93640630D02*
X107310023Y-93640630D01*
X106881452Y-94640630D01*
X107690976Y-93640630D02*
X107690976Y-94450154D01*
X107738595Y-94545392D01*
X107786214Y-94593011D01*
X107881452Y-94640630D01*
X108071928Y-94640630D01*
X108167166Y-94593011D01*
X108214785Y-94545392D01*
X108262404Y-94450154D01*
X108262404Y-93640630D01*
X97692166Y-99990630D02*
X97501690Y-99990630D01*
X97406452Y-100038250D01*
X97358833Y-100085869D01*
X97263595Y-100228726D01*
X97215976Y-100419202D01*
X97215976Y-100800154D01*
X97263595Y-100895392D01*
X97311214Y-100943011D01*
X97406452Y-100990630D01*
X97596928Y-100990630D01*
X97692166Y-100943011D01*
X97739785Y-100895392D01*
X97787404Y-100800154D01*
X97787404Y-100562059D01*
X97739785Y-100466821D01*
X97692166Y-100419202D01*
X97596928Y-100371583D01*
X97406452Y-100371583D01*
X97311214Y-100419202D01*
X97263595Y-100466821D01*
X97215976Y-100562059D01*
X98215976Y-99990630D02*
X98215976Y-100800154D01*
X98263595Y-100895392D01*
X98311214Y-100943011D01*
X98406452Y-100990630D01*
X98596928Y-100990630D01*
X98692166Y-100943011D01*
X98739785Y-100895392D01*
X98787404Y-100800154D01*
X98787404Y-99990630D01*
D11*
X88138000Y-49657000D02*
X100838000Y-49657000D01*
X88138000Y-44894500D02*
X88138000Y-54419500D01*
X95281750Y-44894500D02*
X95281750Y-54419500D01*
D10*
X88705857Y-49903130D02*
X89324904Y-49903130D01*
X88991571Y-50284083D01*
X89134428Y-50284083D01*
X89229666Y-50331702D01*
X89277285Y-50379321D01*
X89324904Y-50474559D01*
X89324904Y-50712654D01*
X89277285Y-50807892D01*
X89229666Y-50855511D01*
X89134428Y-50903130D01*
X88848714Y-50903130D01*
X88753476Y-50855511D01*
X88705857Y-50807892D01*
X89753476Y-49903130D02*
X89753476Y-50712654D01*
X89801095Y-50807892D01*
X89848714Y-50855511D01*
X89943952Y-50903130D01*
X90134428Y-50903130D01*
X90229666Y-50855511D01*
X90277285Y-50807892D01*
X90324904Y-50712654D01*
X90324904Y-49903130D01*
X95753476Y-49998369D02*
X95801095Y-49950750D01*
X95896333Y-49903130D01*
X96134428Y-49903130D01*
X96229666Y-49950750D01*
X96277285Y-49998369D01*
X96324904Y-50093607D01*
X96324904Y-50188845D01*
X96277285Y-50331702D01*
X95705857Y-50903130D01*
X96324904Y-50903130D01*
X96753476Y-49903130D02*
X96753476Y-50712654D01*
X96801095Y-50807892D01*
X96848714Y-50855511D01*
X96943952Y-50903130D01*
X97134428Y-50903130D01*
X97229666Y-50855511D01*
X97277285Y-50807892D01*
X97324904Y-50712654D01*
X97324904Y-49903130D01*
D11*
X120681750Y-49657000D02*
X119094250Y-49657000D01*
X71469250Y-73469500D02*
X65913000Y-73469500D01*
X71469250Y-68707000D02*
X71469250Y-78232000D01*
D10*
X69503476Y-73810869D02*
X69551095Y-73763250D01*
X69646333Y-73715630D01*
X69884428Y-73715630D01*
X69979666Y-73763250D01*
X70027285Y-73810869D01*
X70074904Y-73906107D01*
X70074904Y-74001345D01*
X70027285Y-74144202D01*
X69455857Y-74715630D01*
X70074904Y-74715630D01*
X70503476Y-73715630D02*
X70503476Y-74525154D01*
X70551095Y-74620392D01*
X70598714Y-74668011D01*
X70693952Y-74715630D01*
X70884428Y-74715630D01*
X70979666Y-74668011D01*
X71027285Y-74620392D01*
X71074904Y-74525154D01*
X71074904Y-73715630D01*
D11*
X71469250Y-49657000D02*
X65913000Y-49657000D01*
X71469250Y-44894500D02*
X71469250Y-54419500D01*
D10*
X69503476Y-49998369D02*
X69551095Y-49950750D01*
X69646333Y-49903130D01*
X69884428Y-49903130D01*
X69979666Y-49950750D01*
X70027285Y-49998369D01*
X70074904Y-50093607D01*
X70074904Y-50188845D01*
X70027285Y-50331702D01*
X69455857Y-50903130D01*
X70074904Y-50903130D01*
X70503476Y-49903130D02*
X70503476Y-50712654D01*
X70551095Y-50807892D01*
X70598714Y-50855511D01*
X70693952Y-50903130D01*
X70884428Y-50903130D01*
X70979666Y-50855511D01*
X71027285Y-50807892D01*
X71074904Y-50712654D01*
X71074904Y-49903130D01*
D11*
X119094250Y-49657000D02*
X113538000Y-49657000D01*
X119094250Y-44894500D02*
X119094250Y-54419500D01*
D10*
X117128476Y-49998369D02*
X117176095Y-49950750D01*
X117271333Y-49903130D01*
X117509428Y-49903130D01*
X117604666Y-49950750D01*
X117652285Y-49998369D01*
X117699904Y-50093607D01*
X117699904Y-50188845D01*
X117652285Y-50331702D01*
X117080857Y-50903130D01*
X117699904Y-50903130D01*
X118128476Y-49903130D02*
X118128476Y-50712654D01*
X118176095Y-50807892D01*
X118223714Y-50855511D01*
X118318952Y-50903130D01*
X118509428Y-50903130D01*
X118604666Y-50855511D01*
X118652285Y-50807892D01*
X118699904Y-50712654D01*
X118699904Y-49903130D01*
D11*
X126238000Y-49657000D02*
X120681750Y-49657000D01*
X126238000Y-44894500D02*
X126238000Y-54419500D01*
D10*
X124224607Y-49903130D02*
X124843654Y-49903130D01*
X124510321Y-50284083D01*
X124653178Y-50284083D01*
X124748416Y-50331702D01*
X124796035Y-50379321D01*
X124843654Y-50474559D01*
X124843654Y-50712654D01*
X124796035Y-50807892D01*
X124748416Y-50855511D01*
X124653178Y-50903130D01*
X124367464Y-50903130D01*
X124272226Y-50855511D01*
X124224607Y-50807892D01*
X125272226Y-49903130D02*
X125272226Y-50712654D01*
X125319845Y-50807892D01*
X125367464Y-50855511D01*
X125462702Y-50903130D01*
X125653178Y-50903130D01*
X125748416Y-50855511D01*
X125796035Y-50807892D01*
X125843654Y-50712654D01*
X125843654Y-49903130D01*
D11*
X166719250Y-49657000D02*
X161163000Y-49657000D01*
X166719250Y-44894500D02*
X166719250Y-54419500D01*
D10*
X164753476Y-49998369D02*
X164801095Y-49950750D01*
X164896333Y-49903130D01*
X165134428Y-49903130D01*
X165229666Y-49950750D01*
X165277285Y-49998369D01*
X165324904Y-50093607D01*
X165324904Y-50188845D01*
X165277285Y-50331702D01*
X164705857Y-50903130D01*
X165324904Y-50903130D01*
X165753476Y-49903130D02*
X165753476Y-50712654D01*
X165801095Y-50807892D01*
X165848714Y-50855511D01*
X165943952Y-50903130D01*
X166134428Y-50903130D01*
X166229666Y-50855511D01*
X166277285Y-50807892D01*
X166324904Y-50712654D01*
X166324904Y-49903130D01*
D11*
X47656750Y-73469500D02*
X53213000Y-73469500D01*
X88138000Y-73469500D02*
X100838000Y-73469500D01*
X126238000Y-73469500D02*
X113538000Y-73469500D01*
X142906750Y-73469500D02*
X148463000Y-73469500D01*
X166719250Y-73469500D02*
X161163000Y-73469500D01*
X142906750Y-49657000D02*
X148463000Y-49657000D01*
X47656750Y-49657000D02*
X53213000Y-49657000D01*
X47656750Y-44894500D02*
X47656750Y-54419500D01*
X142906750Y-44894500D02*
X142906750Y-54419500D01*
X166719250Y-68707000D02*
X166719250Y-78232000D01*
X142906750Y-68707000D02*
X142906750Y-78232000D01*
X126238000Y-68707000D02*
X126238000Y-78232000D01*
X119094250Y-68707000D02*
X119094250Y-78232000D01*
X95281750Y-68707000D02*
X95281750Y-78232000D01*
X88138000Y-68707000D02*
X88138000Y-78232000D01*
X47656750Y-73469500D02*
X47656750Y-78232000D01*
X47656750Y-68707000D02*
X47656750Y-73469500D01*
X164338000Y-97282000D02*
X164338000Y-92519500D01*
X157194250Y-97282000D02*
X157194250Y-92519500D01*
X145288000Y-97282000D02*
X145288000Y-92519500D01*
X145288000Y-97282000D02*
X145288000Y-102044500D01*
X157194250Y-97282000D02*
X157194250Y-102044500D01*
X164338000Y-97282000D02*
X164338000Y-102044500D01*
X113538000Y-97282000D02*
X164338000Y-97282000D01*
X50038000Y-97282000D02*
X91313000Y-97282000D01*
X57181750Y-97282000D02*
X57181750Y-102044500D01*
X50038000Y-97282000D02*
X50038000Y-102044500D01*
X50038000Y-97282000D02*
X50038000Y-92519500D01*
X57181750Y-97282000D02*
X57181750Y-92519500D01*
D10*
X50455857Y-95940630D02*
X51122523Y-95940630D01*
X50693952Y-96940630D01*
X51503476Y-95940630D02*
X51503476Y-96750154D01*
X51551095Y-96845392D01*
X51598714Y-96893011D01*
X51693952Y-96940630D01*
X51884428Y-96940630D01*
X51979666Y-96893011D01*
X52027285Y-96845392D01*
X52074904Y-96750154D01*
X52074904Y-95940630D01*
X58039190Y-97528130D02*
X57848714Y-97528130D01*
X57753476Y-97575750D01*
X57705857Y-97623369D01*
X57610619Y-97766226D01*
X57563000Y-97956702D01*
X57563000Y-98337654D01*
X57610619Y-98432892D01*
X57658238Y-98480511D01*
X57753476Y-98528130D01*
X57943952Y-98528130D01*
X58039190Y-98480511D01*
X58086809Y-98432892D01*
X58134428Y-98337654D01*
X58134428Y-98099559D01*
X58086809Y-98004321D01*
X58039190Y-97956702D01*
X57943952Y-97909083D01*
X57753476Y-97909083D01*
X57658238Y-97956702D01*
X57610619Y-98004321D01*
X57563000Y-98099559D01*
X58563000Y-98432892D02*
X58610619Y-98480511D01*
X58563000Y-98528130D01*
X58515380Y-98480511D01*
X58563000Y-98432892D01*
X58563000Y-98528130D01*
X58991571Y-97623369D02*
X59039190Y-97575750D01*
X59134428Y-97528130D01*
X59372523Y-97528130D01*
X59467761Y-97575750D01*
X59515380Y-97623369D01*
X59563000Y-97718607D01*
X59563000Y-97813845D01*
X59515380Y-97956702D01*
X58943952Y-98528130D01*
X59563000Y-98528130D01*
X60467761Y-97528130D02*
X59991571Y-97528130D01*
X59943952Y-98004321D01*
X59991571Y-97956702D01*
X60086809Y-97909083D01*
X60324904Y-97909083D01*
X60420142Y-97956702D01*
X60467761Y-98004321D01*
X60515380Y-98099559D01*
X60515380Y-98337654D01*
X60467761Y-98432892D01*
X60420142Y-98480511D01*
X60324904Y-98528130D01*
X60086809Y-98528130D01*
X59991571Y-98480511D01*
X59943952Y-98432892D01*
X60943952Y-97528130D02*
X60943952Y-98337654D01*
X60991571Y-98432892D01*
X61039190Y-98480511D01*
X61134428Y-98528130D01*
X61324904Y-98528130D01*
X61420142Y-98480511D01*
X61467761Y-98432892D01*
X61515380Y-98337654D01*
X61515380Y-97528130D01*
X50979666Y-97609380D02*
X50789190Y-97609380D01*
X50693952Y-97657000D01*
X50646333Y-97704619D01*
X50551095Y-97847476D01*
X50503476Y-98037952D01*
X50503476Y-98418904D01*
X50551095Y-98514142D01*
X50598714Y-98561761D01*
X50693952Y-98609380D01*
X50884428Y-98609380D01*
X50979666Y-98561761D01*
X51027285Y-98514142D01*
X51074904Y-98418904D01*
X51074904Y-98180809D01*
X51027285Y-98085571D01*
X50979666Y-98037952D01*
X50884428Y-97990333D01*
X50693952Y-97990333D01*
X50598714Y-98037952D01*
X50551095Y-98085571D01*
X50503476Y-98180809D01*
X51503476Y-97609380D02*
X51503476Y-98418904D01*
X51551095Y-98514142D01*
X51598714Y-98561761D01*
X51693952Y-98609380D01*
X51884428Y-98609380D01*
X51979666Y-98561761D01*
X52027285Y-98514142D01*
X52074904Y-98418904D01*
X52074904Y-97609380D01*
X88705857Y-73715630D02*
X89324904Y-73715630D01*
X88991571Y-74096583D01*
X89134428Y-74096583D01*
X89229666Y-74144202D01*
X89277285Y-74191821D01*
X89324904Y-74287059D01*
X89324904Y-74525154D01*
X89277285Y-74620392D01*
X89229666Y-74668011D01*
X89134428Y-74715630D01*
X88848714Y-74715630D01*
X88753476Y-74668011D01*
X88705857Y-74620392D01*
X89753476Y-73715630D02*
X89753476Y-74525154D01*
X89801095Y-74620392D01*
X89848714Y-74668011D01*
X89943952Y-74715630D01*
X90134428Y-74715630D01*
X90229666Y-74668011D01*
X90277285Y-74620392D01*
X90324904Y-74525154D01*
X90324904Y-73715630D01*
X95753476Y-73810869D02*
X95801095Y-73763250D01*
X95896333Y-73715630D01*
X96134428Y-73715630D01*
X96229666Y-73763250D01*
X96277285Y-73810869D01*
X96324904Y-73906107D01*
X96324904Y-74001345D01*
X96277285Y-74144202D01*
X95705857Y-74715630D01*
X96324904Y-74715630D01*
X96753476Y-73715630D02*
X96753476Y-74525154D01*
X96801095Y-74620392D01*
X96848714Y-74668011D01*
X96943952Y-74715630D01*
X97134428Y-74715630D01*
X97229666Y-74668011D01*
X97277285Y-74620392D01*
X97324904Y-74525154D01*
X97324904Y-73715630D01*
X124205857Y-73715630D02*
X124824904Y-73715630D01*
X124491571Y-74096583D01*
X124634428Y-74096583D01*
X124729666Y-74144202D01*
X124777285Y-74191821D01*
X124824904Y-74287059D01*
X124824904Y-74525154D01*
X124777285Y-74620392D01*
X124729666Y-74668011D01*
X124634428Y-74715630D01*
X124348714Y-74715630D01*
X124253476Y-74668011D01*
X124205857Y-74620392D01*
X125253476Y-73715630D02*
X125253476Y-74525154D01*
X125301095Y-74620392D01*
X125348714Y-74668011D01*
X125443952Y-74715630D01*
X125634428Y-74715630D01*
X125729666Y-74668011D01*
X125777285Y-74620392D01*
X125824904Y-74525154D01*
X125824904Y-73715630D01*
X117003476Y-73810869D02*
X117051095Y-73763250D01*
X117146333Y-73715630D01*
X117384428Y-73715630D01*
X117479666Y-73763250D01*
X117527285Y-73810869D01*
X117574904Y-73906107D01*
X117574904Y-74001345D01*
X117527285Y-74144202D01*
X116955857Y-74715630D01*
X117574904Y-74715630D01*
X118003476Y-73715630D02*
X118003476Y-74525154D01*
X118051095Y-74620392D01*
X118098714Y-74668011D01*
X118193952Y-74715630D01*
X118384428Y-74715630D01*
X118479666Y-74668011D01*
X118527285Y-74620392D01*
X118574904Y-74525154D01*
X118574904Y-73715630D01*
X164753476Y-73810869D02*
X164801095Y-73763250D01*
X164896333Y-73715630D01*
X165134428Y-73715630D01*
X165229666Y-73763250D01*
X165277285Y-73810869D01*
X165324904Y-73906107D01*
X165324904Y-74001345D01*
X165277285Y-74144202D01*
X164705857Y-74715630D01*
X165324904Y-74715630D01*
X165753476Y-73715630D02*
X165753476Y-74525154D01*
X165801095Y-74620392D01*
X165848714Y-74668011D01*
X165943952Y-74715630D01*
X166134428Y-74715630D01*
X166229666Y-74668011D01*
X166277285Y-74620392D01*
X166324904Y-74525154D01*
X166324904Y-73715630D01*
X143729666Y-97609380D02*
X143539190Y-97609380D01*
X143443952Y-97657000D01*
X143396333Y-97704619D01*
X143301095Y-97847476D01*
X143253476Y-98037952D01*
X143253476Y-98418904D01*
X143301095Y-98514142D01*
X143348714Y-98561761D01*
X143443952Y-98609380D01*
X143634428Y-98609380D01*
X143729666Y-98561761D01*
X143777285Y-98514142D01*
X143824904Y-98418904D01*
X143824904Y-98180809D01*
X143777285Y-98085571D01*
X143729666Y-98037952D01*
X143634428Y-97990333D01*
X143443952Y-97990333D01*
X143348714Y-98037952D01*
X143301095Y-98085571D01*
X143253476Y-98180809D01*
X144253476Y-97609380D02*
X144253476Y-98418904D01*
X144301095Y-98514142D01*
X144348714Y-98561761D01*
X144443952Y-98609380D01*
X144634428Y-98609380D01*
X144729666Y-98561761D01*
X144777285Y-98514142D01*
X144824904Y-98418904D01*
X144824904Y-97609380D01*
X153289190Y-97609380D02*
X153098714Y-97609380D01*
X153003476Y-97657000D01*
X152955857Y-97704619D01*
X152860619Y-97847476D01*
X152813000Y-98037952D01*
X152813000Y-98418904D01*
X152860619Y-98514142D01*
X152908238Y-98561761D01*
X153003476Y-98609380D01*
X153193952Y-98609380D01*
X153289190Y-98561761D01*
X153336809Y-98514142D01*
X153384428Y-98418904D01*
X153384428Y-98180809D01*
X153336809Y-98085571D01*
X153289190Y-98037952D01*
X153193952Y-97990333D01*
X153003476Y-97990333D01*
X152908238Y-98037952D01*
X152860619Y-98085571D01*
X152813000Y-98180809D01*
X153813000Y-98514142D02*
X153860619Y-98561761D01*
X153813000Y-98609380D01*
X153765380Y-98561761D01*
X153813000Y-98514142D01*
X153813000Y-98609380D01*
X154241571Y-97704619D02*
X154289190Y-97657000D01*
X154384428Y-97609380D01*
X154622523Y-97609380D01*
X154717761Y-97657000D01*
X154765380Y-97704619D01*
X154813000Y-97799857D01*
X154813000Y-97895095D01*
X154765380Y-98037952D01*
X154193952Y-98609380D01*
X154813000Y-98609380D01*
X155717761Y-97609380D02*
X155241571Y-97609380D01*
X155193952Y-98085571D01*
X155241571Y-98037952D01*
X155336809Y-97990333D01*
X155574904Y-97990333D01*
X155670142Y-98037952D01*
X155717761Y-98085571D01*
X155765380Y-98180809D01*
X155765380Y-98418904D01*
X155717761Y-98514142D01*
X155670142Y-98561761D01*
X155574904Y-98609380D01*
X155336809Y-98609380D01*
X155241571Y-98561761D01*
X155193952Y-98514142D01*
X156193952Y-97609380D02*
X156193952Y-98418904D01*
X156241571Y-98514142D01*
X156289190Y-98561761D01*
X156384428Y-98609380D01*
X156574904Y-98609380D01*
X156670142Y-98561761D01*
X156717761Y-98514142D01*
X156765380Y-98418904D01*
X156765380Y-97609380D01*
X162205857Y-97609380D02*
X162872523Y-97609380D01*
X162443952Y-98609380D01*
X163253476Y-97609380D02*
X163253476Y-98418904D01*
X163301095Y-98514142D01*
X163348714Y-98561761D01*
X163443952Y-98609380D01*
X163634428Y-98609380D01*
X163729666Y-98561761D01*
X163777285Y-98514142D01*
X163824904Y-98418904D01*
X163824904Y-97609380D01*
M02*
