G04 #@! TF.GenerationSoftware,KiCad,Pcbnew,(5.1.10)-1*
G04 #@! TF.CreationDate,2021-07-13T16:41:47+02:00*
G04 #@! TF.ProjectId,stab_tester,73746162-5f74-4657-9374-65722e6b6963,rev?*
G04 #@! TF.SameCoordinates,Original*
G04 #@! TF.FileFunction,Profile,NP*
%FSLAX46Y46*%
G04 Gerber Fmt 4.6, Leading zero omitted, Abs format (unit mm)*
G04 Created by KiCad (PCBNEW (5.1.10)-1) date 2021-07-13 16:41:47*
%MOMM*%
%LPD*%
G01*
G04 APERTURE LIST*
G04 #@! TA.AperFunction,Profile*
%ADD10C,0.050000*%
G04 #@! TD*
G04 APERTURE END LIST*
D10*
X173863001Y-186482002D02*
G75*
G02*
X173863001Y-184482002I0J1000000D01*
G01*
X40513001Y-184482002D02*
G75*
G02*
X40513001Y-186482002I0J-1000000D01*
G01*
X173863000Y-111807001D02*
G75*
G02*
X173863000Y-109807001I0J1000000D01*
G01*
X139125002Y-140394502D02*
X139125002Y-158394502D01*
X139625002Y-158894502D02*
G75*
G02*
X139125002Y-158394502I0J500000D01*
G01*
X147125004Y-141144501D02*
G75*
G02*
X146625003Y-140644502I-1J500000D01*
G01*
X146625003Y-140644502D02*
X146625003Y-140394502D01*
X147125003Y-155144502D02*
X162501003Y-155144502D01*
X67251002Y-155144502D02*
G75*
G02*
X67751002Y-155644502I0J-500000D01*
G01*
X163001003Y-140394501D02*
G75*
G02*
X163501003Y-139894501I500000J0D01*
G01*
X163501003Y-158894502D02*
G75*
G02*
X163001003Y-158394502I0J500000D01*
G01*
X139625002Y-158894502D02*
X146125003Y-158894502D01*
X51375001Y-158394502D02*
X51375002Y-155644502D01*
X146625003Y-158394502D02*
G75*
G02*
X146125003Y-158894502I-500000J0D01*
G01*
X146125002Y-139894501D02*
G75*
G02*
X146625003Y-140394502I0J-500001D01*
G01*
X163001003Y-155644502D02*
X163001003Y-158394502D01*
X163501003Y-158894502D02*
X170001003Y-158894502D01*
X162501003Y-141144501D02*
X147125003Y-141144502D01*
X170501003Y-158394502D02*
G75*
G02*
X170001003Y-158894502I-500000J0D01*
G01*
X139125002Y-140394502D02*
G75*
G02*
X139625002Y-139894502I500000J0D01*
G01*
X170501003Y-158394502D02*
X170501003Y-140394501D01*
X163001003Y-140394501D02*
X163001003Y-140644501D01*
X170001003Y-139894501D02*
G75*
G02*
X170501003Y-140394501I0J-500000D01*
G01*
X170001003Y-139894501D02*
X163501003Y-139894501D01*
X146125003Y-139894501D02*
X139625002Y-139894502D01*
X146625003Y-155644502D02*
G75*
G02*
X147125003Y-155144502I500000J0D01*
G01*
X99500003Y-155144502D02*
X114876003Y-155144502D01*
X122376003Y-139894501D02*
G75*
G02*
X122876003Y-140394501I0J-500000D01*
G01*
X163001002Y-140644502D02*
G75*
G02*
X162501003Y-141144501I-499999J0D01*
G01*
X99500004Y-141144501D02*
G75*
G02*
X99000003Y-140644502I-1J500000D01*
G01*
X91500002Y-140394502D02*
X91500002Y-158394502D01*
X162501003Y-155144502D02*
G75*
G02*
X163001003Y-155644502I0J-500000D01*
G01*
X99000003Y-140644502D02*
X99000003Y-140394502D01*
X92000002Y-158894502D02*
X98500003Y-158894502D01*
X99000003Y-155644502D02*
G75*
G02*
X99500003Y-155144502I500000J0D01*
G01*
X115876003Y-158894502D02*
G75*
G02*
X115376003Y-158394502I0J500000D01*
G01*
X146625002Y-158394502D02*
X146625003Y-155644502D01*
X92000002Y-158894502D02*
G75*
G02*
X91500002Y-158394502I0J500000D01*
G01*
X122876003Y-158394502D02*
X122876003Y-140394501D01*
X115376003Y-140394501D02*
G75*
G02*
X115876003Y-139894501I500000J0D01*
G01*
X122376003Y-139894501D02*
X115876003Y-139894501D01*
X99000002Y-158394502D02*
X99000003Y-155644502D01*
X114876003Y-141144501D02*
X99500003Y-141144502D01*
X99000003Y-158394502D02*
G75*
G02*
X98500003Y-158894502I-500000J0D01*
G01*
X98500002Y-139894501D02*
G75*
G02*
X99000003Y-140394502I0J-500001D01*
G01*
X115376003Y-140394501D02*
X115376003Y-140644501D01*
X115376003Y-155644502D02*
X115376003Y-158394502D01*
X122876003Y-158394502D02*
G75*
G02*
X122376003Y-158894502I-500000J0D01*
G01*
X91500002Y-140394502D02*
G75*
G02*
X92000002Y-139894502I500000J0D01*
G01*
X147125003Y-117332001D02*
G75*
G02*
X146625002Y-116832002I-1J500000D01*
G01*
X98500003Y-139894501D02*
X92000002Y-139894502D01*
X139625001Y-135082002D02*
X146125002Y-135082002D01*
X139125001Y-116582002D02*
X139125001Y-134582002D01*
X139625001Y-135082002D02*
G75*
G02*
X139125001Y-134582002I0J500000D01*
G01*
X139125001Y-116582002D02*
G75*
G02*
X139625001Y-116082002I500000J0D01*
G01*
X146625002Y-131832002D02*
G75*
G02*
X147125002Y-131332002I500000J0D01*
G01*
X146625002Y-134582002D02*
G75*
G02*
X146125002Y-135082002I-500000J0D01*
G01*
X163001002Y-131832002D02*
X163001002Y-134582002D01*
X115376002Y-140644502D02*
G75*
G02*
X114876003Y-141144501I-499999J0D01*
G01*
X170501002Y-134582002D02*
X170501002Y-116582001D01*
X170001002Y-116082001D02*
X163501002Y-116082001D01*
X146125001Y-116082001D02*
G75*
G02*
X146625002Y-116582002I0J-500001D01*
G01*
X163501002Y-135082002D02*
X170001002Y-135082002D01*
X170001002Y-116082001D02*
G75*
G02*
X170501002Y-116582001I0J-500000D01*
G01*
X146125002Y-116082001D02*
X139625001Y-116082002D01*
X147125002Y-131332002D02*
X162501002Y-131332002D01*
X163001002Y-116582001D02*
X163001002Y-116832001D01*
X146625002Y-116832002D02*
X146625002Y-116582002D01*
X115876003Y-158894502D02*
X122376003Y-158894502D01*
X170501002Y-134582002D02*
G75*
G02*
X170001002Y-135082002I-500000J0D01*
G01*
X162501002Y-117332001D02*
X147125002Y-117332002D01*
X114876003Y-155144502D02*
G75*
G02*
X115376003Y-155644502I0J-500000D01*
G01*
X92000001Y-135082002D02*
X98500002Y-135082002D01*
X163501002Y-135082002D02*
G75*
G02*
X163001002Y-134582002I0J500000D01*
G01*
X163001001Y-116832002D02*
G75*
G02*
X162501002Y-117332001I-499999J0D01*
G01*
X98500001Y-116082001D02*
G75*
G02*
X99000002Y-116582002I0J-500001D01*
G01*
X122376002Y-116082001D02*
X115876002Y-116082001D01*
X115376002Y-116582001D02*
X115376002Y-116832001D01*
X99000002Y-131832002D02*
G75*
G02*
X99500002Y-131332002I500000J0D01*
G01*
X114876002Y-117332001D02*
X99500002Y-117332002D01*
X99500002Y-131332002D02*
X114876002Y-131332002D01*
X122376002Y-116082001D02*
G75*
G02*
X122876002Y-116582001I0J-500000D01*
G01*
X162501002Y-131332002D02*
G75*
G02*
X163001002Y-131832002I0J-500000D01*
G01*
X122876002Y-134582002D02*
X122876002Y-116582001D01*
X115376002Y-131832002D02*
X115376002Y-134582002D01*
X98500002Y-116082001D02*
X92000001Y-116082002D01*
X99000002Y-134582002D02*
G75*
G02*
X98500002Y-135082002I-500000J0D01*
G01*
X99000002Y-116832002D02*
X99000002Y-116582002D01*
X115876002Y-135082002D02*
X122376002Y-135082002D01*
X163001002Y-116582001D02*
G75*
G02*
X163501002Y-116082001I500000J0D01*
G01*
X91500001Y-116582002D02*
X91500001Y-134582002D01*
X99500003Y-117332001D02*
G75*
G02*
X99000002Y-116832002I-1J500000D01*
G01*
X146625001Y-134582002D02*
X146625002Y-131832002D01*
X92000001Y-135082002D02*
G75*
G02*
X91500001Y-134582002I0J500000D01*
G01*
X91500001Y-116582002D02*
G75*
G02*
X92000001Y-116082002I500000J0D01*
G01*
X99000001Y-134582002D02*
X99000002Y-131832002D01*
X40513001Y-259157001D02*
G75*
G02*
X37513002Y-256157002I0J2999999D01*
G01*
X173863001Y-259157002D02*
X40513001Y-259157002D01*
X37513001Y-189482002D02*
G75*
G02*
X40513001Y-186482002I3000000J0D01*
G01*
X122876002Y-134582002D02*
G75*
G02*
X122376002Y-135082002I-500000J0D01*
G01*
X176863002Y-256157001D02*
G75*
G02*
X173863001Y-259157002I-3000001J0D01*
G01*
X174063001Y-255157002D02*
G75*
G03*
X174063001Y-255157002I-1200000J0D01*
G01*
X169363000Y-253657002D02*
X169363000Y-229819502D01*
X112188000Y-229819502D02*
X112188000Y-253657002D01*
X42713000Y-255157002D02*
G75*
G03*
X42713000Y-255157002I-1199999J0D01*
G01*
X176863001Y-189482002D02*
X176863001Y-256157002D01*
X167363000Y-227819502D02*
G75*
G02*
X169363000Y-229819502I0J-2000000D01*
G01*
X167363000Y-255657002D02*
X114188000Y-255657002D01*
X114188000Y-227819502D02*
X167363000Y-227819502D01*
X114876002Y-131332002D02*
G75*
G02*
X115376002Y-131832002I0J-500000D01*
G01*
X174063001Y-190482001D02*
G75*
G03*
X174063001Y-190482001I-1200000J0D01*
G01*
X173863001Y-186482002D02*
G75*
G02*
X176863001Y-189482002I0J-3000000D01*
G01*
X114187999Y-255657003D02*
G75*
G02*
X112188000Y-253657002I1J2000000D01*
G01*
X115376001Y-116832002D02*
G75*
G02*
X114876002Y-117332001I-499999J0D01*
G01*
X115876002Y-135082002D02*
G75*
G02*
X115376002Y-134582002I0J500000D01*
G01*
X115376002Y-116582001D02*
G75*
G02*
X115876002Y-116082001I500000J0D01*
G01*
X42712999Y-190482001D02*
G75*
G03*
X42712999Y-190482001I-1199999J0D01*
G01*
X37513002Y-256157002D02*
X37513001Y-189482002D01*
X112188000Y-191982001D02*
G75*
G02*
X114188000Y-189982001I2000000J0D01*
G01*
X169363000Y-215819501D02*
G75*
G02*
X167363000Y-217819501I-2000000J0D01*
G01*
X47013000Y-227819501D02*
X100188000Y-227819501D01*
X114188000Y-189982001D02*
X167363000Y-189982001D01*
X167363000Y-189982001D02*
G75*
G02*
X169363000Y-191982001I0J-2000000D01*
G01*
X42712999Y-115807001D02*
G75*
G03*
X42712999Y-115807001I-1199999J0D01*
G01*
X45013000Y-229819501D02*
X45013000Y-253657001D01*
X42713000Y-180482002D02*
G75*
G03*
X42713000Y-180482002I-1199999J0D01*
G01*
X169363000Y-253657002D02*
G75*
G02*
X167363000Y-255657002I-2000000J0D01*
G01*
X114187999Y-217819502D02*
G75*
G02*
X112188000Y-215819501I1J2000000D01*
G01*
X100188000Y-227819501D02*
G75*
G02*
X102188000Y-229819501I0J-2000000D01*
G01*
X100188000Y-255657001D02*
X47013000Y-255657001D01*
X112188000Y-229819502D02*
G75*
G02*
X114188000Y-227819502I2000000J0D01*
G01*
X102188000Y-253657001D02*
G75*
G02*
X100188000Y-255657001I-2000000J0D01*
G01*
X169363000Y-215819501D02*
X169363000Y-191982001D01*
X102188000Y-253657001D02*
X102188000Y-229819501D01*
X112188000Y-191982001D02*
X112188000Y-215819501D01*
X45013000Y-229819501D02*
G75*
G02*
X47013000Y-227819501I2000000J0D01*
G01*
X167363000Y-217819501D02*
X114188000Y-217819501D01*
X40513001Y-184482001D02*
G75*
G02*
X37513002Y-181482002I0J2999999D01*
G01*
X47012999Y-255657002D02*
G75*
G02*
X45013000Y-253657001I1J2000000D01*
G01*
X43875000Y-116582002D02*
X43875000Y-134582002D01*
X43875000Y-116582002D02*
G75*
G02*
X44375000Y-116082002I500000J0D01*
G01*
X50875001Y-116082001D02*
X44375000Y-116082002D01*
X102188000Y-215819501D02*
X102188000Y-191982001D01*
X67251001Y-117332001D02*
X51875001Y-117332002D01*
X67751000Y-116832002D02*
G75*
G02*
X67251001Y-117332001I-499999J0D01*
G01*
X67751001Y-116582001D02*
G75*
G02*
X68251001Y-116082001I500000J0D01*
G01*
X74751001Y-116082001D02*
G75*
G02*
X75251001Y-116582001I0J-500000D01*
G01*
X174388000Y-222819502D02*
G75*
G03*
X174388000Y-222819502I-1200000J0D01*
G01*
X51375001Y-116832002D02*
X51375001Y-116582002D01*
X51875002Y-117332001D02*
G75*
G02*
X51375001Y-116832002I-1J500000D01*
G01*
X74751001Y-116082001D02*
X68251001Y-116082001D01*
X50875000Y-116082001D02*
G75*
G02*
X51375001Y-116582002I0J-500001D01*
G01*
X108388000Y-234819501D02*
G75*
G03*
X108388000Y-234819501I-1200000J0D01*
G01*
X45013000Y-191982001D02*
X45013000Y-215819501D01*
X108388000Y-210819501D02*
G75*
G03*
X108388000Y-210819501I-1200000J0D01*
G01*
X47012999Y-217819502D02*
G75*
G02*
X45013000Y-215819501I1J2000000D01*
G01*
X100188000Y-189982001D02*
G75*
G02*
X102188000Y-191982001I0J-2000000D01*
G01*
X45013000Y-191982001D02*
G75*
G02*
X47013000Y-189982001I2000000J0D01*
G01*
X42388000Y-222819501D02*
G75*
G03*
X42388000Y-222819501I-1200000J0D01*
G01*
X47013000Y-189982001D02*
X100188000Y-189982001D01*
X100188000Y-217819501D02*
X47013000Y-217819501D01*
X102188000Y-215819501D02*
G75*
G02*
X100188000Y-217819501I-2000000J0D01*
G01*
X51375001Y-134582002D02*
G75*
G02*
X50875001Y-135082002I-500000J0D01*
G01*
X174063001Y-180482002D02*
G75*
G03*
X174063001Y-180482002I-1200000J0D01*
G01*
X91163000Y-178957002D02*
X113688001Y-178957002D01*
X75251002Y-158394502D02*
G75*
G02*
X74751002Y-158894502I-500000J0D01*
G01*
X68251002Y-158894502D02*
G75*
G02*
X67751002Y-158394502I0J500000D01*
G01*
X67751002Y-140394501D02*
G75*
G02*
X68251002Y-139894501I500000J0D01*
G01*
X67751001Y-140644502D02*
G75*
G02*
X67251002Y-141144501I-499999J0D01*
G01*
X74751002Y-139894501D02*
X68251002Y-139894501D01*
X68251002Y-158894502D02*
X74751002Y-158894502D01*
X75251002Y-158394502D02*
X75251002Y-140394501D01*
X51875003Y-141144501D02*
G75*
G02*
X51375002Y-140644502I-1J500000D01*
G01*
X43875001Y-140394502D02*
X43875001Y-158394502D01*
X40513000Y-109807001D02*
G75*
G02*
X40513001Y-111807001I1J-1000000D01*
G01*
X44375001Y-158894502D02*
G75*
G02*
X43875001Y-158394502I0J500000D01*
G01*
X67251002Y-141144501D02*
X51875002Y-141144502D01*
X51375002Y-155644502D02*
G75*
G02*
X51875002Y-155144502I500000J0D01*
G01*
X51875002Y-155144502D02*
X67251002Y-155144502D01*
X74751002Y-139894501D02*
G75*
G02*
X75251002Y-140394501I0J-500000D01*
G01*
X50875002Y-139894501D02*
X44375001Y-139894502D01*
X67751002Y-155644502D02*
X67751002Y-158394502D01*
X51375002Y-158394502D02*
G75*
G02*
X50875002Y-158894502I-500000J0D01*
G01*
X44375001Y-158894502D02*
X50875002Y-158894502D01*
X43875001Y-140394502D02*
G75*
G02*
X44375001Y-139894502I500000J0D01*
G01*
X67751002Y-140394501D02*
X67751002Y-140644501D01*
X50875001Y-139894501D02*
G75*
G02*
X51375002Y-140394502I0J-500001D01*
G01*
X51375002Y-140644502D02*
X51375002Y-140394502D01*
X90163000Y-168957002D02*
G75*
G02*
X90663000Y-169457002I0J-500000D01*
G01*
X114188001Y-169457001D02*
G75*
G02*
X114688001Y-168957001I500000J0D01*
G01*
X90663000Y-169457002D02*
X90663001Y-178457002D01*
X67251001Y-131332002D02*
G75*
G02*
X67751001Y-131832002I0J-500000D01*
G01*
X75251001Y-134582002D02*
X75251001Y-116582001D01*
X61438001Y-164957002D02*
G75*
G02*
X60938001Y-164457002I0J500000D01*
G01*
X141538000Y-161707002D02*
G75*
G02*
X142038000Y-161207002I500000J0D01*
G01*
X152938000Y-164957001D02*
X149538000Y-164957001D01*
X44375000Y-135082002D02*
X50875001Y-135082002D01*
X142038000Y-180207002D02*
X148538000Y-180207002D01*
X61438001Y-168957002D02*
X90163000Y-168957002D01*
X149038000Y-169457001D02*
G75*
G02*
X149538000Y-168957001I500000J0D01*
G01*
X68251001Y-135082002D02*
X74751001Y-135082002D01*
X91163000Y-178957001D02*
G75*
G02*
X90663001Y-178457002I0J499999D01*
G01*
X44375000Y-135082002D02*
G75*
G02*
X43875000Y-134582002I0J500000D01*
G01*
X141038000Y-168957001D02*
G75*
G02*
X141538000Y-169457001I0J-500000D01*
G01*
X75251001Y-134582002D02*
G75*
G02*
X74751001Y-135082002I-500000J0D01*
G01*
X67751001Y-131832002D02*
X67751001Y-134582002D01*
X142038001Y-180207002D02*
G75*
G02*
X141538000Y-179707001I0J500001D01*
G01*
X176863002Y-181482001D02*
G75*
G02*
X173863001Y-184482002I-3000001J0D01*
G01*
X152938000Y-168957001D02*
G75*
G02*
X153438000Y-169457001I0J-500000D01*
G01*
X60938001Y-179707002D02*
X60938001Y-169457002D01*
X168126000Y-179707001D02*
G75*
G02*
X167626000Y-180207001I-500000J0D01*
G01*
X149038000Y-164457001D02*
X149038000Y-161707002D01*
X51375001Y-131832002D02*
G75*
G02*
X51875001Y-131332002I500000J0D01*
G01*
X149538000Y-168957001D02*
X152938000Y-168957001D01*
X167626000Y-161207002D02*
G75*
G02*
X168126000Y-161707002I0J-500000D01*
G01*
X51875001Y-131332002D02*
X67251001Y-131332002D01*
X114188001Y-178457002D02*
G75*
G02*
X113688001Y-178957002I-500000J0D01*
G01*
X114188001Y-178457002D02*
X114188001Y-169457001D01*
X60938002Y-179707001D02*
G75*
G02*
X60438001Y-180207002I-500001J0D01*
G01*
X60938001Y-164457002D02*
X60938001Y-161707002D01*
X141538000Y-169457001D02*
X141538000Y-179707001D01*
X68251001Y-135082002D02*
G75*
G02*
X67751001Y-134582002I0J500000D01*
G01*
X114688001Y-168957001D02*
X141038000Y-168957001D01*
X67751001Y-116582001D02*
X67751001Y-116832001D01*
X153438000Y-164457001D02*
G75*
G02*
X152938000Y-164957001I-500000J0D01*
G01*
X46288000Y-161707002D02*
X46288000Y-179707001D01*
X153938000Y-180207002D02*
X167626000Y-180207001D01*
X153438000Y-161707002D02*
G75*
G02*
X153938000Y-161207002I500000J0D01*
G01*
X153438000Y-169457001D02*
X153438000Y-179707002D01*
X46788000Y-180207001D02*
G75*
G02*
X46288000Y-179707001I0J500000D01*
G01*
X168126000Y-179707001D02*
X168126000Y-161707002D01*
X149538000Y-164957001D02*
G75*
G02*
X149038000Y-164457001I0J500000D01*
G01*
X141538000Y-161707002D02*
X141538000Y-164457001D01*
X167626000Y-161207002D02*
X153938000Y-161207002D01*
X51375000Y-134582002D02*
X51375001Y-131832002D01*
X153938001Y-180207001D02*
G75*
G02*
X153438000Y-179707002I-1J500000D01*
G01*
X46288001Y-161707001D02*
G75*
G02*
X46788000Y-161207002I499999J0D01*
G01*
X149038000Y-179707002D02*
X149038000Y-169457001D01*
X60438001Y-161207002D02*
G75*
G02*
X60938001Y-161707002I0J-500000D01*
G01*
X148538000Y-161207002D02*
X142038000Y-161207002D01*
X60938001Y-169457002D02*
G75*
G02*
X61438001Y-168957002I500000J0D01*
G01*
X60438001Y-180207002D02*
X46788000Y-180207001D01*
X148538000Y-161207002D02*
G75*
G02*
X149038000Y-161707002I0J-500000D01*
G01*
X173863001Y-111807002D02*
G75*
G02*
X176863001Y-114807002I0J-3000000D01*
G01*
X60438001Y-161207002D02*
X46788000Y-161207002D01*
X141538000Y-164457001D02*
G75*
G02*
X141038000Y-164957001I-500000J0D01*
G01*
X141038000Y-164957001D02*
X61438001Y-164957002D01*
X153438000Y-161707002D02*
X153438000Y-164457001D01*
X149038001Y-179707001D02*
G75*
G02*
X148538000Y-180207002I-500001J0D01*
G01*
X176863001Y-114807002D02*
X176863001Y-181482002D01*
X174063001Y-115807001D02*
G75*
G03*
X174063001Y-115807001I-1200000J0D01*
G01*
X37513002Y-181482002D02*
X37513001Y-114807002D01*
X37513001Y-114807002D02*
G75*
G02*
X40513001Y-111807002I3000000J0D01*
G01*
X43513000Y-105807001D02*
G75*
G03*
X43513000Y-105807001I-2000000J0D01*
G01*
X174863000Y-105807001D02*
G75*
G03*
X174863000Y-105807001I-2000000J0D01*
G01*
X43513000Y-41132001D02*
G75*
G03*
X43513000Y-41132001I-2000000J0D01*
G01*
X174388000Y-73469501D02*
G75*
G03*
X174388000Y-73469501I-1200000J0D01*
G01*
X40513000Y-37132001D02*
X173863000Y-37132001D01*
X176863000Y-40132001D02*
X176863000Y-106807001D01*
X174863000Y-41132001D02*
G75*
G03*
X174863000Y-41132001I-2000000J0D01*
G01*
X42388000Y-73469501D02*
G75*
G03*
X42388000Y-73469501I-1200000J0D01*
G01*
X108388000Y-85469501D02*
G75*
G03*
X108388000Y-85469501I-1200000J0D01*
G01*
X108388000Y-61469501D02*
G75*
G03*
X108388000Y-61469501I-1200000J0D01*
G01*
X40513000Y-109807000D02*
G75*
G02*
X37513001Y-106807001I0J2999999D01*
G01*
X37513001Y-106807001D02*
X37513000Y-40132001D01*
X37513000Y-40132001D02*
G75*
G02*
X40513000Y-37132001I3000000J0D01*
G01*
X176863001Y-106807000D02*
G75*
G02*
X173863000Y-109807001I-3000001J0D01*
G01*
X173863000Y-37132001D02*
G75*
G02*
X176863000Y-40132001I0J-3000000D01*
G01*
X43179666Y-41132001D02*
G75*
G03*
X43179666Y-41132001I-1666666J0D01*
G01*
X39013000Y-41132001D02*
X44013000Y-41132001D01*
X41513000Y-38632001D02*
X41513000Y-43632001D01*
M02*
